{
.appVersion = "3151";
.formatVersion = 3;
customParameters = (
{
name = vendorID;
value = COMM;
},
{
name = panose;
value = (
2,
13,
5,
4,
3,
5,
2,
12,
2,
3
);
},
{
name = unicodeRanges;
value = (
0,
1,
2
);
},
{
name = codePageRanges;
value = (
"1252",
"1250",
"1254",
"1257",
"bit 29"
);
},
{
name = fsType;
value = (
2
);
},
{
name = glyphOrder;
value = (
.notdef,
Eth,
eth,
Lslash,
lslash,
Scaron,
scaron,
Yacute,
yacute,
Thorn,
thorn,
Zcaron,
zcaron,
onehalf,
onequarter,
onesuperior,
threequarters,
threesuperior,
twosuperior,
brokenbar,
minus,
multiply,
space,
exclam,
quotedbl,
numbersign,
dollar,
percent,
ampersand,
quotesingle,
parenleft,
parenright,
asterisk,
plus,
comma,
hyphen,
period,
slash,
zero,
one,
two,
three,
four,
five,
six,
seven,
eight,
nine,
colon,
semicolon,
less,
equal,
greater,
question,
at,
A,
B,
C,
D,
E,
F,
G,
H,
I,
J,
K,
L,
M,
N,
O,
P,
Q,
R,
S,
T,
U,
V,
W,
X,
Y,
Z,
bracketleft,
backslash,
bracketright,
asciicircum,
underscore,
grave,
a,
b,
c,
d,
e,
f,
g,
h,
i,
j,
k,
l,
m,
n,
o,
p,
q,
r,
s,
t,
u,
v,
w,
x,
y,
z,
braceleft,
bar,
braceright,
asciitilde,
Adieresis,
Aring,
Ccedilla,
Eacute,
Ntilde,
Odieresis,
Udieresis,
aacute,
agrave,
acircumflex,
adieresis,
atilde,
aring,
ccedilla,
eacute,
egrave,
ecircumflex,
edieresis,
iacute,
igrave,
icircumflex,
idieresis,
ntilde,
oacute,
ograve,
ocircumflex,
odieresis,
otilde,
uacute,
ugrave,
ucircumflex,
udieresis,
dagger,
degree,
cent,
sterling,
section,
bullet,
paragraph,
germandbls,
registered,
copyright,
trademark,
acute,
dieresis,
notequal,
AE,
Oslash,
infinity,
plusminus,
lessequal,
greaterequal,
yen,
mu,
partialdiff,
summation,
product,
pi,
integral,
ordfeminine,
ordmasculine,
Omega,
ae,
oslash,
questiondown,
exclamdown,
logicalnot,
radical,
florin,
approxequal,
Delta,
guillemotleft,
guillemotright,
ellipsis,
uni00A0,
Agrave,
Atilde,
Otilde,
OE,
oe,
endash,
emdash,
quotedblleft,
quotedblright,
quoteleft,
quoteright,
divide,
lozenge,
ydieresis,
Ydieresis,
fraction,
Euro,
guilsinglleft,

glyphs = (
{
glyphname = Eth;
kernLeft = Eth;
kernRight = Eth;
layers = (
{
hints = (
{
horizontal = 1;
place = (0, 78);
place = (0, 78);
type = Stem;
},
{
horizontal = 1;
place = (322, 75);
place = (322, 75);
type = Stem;
},
{
horizontal = 1;
place = (638, 77);
place = (638, 77);
type = Stem;
},
{
place = (581, 91);
place = (581, 91);
type = Stem;
}
);
layerId = m01;
shapes = (
{
closed = 1;
nodes = (
(27,0,l),
(284,0,ls),
(541,0,o),
(672,198,o),
(672,430,cs),
(672,603,o),
(582,715,o),
(389,715,cs),
(165,715,l),
(103,397,l),
(32,397,l),
(17,322,l),
(89,322,l)
);
},
{
closed = 1;
nodes = (
(130,78,l),
(177,322,l),
(381,322,l),
(396,397,l),
(191,397,l),
(238,638,l),
(384,638,ls),
(525,638,o),
(581,554,o),
(581,424,cs),
(581,231,o),
(486,78,o),
(282,78,cs)
);
}
);
width = 684;
}
);
note = Eth;
unicode = 208;
},
{
glyphname = eth;
kernLeft = eth;
kernRight = eth;
layers = (
{
hints = (
{
horizontal = 1;
place = (-14, 67);
place = (-14, 67);
type = Stem;
},
{
horizontal = 1;
place = (460, 66);
place = (460, 66);
type = Stem;
},
{
horizontal = 1;
place = (715, -20);
target = down;
type = TopGhost;
},
{
place = (23, 80);
place = (23, 80);
type = Stem;
},
{
place = (432, 86);
place = (432, 86);
type = Stem;
},
{
horizontal = 1;
place = (695, -20);
target = down;
type = TopGhost;
},
{
horizontal = 1;
place = (639, 76);
place = (639, 76);
type = Stem;
}
);
layerId = m01;
shapes = (
{
closed = 1;
nodes = (
(200,602,l),
(210,558,l),
(356,602,l),
(389,561,o),
(415,515,o),
(434,457,c),
(404,501,o),
(364,526,o),
(293,526,cs),
(124,526,o),
(23,363,o),
(23,214,cs),
(23,87,o),
(99,-14,o),
(239,-14,cs),
(426,-14,o),
(518,158,o),
(518,351,cs),
(518,469,o),
(478,559,o),
(430,624,c),
(518,651,l),
(507,695,l),
(398,662,l),
(378,683,o),
(358,701,o),
(339,715,c),
(238,715,l),
(269,690,o),
(297,666,o),
(323,639,c)
);
},
{
closed = 1;
nodes = (
(152,53,o),
(103,118,o),
(103,213,cs),
(103,335,o),
(165,460,o),
(292,460,cs),
(389,460,o),
(432,393,o),
(432,306,cs),
(432,179,o),
(370,53,o),
(242,53,cs)
);
}
);
width = 538;
}
);
note = eth;
unicode = 240;
},
{
glyphname = Lslash;
layers = (
{
hints = (
{
horizontal = 1;
place = (0, 82);
place = (0, 82);
type = Stem;
},
{
horizontal = 1;
place = (715, -20);
target = down;
type = TopGhost;
},
{
place = (-6, 495);
place = (-6, 495);
type = Stem;
}
);
layerId = m01;
shapes = (
{
closed = 1;
nodes = (
(-6,201,l),
(72,239,l),
(26,0,l),
(473,0,l),
(489,82,l),
(130,82,l),
(169,286,l),
(439,417,l),
(455,498,l),
(185,367,l),
(252,715,l),
(164,715,l),
(87,319,l),
(10,282,l)
);
}
);
width = 549;
}
);
note = Lslash;
unicode = 321;
},
{
glyphname = lslash;
layers = (
{
hints = (
{
horizontal = 1;
place = (0, 21);
target = up;
type = BottomGhost;
},
{
horizontal = 1;
place = (715, -20);
target = down;
type = TopGhost;
},
{
place = (6, 275);
place = (6, 275);
type = Stem;
}
);
layerId = m01;
shapes = (
{
closed = 1;
nodes = (
(6,241,l),
(84,296,l),
(27,0,l),
(107,0,l),
(177,361,l),
(266,425,l),
(281,502,l),
(192,438,l),
(245,715,l),
(165,715,l),
(99,373,l),
(21,318,l)
);
}
);
width = 237;
}
);
note = lslash;
unicode = 322;
},
{
glyphname = Scaron;
kernLeft = Scaron;
kernRight = Scaron;
layers = (
{
hints = (
{
horizontal = 1;
place = (-14, 73);
place = (-14, 73);
type = Stem;
},
{
horizontal = 1;
place = (657, 72);
place = (657, 72);
type = Stem;
},
{
place = (10, 85);
place = (10, 85);
type = Stem;
},
{
place = (470, 87);
place = (470, 87);
type = Stem;
},
{
place = (94, 83);
place = (94, 83);
type = Stem;
},
{
horizontal = 1;
place = (757, 106);
place = (757, 106);
type = Stem;
}
);
layerId = m01;
shapes = (
{
closed = 1;
nodes = (
(457,-14,o),
(557,79,o),
(557,213,cs),
(557,335,o),
(462,373,o),
(328,422,cs),
(235,456,o),
(177,482,o),
(177,542,cs),
(177,630,o),
(249,657,o),
(329,657,cs),
(437,657,o),
(499,612,o),
(504,506,c),
(588,506,l),
(580,667,o),
(474,729,o),
(329,729,cs),
(195,729,o),
(94,654,o),
(94,534,cs),
(94,433,o),
(170,388,o),
(291,344,cs),
(408,301,o),
(470,277,o),
(470,203,cs),
(470,110,o),
(400,59,o),
(291,59,cs),
(170,59,o),
(95,112,o),
(95,242,c),
(10,242,l),
(5,52,o),
(143,-14,o),
(289,-14,cs)
);
},
{
closed = 1;
nodes = (
(505,863,l),
(417,863,l),
(361,800,l),
(359,800,l),
(317,863,l),
(235,863,l),
(309,757,l),
(399,757,l)
);
}
);
width = 602;
}
);
note = Scaron;
unicode = 352;
},
{
glyphname = scaron;
kernLeft = scaron;
kernRight = scaron;
layers = (
{
hints = (
{
horizontal = 1;
place = (-15, 66);
place = (-15, 66);
type = Stem;
},
{
horizontal = 1;
place = (466, 62);
place = (466, 62);
type = Stem;
},
{
horizontal = 1;
place = (602, 106);
place = (602, 106);
type = Stem;
},
{
place = (62, 75);
place = (62, 75);
type = Stem;
},
{
place = (336, 78);
place = (336, 78);
type = Stem;
}
);
layerId = m01;
shapes = (
{
closed = 1;
nodes = (
(319,-15,o),
(414,34,o),
(414,146,cs),
(414,235,o),
(347,265,o),
(256,301,cs),
(173,334,o),
(137,350,o),
(137,392,cs),
(137,450,o),
(188,466,o),
(241,466,cs),
(306,466,o),
(353,437,o),
(361,366,c),
(439,366,l),
(432,482,o),
(345,528,o),
(241,528,cs),
(137,528,o),
(62,478,o),
(62,388,cs),
(62,299,o),
(132,269,o),
(217,236,cs),
(301,203,o),
(336,185,o),
(336,144,cs),
(336,71,o),
(274,51,o),
(219,51,cs),
(129,51,o),
(77,91,o),
(75,168,c),
(-2,168,l),
(-2,42,o),
(101,-15,o),
(213,-15,cs)
);
},
{
closed = 1;
nodes = (
(417,708,l),
(329,708,l),
(273,645,l),
(271,645,l),
(229,708,l),
(147,708,l),
(221,602,l),
(311,602,l)
);
}
);
width = 464;
}
);
note = scaron;
unicode = 353;
},
{
glyphname = Yacute;
kernLeft = Yacute;
kernRight = Yacute;
layers = (
{
hints = (
{
horizontal = 1;
place = (0, 21);
target = up;
type = BottomGhost;
},
{
horizontal = 1;
place = (715, -20);
target = down;
type = TopGhost;
},
{
horizontal = 1;
place = (753, 121);
place = (753, 121);
type = Stem;
},
{
place = (81, 587);
place = (81, 587);
type = Stem;
}
);
layerId = m01;
shapes = (
{
closed = 1;
nodes = (
(199,0,l),
(287,0,l),
(344,296,l),
(668,715,l),
(569,715,l),
(316,376,l),
(314,376,l),
(176,715,l),
(81,715,l),
(257,303,l)
);
},
{
closed = 1;
nodes = (
(337,753,l),
(405,753,l),
(497,874,l),
(399,874,l)
);
}
);
width = 580;
}
);
note = Yacute;
unicode = 221;
},
{
glyphname = yacute;
kernLeft = yacute;
kernRight = yacute;
layers = (
{
hints = (
{
horizontal = 1;
place = (-171, 71);
place = (-171, 71);
type = Stem;
},
{
horizontal = 1;
place = (517, -20);
target = down;
type = TopGhost;
},
{
horizontal = 1;
place = (598, 127);
place = (598, 127);
type = Stem;
},
{
place = (-25, 527);
place = (-25, 527);
type = Stem;
},
{
horizontal = 1;
place = (-159, 21);
target = up;
type = BottomGhost;
}
);
layerId = m01;
shapes = (
{
closed = 1;
nodes = (
(107,-171,o),
(158,-145,o),
(200,-64,cs),
(502,517,l),
(419,517,l),
(260,196,ls),
(237,149,o),
(214,96,o),
(214,96,c),
(212,96,l),
(212,96,o),
(206,153,o),
(197,197,cs),
(131,517,l),
(49,517,l),
(159,16,l),
(125,-49,ls),
(105,-87,o),
(78,-100,o),
(45,-100,cs),
(18,-100,o),
(3,-94,o),
(-7,-89,c),
(-11,-89,l),
(-25,-159,l),
(-7,-167,o),
(17,-171,o),
(44,-171,cs)
);
},
{
closed = 1;
nodes = (
(245,598,l),
(314,598,l),
(406,725,l),
(308,725,l)
);
}
);
width = 457;
}
);
note = yacute;
unicode = 253;
},
{
glyphname = Thorn;
kernRight = Thorn;
layers = (
{
hints = (
{
horizontal = 1;
place = (0, 21);
target = up;
type = BottomGhost;
},
{
horizontal = 1;
place = (174, 72);
place = (174, 72);
type = Stem;
},
{
horizontal = 1;
place = (511, 77);
place = (511, 77);
type = Stem;
},
{
place = (499, 88);
place = (499, 88);
type = Stem;
},
{
horizontal = 1;
place = (511, 204);
place = (511, 204);
type = Stem;
}
);
layerId = m01;
shapes = (
{
closed = 1;
nodes = (
(16,0,l),
(104,0,l),
(137,174,l),
(337,174,ls),
(493,174,o),
(587,263,o),
(587,404,cs),
(587,463,o),
(567,502,o),
(541,529,cs),
(503,568,o),
(444,588,o),
(378,588,cs),
(217,588,l),
(242,715,l),
(154,715,l),
(129,588,l)
);
},
{
closed = 1;
nodes = (
(202,511,l),
(368,511,ls),
(449,511,o),
(499,470,o),
(499,400,cs),
(499,290,o),
(433,246,o),
(335,246,cs),
(151,246,l)
);
}
);
width = 590;
}
);
note = Thorn;
unicode = 222;
},
{
glyphname = thorn;
kernRight = thorn;
layers = (
{
hints = (
{
horizontal = 1;
place = (-166, 21);
target = up;
type = BottomGhost;
},
{
horizontal = 1;
place = (-15, 67);
place = (-15, 67);
type = Stem;
},
{
horizontal = 1;
place = (461, 68);
place = (461, 68);
type = Stem;
},
{
horizontal = 1;
place = (715, -20);
target = down;
type = TopGhost;
},
{
place = (440, 82);
place = (440, 82);
type = Stem;
}
);
layerId = m01;
shapes = (
{
closed = 1;
nodes = (
(-28,-166,l),
(52,-166,l),
(99,76,l),
(101,76,l),
(131,18,o),
(185,-15,o),
(261,-15,cs),
(437,-15,o),
(522,159,o),
(522,315,cs),
(522,443,o),
(453,529,o),
(340,529,cs),
(271,529,o),
(214,497,o),
(173,446,c),
(171,446,l),
(222,715,l),
(142,715,l)
);
},
{
closed = 1;
nodes = (
(126,331,o),
(194,461,o),
(319,461,cs),
(410,461,o),
(440,390,o),
(440,310,cs),
(440,195,o),
(386,52,o),
(258,52,cs),
(166,52,o),
(124,120,o),
(125,208,cs)
);
}
);
width = 547;
}
);
note = thorn;
unicode = 254;
},
{
glyphname = Zcaron;
kernLeft = Zcaron;
kernRight = Zcaron;
layers = (
{
hints = (
{
horizontal = 1;
place = (0, 79);
place = (0, 79);
type = Stem;
},
{
horizontal = 1;
place = (641, 74);
place = (641, 74);
type = Stem;
},
{
horizontal = 1;
place = (757, 106);
place = (757, 106);
type = Stem;
},
{
place = (-20, 653);
place = (-20, 653);
type = Stem;
}
);
layerId = m01;
shapes = (
{
closed = 1;
nodes = (
(-20,0,l),
(517,0,l),
(532,79,l),
(103,79,l),
(103,82,l),
(620,647,l),
(633,715,l),
(137,715,l),
(123,641,l),
(505,641,l),
(505,638,l),
(-4,84,l)
);
},
{
closed = 1;
nodes = (
(539,863,l),
(451,863,l),
(395,800,l),
(393,800,l),
(351,863,l),
(269,863,l),
(343,757,l),
(433,757,l)
);
}
);
width = 592;
}
);
note = Zcaron;
unicode = 381;
},
{
glyphname = zcaron;
kernLeft = zcaron;
kernRight = zcaron;
layers = (
{
hints = (
{
horizontal = 1;
place = (0, 72);
place = (0, 72);
type = Stem;
},
{
horizontal = 1;
place = (448, 69);
place = (448, 69);
type = Stem;
},
{
horizontal = 1;
place = (602, 106);
place = (602, 106);
type = Stem;
},
{
place = (-23, 482);
place = (-23, 482);
type = Stem;
}
);
layerId = m01;
shapes = (
{
closed = 1;
nodes = (
(-23,0,l),
(373,0,l),
(386,72,l),
(94,72,l),
(94,75,l),
(450,471,l),
(459,517,l),
(90,517,l),
(77,448,l),
(333,448,l),
(333,445,l),
(-11,62,l)
);
},
{
closed = 1;
nodes = (
(433,708,l),
(345,708,l),
(289,645,l),
(287,645,l),
(245,708,l),
(163,708,l),
(237,602,l),
(327,602,l)
);
}
);
width = 443;
}
);
note = zcaron;
unicode = 382;
},
{
glyphname = onehalf;
layers = (
{
hints = (
{
horizontal = 1;
place = (0, 59);
place = (0, 59);
type = Stem;
},
{
horizontal = 1;
place = (361, 58);
place = (361, 58);
type = Stem;
},
{
horizontal = 1;
place = (593, 125);
place = (593, 125);
type = Stem;
},
{
place = (693, 72);
place = (693, 72);
type = Stem;
},
{
horizontal = 1;
place = (593, 49);
place = (593, 49);
type = Stem;
},
{
horizontal = 1;
place = (715, -20);
target = down;
type = TopGhost;
}
);
layerId = m01;
shapes = (
{
closed = 1;
nodes = (
(132,304,l),
(203,304,l),
(283,718,l),
(223,718,l),
(206,668,o),
(168,644,o),
(100,642,c),
(91,593,l),
(188,593,l)
);
},
{
closed = 1;
nodes = (
(51,0,l),
(124,0,l),
(687,715,l),
(615,715,l)
);
},
{
closed = 1;
nodes = (
(712,0,l),
(723,59,l),
(508,59,l),
(523,100,o),
(572,124,o),
(623,149,cs),
(719,195,o),
(764,230,o),
(765,303,cs),
(766,387,o),
(700,419,o),
(636,419,cs),
(552,420,o),
(487,367,o),
(473,268,c),
(541,268,l),
(550,330,o),
(586,361,o),
(630,361,cs),
(667,361,o),
(693,340,o),
(693,302,cs),
(693,249,o),
(655,228,o),
(596,198,cs),
(506,152,o),
(435,107,o),
(414,0,c)
);
}
);
width = 791;
}
);
note = onehalf;
unicode = 189;
},
{
glyphname = onequarter;
layers = (
{
hints = (
{
horizontal = 1;
place = (0, 148);
place = (0, 148);
type = Stem;
},
{
horizontal = 1;
place = (593, 125);
place = (593, 125);
type = Stem;
},
{
place = (62, 659);
place = (62, 659);
type = Stem;
},
{
horizontal = 1;
place = (593, 49);
place = (593, 49);
type = Stem;
},
{
horizontal = 1;
place = (715, -20);
target = down;
type = TopGhost;
},
{
horizontal = 1;
place = (94, 54);
place = (94, 54);
type = Stem;
},
{
horizontal = 1;
place = (320, 96);
place = (320, 96);
type = Stem;
}
);
layerId = m01;
shapes = (
{
closed = 1;
nodes = (
(132,304,l),
(203,304,l),
(283,718,l),
(223,718,l),
(206,668,o),
(168,644,o),
(100,642,c),
(91,593,l),
(188,593,l)
);
},
{
closed = 1;
nodes = (
(62,0,l),
(135,0,l),
(698,715,l),
(626,715,l)
);
},
{
closed = 1;
nodes = (
(560,0,l),
(628,0,l),
(646,94,l),
(710,94,l),
(721,148,l),
(657,148,l),
(708,416,l),
(641,416,l),
(393,164,l),
(379,94,l),
(578,94,l)
);
},
{
closed = 1;
nodes = (
(450,150,l),
(620,320,l),
(622,320,l),
(589,148,l),
(450,148,l)
);
}
);
width = 767;
}
);
note = onequarter;
unicode = 188;
},
{
glyphname = onesuperior;
layers = (
{
hints = (
{
horizontal = 1;
place = (563, 125);
place = (563, 125);
type = Stem;
},
{
place = (82, 192);
place = (82, 192);
type = Stem;
},
{
horizontal = 1;
place = (563, 49);
place = (563, 49);
type = Stem;
}
);
layerId = m01;
shapes = (
{
closed = 1;
nodes = (
(123,274,l),
(194,274,l),
(274,688,l),
(214,688,l),
(197,638,o),
(159,614,o),
(91,612,c),
(82,563,l),
(179,563,l)
);
}
);
width = 250;
}
);
note = onesuperior;
unicode = 185;
},
{
glyphname = threequarters;
layers = (
{
hints = (
{
horizontal = 1;
place = (0, 148);
place = (0, 148);
type = Stem;
},
{
horizontal = 1;
place = (295, 56);
place = (295, 56);
type = Stem;
},
{
horizontal = 1;
place = (518, -20);
target = down;
type = TopGhost;
},
{
horizontal = 1;
place = (671, 53);
place = (671, 53);
type = Stem;
},
{
place = (299, 72);
place = (299, 72);
type = Stem;
},
{
horizontal = 1;
place = (494, 55);
place = (494, 55);
type = Stem;
},
{
place = (312, 69);
place = (312, 69);
type = Stem;
},
{
horizontal = 1;
place = (715, -20);
target = down;
type = TopGhost;
},
{
horizontal = 1;
place = (94, 54);
place = (94, 54);
type = Stem;
},
{
horizontal = 1;
place = (320, 96);
place = (320, 96);
type = Stem;
}
);
layerId = m01;
shapes = (
{
closed = 1;
nodes = (
(299,295,o),
(371,346,o),
(371,431,cs),
(371,473,o),
(345,507,o),
(304,518,c),
(304,520,l),
(348,534,o),
(381,569,o),
(381,619,cs),
(381,691,o),
(318,724,o),
(250,724,cs),
(166,724,o),
(102,676,o),
(87,588,c),
(155,588,l),
(166,640,o),
(199,671,o),
(249,671,cs),
(287,671,o),
(312,649,o),
(312,614,cs),
(312,566,o),
(277,547,o),
(236,549,cs),
(208,549,l),
(198,494,l),
(219,494,ls),
(271,494,o),
(300,468,o),
(299,426,cs),
(298,378,o),
(266,351,o),
(216,351,cs),
(151,351,o),
(122,395,o),
(121,442,c),
(54,442,l),
(57,347,o),
(121,295,o),
(214,295,cs)
);
},
{
closed = 1;
nodes = (
(138,0,l),
(211,0,l),
(774,715,l),
(702,715,l)
);
},
{
closed = 1;
nodes = (
(625,0,l),
(693,0,l),
(711,94,l),
(775,94,l),
(786,148,l),
(722,148,l),
(773,416,l),
(706,416,l),
(458,164,l),
(444,94,l),
(643,94,l)
);
},
{
closed = 1;
nodes = (
(515,150,l),
(685,320,l),
(687,320,l),
(654,148,l),
(515,148,l)
);
}
);
width = 831;
}
);
note = threequarters;
unicode = 190;
},
{
glyphname = threesuperior;
layers = (
{
hints = (
{
horizontal = 1;
place = (265, 56);
place = (265, 56);
type = Stem;
},
{
horizontal = 1;
place = (464, 55);
place = (464, 55);
type = Stem;
},
{
horizontal = 1;
place = (641, 53);
place = (641, 53);
type = Stem;
},
{
place = (290, 72);
place = (290, 72);
type = Stem;
},
{
place = (303, 69);
place = (303, 69);
type = Stem;
}
);
layerId = m01;
shapes = (
{
closed = 1;
nodes = (
(290,265,o),
(362,316,o),
(362,401,cs),
(362,443,o),
(336,477,o),
(295,488,c),
(295,490,l),
(339,504,o),
(372,539,o),
(372,589,cs),
(372,661,o),
(309,694,o),
(241,694,cs),
(157,694,o),
(93,646,o),
(78,558,c),
(146,558,l),
(157,610,o),
(190,641,o),
(240,641,cs),
(278,641,o),
(303,619,o),
(303,584,cs),
(303,536,o),
(268,517,o),
(227,519,cs),
(199,519,l),
(189,464,l),
(210,464,ls),
(262,464,o),
(291,438,o),
(290,396,cs),
(289,348,o),
(257,321,o),
(207,321,cs),
(142,321,o),
(113,365,o),
(112,412,c),
(45,412,l),
(48,317,o),
(112,265,o),
(205,265,cs)
);
}
);
width = 361;
}
);
note = threesuperior;
unicode = 179;
},
{
glyphname = twosuperior;
layers = (
{
hints = (
{
horizontal = 1;
place = (274, 59);
place = (274, 59);
type = Stem;
},
{
horizontal = 1;
place = (635, 58);
place = (635, 58);
type = Stem;
},
{
place = (301, 72);
place = (301, 72);
type = Stem;
}
);
layerId = m01;
shapes = (
{
closed = 1;
nodes = (
(320,274,l),
(331,333,l),
(116,333,l),
(131,374,o),
(180,398,o),
(231,423,cs),
(327,469,o),
(372,504,o),
(373,577,cs),
(374,661,o),
(308,693,o),
(244,693,cs),
(160,694,o),
(95,641,o),
(81,542,c),
(149,542,l),
(158,604,o),
(194,635,o),
(238,635,cs),
(275,635,o),
(301,614,o),
(301,576,cs),
(301,523,o),
(263,502,o),
(204,472,cs),
(114,426,o),
(43,381,o),
(22,274,c)
);
}
);
width = 343;
}
);
note = twosuperior;
unicode = 178;
},
{
glyphname = brokenbar;
layers = (
{
hints = (
{
horizontal = 1;
place = (-118, 872);
place = (-118, 872);
type = Stem;
},
{
place = (95, 70);
place = (95, 70);
type = Stem;
}
);
layerId = m01;
shapes = (
{
closed = 1;
nodes = (
(95,-118,l),
(165,-118,l),
(165,294,l),
(95,294,l)
);
},
{
closed = 1;
nodes = (
(95,358,l),
(165,358,l),
(165,754,l),
(95,754,l)
);
}
);
width = 220;
}
);
note = brokenbar;
unicode = 166;
},
{
glyphname = minus;
kernLeft = minus;
kernRight = minus;
layers = (
{
hints = (
{
horizontal = 1;
place = (295, 63);
place = (295, 63);
type = Stem;
},
{
place = (59, 459);
place = (59, 459);
type = Stem;
}
);
layerId = m01;
shapes = (
{
closed = 1;
nodes = (
(59,295,l),
(506,295,l),
(518,358,l),
(71,358,l)
);
}
);
width = 551;
}
);
note = minus;
unicode = 8722;
},
{
glyphname = multiply;
layers = (
{
hints = (
{
horizontal = 1;
place = (117, 418);
place = (117, 418);
type = Stem;
},
{
place = (54, 449);
place = (54, 449);
type = Stem;
}
);
layerId = m01;
shapes = (
{
closed = 1;
nodes = (
(54,163,l),
(93,117,l),
(273,281,l),
(403,117,l),
(452,158,l),
(320,323,l),
(503,489,l),
(463,535,l),
(283,371,l),
(153,535,l),
(105,494,l),
(236,328,l)
);
}
);
width = 531;
}
);
note = multiply;
unicode = 215;
},
{
glyphname = exclam;
kernLeft = exclam;
layers = (
{
hints = (
{
horizontal = 1;
place = (0, 99);
place = (0, 99);
type = Stem;
},
{
horizontal = 1;
place = (715, -20);
target = down;
type = TopGhost;
},
{
place = (18, 229);
place = (18, 229);
type = Stem;
}
);
layerId = m01;
shapes = (
{
closed = 1;
nodes = (
(74,173,l),
(119,173,l),
(202,480,l),
(247,715,l),
(160,715,l),
(116,486,l)
);
},
{
closed = 1;
nodes = (
(18,0,l),
(113,0,l),
(132,99,l),
(37,99,l)
);
}
);
width = 231;
}
);
note = exclam;
unicode = 33;
},
{
glyphname = quotedbl;
kernLeft = quotedbl;
kernRight = quotedbl;
layers = (
{
hints = (
{
horizontal = 1;
place = (501, 214);
place = (501, 214);
type = Stem;
},
{
place = (88, 251);
place = (88, 251);
type = Stem;
}
);
layerId = m01;
shapes = (
{
closed = 1;
nodes = (
(225,501,l),
(298,501,l),
(339,715,l),
(266,715,l)
);
},
{
closed = 1;
nodes = (
(88,501,l),
(161,501,l),
(202,715,l),
(129,715,l)
);
}
);
width = 292;
}
);
note = quotedbl;
unicode = 34;
},
{
glyphname = numbersign;
layers = (
{
hints = (
{
horizontal = 1;
place = (0, 21);
target = up;
type = BottomGhost;
},
{
horizontal = 1;
place = (198, 72);
place = (198, 72);
type = Stem;
},
{
horizontal = 1;
place = (424, 72);
place = (424, 72);
type = Stem;
},
{
horizontal = 1;
place = (686, -20);
target = down;
type = TopGhost;
},
{
place = (12, 548);
place = (12, 548);
type = Stem;
}
);
layerId = m01;
shapes = (
{
closed = 1;
nodes = (
(74,424,l),
(174,424,l),
(132,270,l),
(32,270,l),
(12,198,l),
(112,198,l),
(59,0,l),
(126,0,l),
(179,198,l),
(313,198,l),
(260,0,l),
(327,0,l),
(380,198,l),
(477,198,l),
(498,270,l),
(399,270,l),
(442,424,l),
(540,424,l),
(560,496,l),
(461,496,l),
(512,686,l),
(446,686,l),
(394,496,l),
(260,496,l),
(312,686,l),
(245,686,l),
(193,496,l),
(94,496,l)
);
},
{
closed = 1;
nodes = (
(241,424,l),
(375,424,l),
(332,270,l),
(199,270,l)
);
}
);
width = 542;
}
);
note = numbersign;
unicode = 35;
},
{
glyphname = dollar;
layers = (
{
hints = (
{
horizontal = 1;
place = (-1, 66);
place = (-1, 66);
type = Stem;
},
{
horizontal = 1;
place = (637, 65);
place = (637, 65);
type = Stem;
},
{
place = (80, 78);
place = (80, 78);
type = Stem;
},
{
place = (475, 80);
place = (475, 80);
type = Stem;
},
{
place = (433, 81);
place = (433, 81);
type = Stem;
},
{
place = (-3, 83);
place = (-3, 83);
type = Stem;
}
);
layerId = m01;
shapes = (
{
closed = 1;
nodes = (
(180,-85,l),
(235,-85,l),
(251,-1,l),
(267,-1,ls),
(409,-1,o),
(514,79,o),
(514,206,cs),
(514,308,o),
(450,353,o),
(328,392,c),
(374,631,l),
(428,618,o),
(470,584,o),
(475,519,c),
(555,519,l),
(547,629,o),
(478,681,o),
(387,696,c),
(399,757,l),
(344,757,l),
(333,701,l),
(328,701,o),
(323,702,o),
(318,702,cs),
(181,702,o),
(80,628,o),
(80,514,cs),
(80,414,o),
(148,371,o),
(261,333,c),
(210,70,l),
(130,86,o),
(81,138,o),
(80,231,c),
(-3,231,l),
(0,94,o),
(81,23,o),
(197,4,c)
);
},
{
closed = 1;
nodes = (
(433,103,o),
(355,65,o),
(269,65,cs),
(264,65,l),
(313,316,l),
(399,285,o),
(433,255,o),
(433,203,cs)
);
},
{
closed = 1;
nodes = (
(158,608,o),
(235,637,o),
(316,637,cs),
(320,637,l),
(276,408,l),
(190,436,o),
(158,467,o),
(158,516,cs)
);
}
);
width = 550;
}
);
note = dollar;
unicode = 36;
},
{
glyphname = percent;
kernLeft = percent;
layers = (
{
hints = (
{
horizontal = 1;
place = (-15, 59);
place = (-15, 59);
type = Stem;
},
{
horizontal = 1;
place = (305, 59);
place = (305, 59);
type = Stem;
},
{
horizontal = 1;
place = (642, 59);
place = (642, 59);
type = Stem;
},
{
place = (68, 73);
place = (68, 73);
type = Stem;
},
{
place = (317, 73);
place = (317, 73);
type = Stem;
},
{
place = (440, 73);
place = (440, 73);
type = Stem;
},
{
place = (689, 73);
place = (689, 73);
type = Stem;
},
{
horizontal = 1;
place = (0, 21);
target = up;
type = BottomGhost;
},
{
horizontal = 1;
place = (685, -20);
target = down;
type = TopGhost;
},
{
horizontal = 1;
place = (322, 59);
place = (322, 59);
type = Stem;
}
);
layerId = m01;
shapes = (
{
closed = 1;
nodes = (
(331,305,o),
(390,435,o),
(390,548,cs),
(390,646,o),
(337,701,o),
(255,701,cs),
(129,701,o),
(68,566,o),
(68,459,cs),
(68,362,o),
(123,305,o),
(210,305,cs)
);
},
{
closed = 1;
nodes = (
(128,0,l),
(195,0,l),
(705,685,l),
(638,685,l)
);
},
{
closed = 1;
nodes = (
(141,532,o),
(172,642,o),
(249,642,cs),
(301,642,o),
(317,600,o),
(317,546,cs),
(317,474,o),
(293,364,o),
(211,364,cs),
(159,364,o),
(141,405,o),
(141,458,cs)
);
},
{
closed = 1;
nodes = (
(703,-15,o),
(762,115,o),
(762,228,cs),
(762,326,o),
(709,381,o),
(627,381,cs),
(501,381,o),
(440,246,o),
(440,139,cs),
(440,42,o),
(495,-15,o),
(582,-15,cs)
);
},
{
closed = 1;
nodes = (
(513,212,o),
(544,322,o),
(621,322,cs),
(673,322,o),
(689,280,o),
(689,226,cs),
(689,154,o),
(665,44,o),
(583,44,cs),
(531,44,o),
(513,85,o),
(513,138,cs)
);
}
);
width = 800;
}
);
note = percent;
unicode = 37;
},
{
glyphname = ampersand;
kernLeft = ampersand;
kernRight = ampersand;
layers = (
{
hints = (
{
horizontal = 1;
place = (-14, 70);
place = (-14, 70);
type = Stem;
},
{
horizontal = 1;
place = (642, 66);
place = (642, 66);
type = Stem;
},
{
place = (14, 81);
place = (14, 81);
type = Stem;
},
{
place = (148, 79);
place = (148, 79);
type = Stem;
},
{
place = (381, 77);
place = (381, 77);
type = Stem;
},
{
horizontal = 1;
place = (0, 21);
target = up;
type = BottomGhost;
},
{
place = (463, 69);
place = (463, 69);
type = Stem;
}
);
layerId = m01;
shapes = (
{
closed = 1;
nodes = (
(287,-14,o),
(351,17,o),
(399,63,c),
(439,0,l),
(532,0,l),
(454,125,l),
(493,179,o),
(522,244,o),
(532,331,c),
(463,331,l),
(456,270,o),
(439,224,o),
(417,186,c),
(301,376,l),
(381,420,o),
(458,474,o),
(458,568,cs),
(458,656,o),
(390,708,o),
(314,708,cs),
(215,708,o),
(148,635,o),
(148,544,cs),
(148,492,o),
(164,449,o),
(201,395,c),
(103,346,o),
(14,289,o),
(14,170,cs),
(14,43,o),
(112,-14,o),
(211,-14,cs)
);
},
{
closed = 1;
nodes = (
(95,264,o),
(168,309,o),
(233,341,c),
(365,122,l),
(322,80,o),
(276,56,o),
(216,56,cs),
(142,56,o),
(95,101,o),
(95,173,cs)
);
},
{
closed = 1;
nodes = (
(355,642,o),
(381,608,o),
(381,565,cs),
(381,496,o),
(323,459,o),
(271,428,c),
(236,480,o),
(227,510,o),
(227,549,cs),
(227,604,o),
(259,642,o),
(309,642,cs)
);
}
);
width = 570;
}
);
note = ampersand;
unicode = 38;
},
{
glyphname = quotesingle;
kernLeft = quotedbl;
kernRight = quotedbl;
layers = (
{
hints = (
{
horizontal = 1;
place = (501, 214);
place = (501, 214);
type = Stem;
},
{
place = (88, 114);
place = (88, 114);
type = Stem;
}
);
layerId = m01;
shapes = (
{
closed = 1;
nodes = (
(88,501,l),
(161,501,l),
(202,715,l),
(129,715,l)
);
}
);
width = 155;
}
);
note = quotesingle;
unicode = 39;
},
{
glyphname = parenleft;
kernRight = parenleft;
layers = (
{
hints = (
{
horizontal = 1;
place = (-118, 872);
place = (-118, 872);
type = Stem;
},
{
place = (71, 88);
place = (71, 88);
type = Stem;
}
);
layerId = m01;
shapes = (
{
closed = 1;
nodes = (
(209,-118,l),
(179,-27,o),
(159,64,o),
(159,189,cs),
(159,403,o),
(241,590,o),
(381,754,c),
(311,754,l),
(156,598,o),
(71,425,o),
(71,203,cs),
(71,79,o),
(97,-21,o),
(144,-118,c)
);
}
);
width = 299;
}
);
note = parenleft;
unicode = 40;
},
{
glyphname = parenright;
kernLeft = parenright;
layers = (
{
hints = (
{
horizontal = 1;
place = (-118, 872);
place = (-118, 872);
type = Stem;
},
{
place = (168, 88);
place = (168, 88);
type = Stem;
}
);
layerId = m01;
shapes = (
{
closed = 1;
nodes = (
(118,754,l),
(148,663,o),
(168,572,o),
(168,447,cs),
(168,233,o),
(86,46,o),
(-54,-118,c),
(16,-118,l),
(171,38,o),
(256,211,o),
(256,433,cs),
(256,557,o),
(230,657,o),
(183,754,c)
);
}
);
width = 299;
}
);
note = parenright;
unicode = 41;
},
{
glyphname = asterisk;
kernLeft = asterisk;
kernRight = asterisk;
layers = (
{
hints = (
{
horizontal = 1;
place = (715, -20);
target = down;
type = TopGhost;
},
{
place = (111, 274);
place = (111, 274);
type = Stem;
}
);
layerId = m01;
shapes = (
{
closed = 1;
nodes = (
(158,443,l),
(235,532,l),
(279,441,l),
(325,463,l),
(282,556,l),
(385,585,l),
(374,633,l),
(275,606,l),
(296,715,l),
(242,715,l),
(221,606,l),
(133,643,l),
(111,600,l),
(196,562,l),
(120,477,l)
);
}
);
width = 362;
}
);
note = asterisk;
unicode = 42;
},
{
glyphname = plus;
kernLeft = minus;
kernRight = minus;
layers = (
{
hints = (
{
horizontal = 1;
place = (294, 64);
place = (294, 64);
type = Stem;
},
{
place = (59, 459);
place = (59, 459);
type = Stem;
}
);
layerId = m01;
shapes = (
{
closed = 1;
nodes = (
(59,294,l),
(250,294,l),
(211,94,l),
(276,94,l),
(315,294,l),
(506,294,l),
(518,358,l),
(327,358,l),
(366,558,l),
(301,558,l),
(262,358,l),
(71,358,l)
);
}
);
width = 551;
}
);
note = plus;
unicode = 43;
},
{
glyphname = comma;
kernLeft = comma;
kernRight = comma;
layers = (
{
hints = (
{
horizontal = 1;
place = (0, 99);
place = (0, 99);
type = Stem;
},
{
place = (-31, 139);
place = (-31, 139);
type = Stem;
}
);
layerId = m01;
shapes = (
{
closed = 1;
nodes = (
(-31,-128,l),
(29,-119,o),
(72,-85,o),
(87,-8,cs),
(108,99,l),
(12,99,l),
(-7,0,l),
(39,0,l),
(27,-62,o),
(1,-76,o),
(-23,-83,c)
);
}
);
width = 182;
}
);
note = comma;
unicode = 44;
},
{
glyphname = hyphen;
kernLeft = hyphen;
kernRight = hyphen;
layers = (
{
hints = (
{
horizontal = 1;
place = (240, 73);
place = (240, 73);
type = Stem;
},
{
place = (33, 278);
place = (33, 278);
type = Stem;
}
);
layerId = m01;
shapes = (
{
closed = 1;
nodes = (
(33,240,l),
(297,240,l),
(311,313,l),
(47,313,l)
);
}
);
width = 338;
}
);
note = hyphen;
unicode = 45;
},
{
glyphname = period;
kernLeft = comma;
kernRight = comma;
layers = (
{
hints = (
{
horizontal = 1;
place = (0, 99);
place = (0, 99);
type = Stem;
},
{
place = (-7, 115);
place = (-7, 115);
type = Stem;
}
);
layerId = m01;
shapes = (
{
closed = 1;
nodes = (
(-7,0,l),
(89,0,l),
(108,99,l),
(12,99,l)
);
}
);
width = 182;
}
);
note = period;
unicode = 46;
},
{
glyphname = slash;
kernLeft = slash;
kernRight = slash;
layers = (
{
hints = (
{
horizontal = 1;
place = (0, 21);
target = up;
type = BottomGhost;
},
{
horizontal = 1;
place = (715, -20);
target = down;
type = TopGhost;
},
{
place = (-34, 500);
place = (-34, 500);
type = Stem;
}
);
layerId = m01;
shapes = (
{
closed = 1;
nodes = (
(-34,0,l),
(51,0,l),
(466,715,l),
(381,715,l)
);
}
);
width = 394;
}
);
note = slash;
unicode = 47;
},
{
glyphname = zero;
kernLeft = zero;
kernRight = zero;
layers = (
{
hints = (
{
horizontal = 1;
place = (-15, 72);
place = (-15, 72);
type = Stem;
},
{
horizontal = 1;
place = (630, 71);
place = (630, 71);
type = Stem;
},
{
place = (50, 86);
place = (50, 86);
type = Stem;
},
{
place = (505, 86);
place = (505, 86);
type = Stem;
}
);
layerId = m01;
shapes = (
{
closed = 1;
nodes = (
(503,-15,o),
(591,237,o),
(591,439,cs),
(591,593,o),
(510,701,o),
(364,701,cs),
(144,701,o),
(50,444,o),
(50,247,cs),
(50,89,o),
(136,-15,o),
(281,-15,cs)
);
},
{
closed = 1;
nodes = (
(136,389,o),
(193,630,o),
(361,630,cs),
(473,630,o),
(505,532,o),
(505,438,cs),
(505,286,o),
(454,57,o),
(285,57,cs),
(173,57,o),
(136,151,o),
(136,247,cs)
);
}
);
width = 610;
}
);
note = zero;
unicode = 48;
},
{
glyphname = one;
kernLeft = one;
kernRight = one;
layers = (
{
hints = (
{
horizontal = 1;
place = (0, 21);
target = up;
type = BottomGhost;
},
{
horizontal = 1;
place = (499, 190);
place = (499, 190);
type = Stem;
},
{
place = (59, 268);
place = (59, 268);
type = Stem;
}
);
layerId = m01;
shapes = (
{
closed = 1;
nodes = (
(111,0,l),
(194,0,l),
(327,689,l),
(263,689,l),
(235,594,o),
(154,557,o),
(70,555,c),
(59,499,l),
(207,499,l)
);
}
);
width = 331;
}
);
note = one;
unicode = 49;
},
{
glyphname = two;
kernLeft = two;
kernRight = two;
layers = (
{
hints = (
{
horizontal = 1;
place = (0, 79);
place = (0, 79);
type = Stem;
},
{
horizontal = 1;
place = (631, 69);
place = (631, 69);
type = Stem;
},
{
place = (448, 83);
place = (448, 83);
type = Stem;
}
);
layerId = m01;
shapes = (
{
closed = 1;
nodes = (
(448,0,l),
(463,79,l),
(91,79,l),
(120,166,o),
(228,221,o),
(305,258,cs),
(432,319,o),
(531,378,o),
(531,512,cs),
(531,635,o),
(440,700,o),
(325,700,cs),
(178,700,o),
(90,608,o),
(65,450,c),
(146,450,l),
(167,569,o),
(220,631,o),
(322,631,cs),
(398,631,o),
(447,590,o),
(448,512,cs),
(449,418,o),
(384,374,o),
(282,323,cs),
(160,262,o),
(14,190,o),
(-18,0,c)
);
}
);
width = 542;
}
);
note = two;
unicode = 50;
},
{
glyphname = three;
kernLeft = three;
kernRight = three;
layers = (
{
hints = (
{
horizontal = 1;
place = (-15, 69);
place = (-15, 69);
type = Stem;
},
{
horizontal = 1;
place = (333, 64);
place = (333, 64);
type = Stem;
},
{
horizontal = 1;
place = (636, 65);
place = (636, 65);
type = Stem;
},
{
place = (12, 84);
place = (12, 84);
type = Stem;
},
{
place = (433, 86);
place = (433, 86);
type = Stem;
},
{
place = (457, 83);
place = (457, 83);
type = Stem;
}
);
layerId = m01;
shapes = (
{
closed = 1;
nodes = (
(407,-15,o),
(519,75,o),
(519,207,cs),
(519,288,o),
(477,338,o),
(414,360,c),
(414,363,l),
(494,389,o),
(540,454,o),
(540,527,cs),
(540,653,o),
(432,701,o),
(332,701,cs),
(196,701,o),
(96,616,o),
(72,476,c),
(155,476,l),
(172,577,o),
(235,636,o),
(330,636,cs),
(406,636,o),
(457,596,o),
(457,526,cs),
(457,426,o),
(380,397,o),
(308,397,cs),
(249,397,l),
(237,333,l),
(284,333,ls),
(359,333,o),
(433,297,o),
(433,207,cs),
(433,112,o),
(366,54,o),
(267,54,cs),
(145,54,o),
(96,128,o),
(96,226,c),
(12,226,l),
(13,67,o),
(117,-15,o),
(263,-15,cs)
);
}
);
width = 552;
}
);
note = three;
unicode = 51;
},
{
glyphname = four;
kernLeft = four;
kernRight = four;
layers = (
{
hints = (
{
horizontal = 1;
place = (0, 21);
target = up;
type = BottomGhost;
},
{
horizontal = 1;
place = (168, 66);
place = (168, 66);
type = Stem;
},
{
horizontal = 1;
place = (692, -20);
target = down;
type = TopGhost;
},
{
place = (8, 522);
place = (8, 522);
type = Stem;
}
);
layerId = m01;
shapes = (
{
closed = 1;
nodes = (
(293,0,l),
(374,0,l),
(406,168,l),
(517,168,l),
(530,234,l),
(419,234,l),
(508,692,l),
(443,692,l),
(23,242,l),
(8,168,l),
(325,168,l)
);
},
{
closed = 1;
nodes = (
(105,237,l),
(398,552,l),
(400,552,l),
(338,234,l),
(105,234,l)
);
}
);
width = 557;
}
);
note = four;
unicode = 52;
},
{
glyphname = five;
kernLeft = five;
kernRight = five;
layers = (
{
hints = (
{
horizontal = 1;
place = (-15, 73);
place = (-15, 73);
type = Stem;
},
{
horizontal = 1;
place = (390, 72);
place = (390, 72);
type = Stem;
},
{
horizontal = 1;
place = (611, 74);
place = (611, 74);
type = Stem;
},
{
place = (421, 85);
place = (421, 85);
type = Stem;
},
{
horizontal = 1;
place = (317, 89);
place = (317, 89);
type = Stem;
}
);
layerId = m01;
shapes = (
{
closed = 1;
nodes = (
(399,-15,o),
(506,96,o),
(506,254,cs),
(506,385,o),
(415,462,o),
(302,462,cs),
(246,462,o),
(195,443,o),
(159,406,c),
(157,406,l),
(217,611,l),
(523,611,l),
(537,685,l),
(166,685,l),
(57,317,l),
(137,317,l),
(168,355,o),
(211,390,o),
(284,390,cs),
(369,390,o),
(421,336,o),
(421,253,cs),
(421,135,o),
(352,58,o),
(248,58,cs),
(152,58,o),
(98,114,o),
(91,198,c),
(8,198,l),
(13,64,o),
(119,-15,o),
(246,-15,cs)
);
}
);
width = 534;
}
);
note = five;
unicode = 53;
},
{
glyphname = six;
kernLeft = six;
kernRight = six;
layers = (
{
hints = (
{
horizontal = 1;
place = (-15, 67);
place = (-15, 67);
type = Stem;
},
{
horizontal = 1;
place = (381, 68);
place = (381, 68);
type = Stem;
},
{
horizontal = 1;
place = (631, 70);
place = (631, 70);
type = Stem;
},
{
place = (47, 79);
place = (47, 79);
type = Stem;
},
{
place = (477, 80);
place = (477, 80);
type = Stem;
},
{
place = (444, 78);
place = (444, 78);
type = Stem;
}
);
layerId = m01;
shapes = (
{
closed = 1;
nodes = (
(416,-14,o),
(522,102,o),
(522,240,cs),
(522,369,o),
(433,449,o),
(319,449,cs),
(248,449,o),
(187,417,o),
(143,364,c),
(141,364,l),
(175,521,o),
(237,631,o),
(358,631,cs),
(429,631,o),
(469,592,o),
(477,511,c),
(557,511,l),
(549,637,o),
(479,701,o),
(362,701,cs),
(141,701,o),
(47,431,o),
(47,245,cs),
(47,157,o),
(71,86,o),
(114,45,cs),
(153,8,o),
(203,-15,o),
(272,-15,cs)
);
},
{
closed = 1;
nodes = (
(126,312,o),
(206,381,o),
(305,381,cs),
(396,381,o),
(444,321,o),
(444,240,cs),
(444,126,o),
(374,52,o),
(272,52,cs),
(183,52,o),
(126,113,o),
(126,200,cs)
);
}
);
width = 568;
}
);
note = six;
unicode = 54;
},
{
glyphname = seven;
kernLeft = seven;
kernRight = seven;
layers = (
{
hints = (
{
horizontal = 1;
place = (0, 21);
target = up;
type = BottomGhost;
},
{
horizontal = 1;
place = (612, 73);
place = (612, 73);
type = Stem;
},
{
place = (83, 474);
place = (83, 474);
type = Stem;
}
);
layerId = m01;
shapes = (
{
closed = 1;
nodes = (
(173,0,l),
(221,272,o),
(390,495,o),
(544,618,c),
(557,685,l),
(98,685,l),
(83,612,l),
(452,612,l),
(452,610,l),
(285,484,o),
(130,239,o),
(84,0,c)
);
}
);
width = 493;
}
);
note = seven;
unicode = 55;
},
{
glyphname = eight;
kernLeft = eight;
kernRight = eight;
layers = (
{
hints = (
{
horizontal = 1;
place = (-15, 69);
place = (-15, 69);
type = Stem;
},
{
horizontal = 1;
place = (343, 65);
place = (343, 65);
type = Stem;
},
{
horizontal = 1;
place = (633, 69);
place = (633, 69);
type = Stem;
},
{
place = (19, 86);
place = (19, 86);
type = Stem;
},
{
place = (447, 83);
place = (447, 83);
type = Stem;
},
{
place = (109, 82);
place = (109, 82);
type = Stem;
},
{
place = (470, 81);
place = (470, 81);
type = Stem;
}
);
layerId = m01;
shapes = (
{
closed = 1;
nodes = (
(409,-15,o),
(530,67,o),
(530,217,cs),
(530,292,o),
(485,343,o),
(422,368,c),
(422,371,l),
(499,397,o),
(551,452,o),
(551,532,cs),
(551,657,o),
(435,702,o),
(343,702,cs),
(221,702,o),
(109,625,o),
(109,503,cs),
(109,447,o),
(138,405,o),
(189,381,c),
(189,378,l),
(87,352,o),
(19,286,o),
(19,174,cs),
(19,36,o),
(160,-15,o),
(266,-15,cs)
);
},
{
closed = 1;
nodes = (
(105,295,o),
(193,343,o),
(289,343,cs),
(377,343,o),
(447,305,o),
(447,215,cs),
(447,101,o),
(362,54,o),
(272,54,cs),
(183,54,o),
(105,92,o),
(105,181,cs)
);
},
{
closed = 1;
nodes = (
(191,589,o),
(259,633,o),
(337,633,cs),
(409,633,o),
(470,600,o),
(470,527,cs),
(470,436,o),
(389,408,o),
(322,408,cs),
(251,408,o),
(191,436,o),
(191,505,cs)
);
}
);
width = 569;
}
);
note = eight;
unicode = 56;
},
{
glyphname = nine;
kernLeft = nine;
kernRight = nine;
layers = (
{
hints = (
{
horizontal = 1;
place = (-15, 70);
place = (-15, 70);
type = Stem;
},
{
horizontal = 1;
place = (237, 68);
place = (237, 68);
type = Stem;
},
{
horizontal = 1;
place = (634, 67);
place = (634, 67);
type = Stem;
},
{
place = (70, 78);
place = (70, 78);
type = Stem;
},
{
place = (471, 79);
place = (471, 79);
type = Stem;
}
);
layerId = m01;
shapes = (
{
closed = 1;
nodes = (
(181,700,o),
(70,587,o),
(70,446,cs),
(70,317,o),
(160,237,o),
(274,237,cs),
(345,237,o),
(411,270,o),
(456,324,c),
(458,324,l),
(436,225,o),
(410,153,o),
(365,106,cs),
(334,73,o),
(291,55,o),
(239,55,cs),
(168,55,o),
(109,86,o),
(104,186,c),
(23,186,l),
(28,48,o),
(118,-15,o),
(235,-15,cs),
(304,-15,o),
(362,8,o),
(407,47,cs),
(510,138,o),
(550,316,o),
(550,456,cs),
(550,529,o),
(527,601,o),
(484,642,cs),
(445,679,o),
(391,701,o),
(322,701,cs)
);
},
{
closed = 1;
nodes = (
(471,374,o),
(387,305,o),
(288,305,cs),
(197,305,o),
(148,365,o),
(148,446,cs),
(148,562,o),
(221,634,o),
(322,634,cs),
(411,634,o),
(471,573,o),
(471,486,cs)
);
}
);
width = 572;
}
);
note = nine;
unicode = 57;
},
{
glyphname = colon;
kernLeft = colon;
kernRight = colon;
layers = (
{
hints = (
{
horizontal = 1;
place = (0, 99);
place = (0, 99);
type = Stem;
},
{
horizontal = 1;
place = (303, 99);
place = (303, 99);
type = Stem;
},
{
place = (-4, 174);
place = (-4, 174);
type = Stem;
}
);
layerId = m01;
shapes = (
{
closed = 1;
nodes = (
(54,303,l),
(150,303,l),
(170,402,l),
(74,402,l)
);
},
{
closed = 1;
nodes = (
(-4,0,l),
(92,0,l),
(111,99,l),
(15,99,l)
);
}
);
width = 188;
}
);
note = colon;
unicode = 58;
},
{
glyphname = semicolon;
kernLeft = colon;
kernRight = colon;
layers = (
{
hints = (
{
horizontal = 1;
place = (0, 99);
place = (0, 99);
type = Stem;
},
{
horizontal = 1;
place = (303, 99);
place = (303, 99);
type = Stem;
},
{
place = (-28, 198);
place = (-28, 198);
type = Stem;
}
);
layerId = m01;
shapes = (
{
closed = 1;
nodes = (
(54,303,l),
(150,303,l),
(170,402,l),
(74,402,l)
);
},
{
closed = 1;
nodes = (
(-28,-128,l),
(32,-119,o),
(75,-85,o),
(90,-8,cs),
(111,99,l),
(15,99,l),
(-4,0,l),
(42,0,l),
(30,-62,o),
(4,-76,o),
(-20,-83,c)
);
}
);
width = 188;
}
);
note = semicolon;
unicode = 59;
},
{
glyphname = less;
layers = (
{
hints = (
{
horizontal = 1;
place = (526, -20);
target = down;
type = TopGhost;
},
{
place = (51, 451);
place = (51, 451);
type = Stem;
}
);
layerId = m01;
shapes = (
{
closed = 1;
nodes = (
(418,97,l),
(432,167,l),
(122,308,l),
(122,310,l),
(487,449,l),
(502,526,l),
(67,353,l),
(51,270,l)
);
}
);
width = 503;
}
);
note = less;
unicode = 60;
},
{
glyphname = equal;
layers = (
{
hints = (
{
horizontal = 1;
place = (194, 63);
place = (194, 63);
type = Stem;
},
{
horizontal = 1;
place = (370, 63);
place = (370, 63);
type = Stem;
},
{
place = (39, 494);
place = (39, 494);
type = Stem;
}
);
layerId = m01;
shapes = (
{
closed = 1;
nodes = (
(73,370,l),
(520,370,l),
(533,433,l),
(86,433,l)
);
},
{
closed = 1;
nodes = (
(39,194,l),
(486,194,l),
(499,257,l),
(52,257,l)
);
}
);
width = 551;
}
);
note = equal;
unicode = 61;
},
{
glyphname = greater;
layers = (
{
hints = (
{
horizontal = 1;
place = (526, -20);
target = down;
type = TopGhost;
},
{
place = (21, 451);
place = (21, 451);
type = Stem;
}
);
layerId = m01;
shapes = (
{
closed = 1;
nodes = (
(105,526,l),
(91,456,l),
(401,315,l),
(401,313,l),
(36,174,l),
(21,97,l),
(456,270,l),
(472,353,l)
);
}
);
width = 503;
}
);
note = greater;
unicode = 62;
},
{
glyphname = question;
kernLeft = question;
layers = (
{
hints = (
{
horizontal = 1;
place = (0, 99);
place = (0, 99);
type = Stem;
},
{
horizontal = 1;
place = (657, 71);
place = (657, 71);
type = Stem;
},
{
place = (435, 85);
place = (435, 85);
type = Stem;
}
);
layerId = m01;
shapes = (
{
closed = 1;
nodes = (
(263,173,l),
(282,277,o),
(310,304,o),
(401,364,cs),
(473,411,o),
(520,468,o),
(520,556,cs),
(520,673,o),
(422,728,o),
(318,728,cs),
(175,728,o),
(81,631,o),
(59,485,c),
(140,485,l),
(161,598,o),
(223,657,o),
(314,657,cs),
(386,657,o),
(435,621,o),
(435,553,cs),
(435,472,o),
(382,440,o),
(333,406,cs),
(245,345,o),
(209,291,o),
(187,173,c)
);
},
{
closed = 1;
nodes = (
(148,0,l),
(243,0,l),
(262,99,l),
(167,99,l)
);
}
);
width = 496;
}
);
note = question;
unicode = 63;
},
{
glyphname = at;
kernLeft = at;
kernRight = at;
layers = (
{
hints = (
{
horizontal = 1;
place = (-105, 61);
place = (-105, 61);
type = Stem;
},
{
horizontal = 1;
place = (82, 61);
place = (82, 61);
type = Stem;
},
{
horizontal = 1;
place = (458, 63);
place = (458, 63);
type = Stem;
},
{
horizontal = 1;
place = (650, 63);
place = (650, 63);
type = Stem;
},
{
place = (34, 71);
place = (34, 71);
type = Stem;
},
{
place = (223, 81);
place = (223, 81);
type = Stem;
},
{
place = (780, 69);
place = (780, 69);
type = Stem;
},
{
horizontal = 1;
place = (86, 64);
place = (86, 64);
type = Stem;
},
{
place = (546, 51);
place = (546, 51);
type = Stem;
}
);
layerId = m01;
shapes = (
{
closed = 1;
nodes = (
(443,82,o),
(493,110,o),
(527,153,c),
(529,153,l),
(540,110,o),
(578,86,o),
(640,86,cs),
(762,86,o),
(849,198,o),
(849,359,cs),
(849,589,o),
(665,713,o),
(469,713,cs),
(255,713,o),
(34,558,o),
(34,274,cs),
(34,50,o),
(194,-105,o),
(436,-105,cs),
(509,-105,o),
(579,-91,o),
(641,-64,c),
(619,-9,l),
(561,-31,o),
(501,-44,o),
(432,-44,cs),
(217,-44,o),
(105,95,o),
(105,274,cs),
(105,513,o),
(278,650,o),
(465,650,cs),
(645,650,o),
(780,552,o),
(780,357,cs),
(780,209,o),
(704,150,o),
(651,150,cs),
(606,150,o),
(590,177,o),
(600,225,cs),
(664,511,l),
(586,511,l),
(571,445,l),
(569,445,l),
(547,497,o),
(501,521,o),
(444,521,cs),
(298,521,o),
(223,383,o),
(223,256,cs),
(223,146,o),
(292,82,o),
(386,82,cs)
);
},
{
closed = 1;
nodes = (
(304,347,o),
(347,458,o),
(443,458,cs),
(512,458,o),
(546,415,o),
(546,350,cs),
(546,254,o),
(499,143,o),
(397,143,cs),
(328,143,o),
(304,194,o),
(304,256,cs)
);
}
);
width = 866;
}
);
note = at;
unicode = 64;
},
{
glyphname = A;
kernLeft = A;
kernRight = A;
layers = (
{
hints = (
{
horizontal = 1;
place = (0, 21);
target = up;
type = BottomGhost;
},
{
horizontal = 1;
place = (218, 72);
place = (218, 72);
type = Stem;
},
{
horizontal = 1;
place = (715, -20);
target = down;
type = TopGhost;
},
{
place = (-39, 617);
place = (-39, 617);
type = Stem;
},
{
horizontal = 1;
place = (632, 83);
place = (632, 83);
type = Stem;
}
);
layerId = m01;
shapes = (
{
closed = 1;
nodes = (
(484,0,l),
(578,0,l),
(443,715,l),
(344,715,l),
(-39,0,l),
(53,0,l),
(166,218,l),
(448,218,l)
);
},
{
closed = 1;
nodes = (
(330,531,ls),
(353,574,o),
(380,632,o),
(380,632,c),
(382,632,l),
(382,632,o),
(389,571,o),
(396,531,cs),
(436,290,l),
(204,290,l)
);
}
);
width = 638;
}
);
note = A;
unicode = 65;
},
{
glyphname = B;
layers = (
{
hints = (
{
horizontal = 1;
place = (0, 80);
place = (0, 80);
type = Stem;
},
{
horizontal = 1;
place = (334, 75);
place = (334, 75);
type = Stem;
},
{
horizontal = 1;
place = (638, 77);
place = (638, 77);
type = Stem;
},
{
place = (517, 89);
place = (517, 89);
type = Stem;
},
{
place = (498, 89);
place = (498, 89);
type = Stem;
}
);
layerId = m01;
shapes = (
{
closed = 1;
nodes = (
(16,0,l),
(326,0,ls),
(403,0,o),
(466,20,o),
(511,58,cs),
(558,97,o),
(587,157,o),
(587,226,cs),
(587,310,o),
(536,354,o),
(473,372,c),
(473,375,l),
(555,398,o),
(606,460,o),
(606,546,cs),
(606,663,o),
(510,715,o),
(405,715,cs),
(154,715,l)
);
},
{
closed = 1;
nodes = (
(119,80,l),
(168,334,l),
(364,334,ls),
(450,334,o),
(498,298,o),
(498,225,cs),
(498,178,o),
(482,142,o),
(457,119,cs),
(428,92,o),
(386,80,o),
(324,80,cs)
);
},
{
closed = 1;
nodes = (
(183,409,l),
(227,638,l),
(399,638,ls),
(476,638,o),
(517,603,o),
(517,540,cs),
(517,442,o),
(451,409,o),
(362,409,cs)
);
}
);
width = 622;
}
);
note = B;
unicode = 66;
},
{
glyphname = C;
kernLeft = C;
kernRight = C;
layers = (
{
hints = (
{
horizontal = 1;
place = (-14, 78);
place = (-14, 78);
type = Stem;
},
{
horizontal = 1;
place = (654, 77);
place = (654, 77);
type = Stem;
},
{
place = (50, 92);
place = (50, 92);
type = Stem;
}
);
layerId = m01;
shapes = (
{
closed = 1;
nodes = (
(436,-14,o),
(515,18,o),
(567,74,cs),
(616,127,o),
(648,192,o),
(661,262,c),
(573,262,l),
(550,158,o),
(479,64,o),
(351,64,cs),
(203,64,o),
(142,173,o),
(142,304,cs),
(142,484,o),
(239,654,o),
(418,654,cs),
(522,654,o),
(582,599,o),
(595,503,c),
(684,503,l),
(672,648,o),
(576,731,o),
(427,731,cs),
(189,731,o),
(50,515,o),
(50,301,cs),
(50,115,o),
(152,-14,o),
(348,-14,cs)
);
}
);
width = 684;
}
);
note = C;
unicode = 67;
},
{
glyphname = D;
kernRight = Eth;
layers = (
{
hints = (
{
horizontal = 1;
place = (0, 78);
place = (0, 78);
type = Stem;
},
{
horizontal = 1;
place = (638, 77);
place = (638, 77);
type = Stem;
},
{
place = (570, 91);
place = (570, 91);
type = Stem;
}
);
layerId = m01;
shapes = (
{
closed = 1;
nodes = (
(16,0,l),
(273,0,ls),
(530,0,o),
(661,198,o),
(661,430,cs),
(661,603,o),
(571,715,o),
(378,715,cs),
(154,715,l)
);
},
{
closed = 1;
nodes = (
(119,78,l),
(227,638,l),
(373,638,ls),
(514,638,o),
(570,554,o),
(570,424,cs),
(570,231,o),
(475,78,o),
(271,78,cs)
);
}
);
width = 673;
}
);
note = D;
unicode = 68;
},
{
glyphname = E;
kernRight = E;
layers = (
{
hints = (
{
horizontal = 1;
place = (0, 82);
place = (0, 82);
type = Stem;
},
{
horizontal = 1;
place = (335, 75);
place = (335, 75);
type = Stem;
},
{
horizontal = 1;
place = (637, 78);
place = (637, 78);
type = Stem;
},
{
place = (16, 605);
place = (16, 605);
type = Stem;
}
);
layerId = m01;
shapes = (
{
closed = 1;
nodes = (
(16,0,l),
(505,0,l),
(521,82,l),
(120,82,l),
(168,335,l),
(516,335,l),
(531,410,l),
(183,410,l),
(227,637,l),
(606,637,l),
(621,715,l),
(154,715,l)
);
}
);
width = 592;
}
);
note = E;
unicode = 69;
},
{
glyphname = F;
kernRight = F;
layers = (
{
hints = (
{
horizontal = 1;
place = (0, 21);
target = up;
type = BottomGhost;
},
{
horizontal = 1;
place = (338, 75);
place = (338, 75);
type = Stem;
},
{
horizontal = 1;
place = (637, 78);
place = (637, 78);
type = Stem;
},
{
place = (16, 596);
place = (16, 596);
type = Stem;
}
);
layerId = m01;
shapes = (
{
closed = 1;
nodes = (
(16,0,l),
(104,0,l),
(169,338,l),
(489,338,l),
(504,413,l),
(184,413,l),
(227,637,l),
(597,637,l),
(612,715,l),
(154,715,l)
);
}
);
width = 552;
}
);
note = F;
unicode = 70;
},
{
glyphname = G;
kernLeft = C;
kernRight = G;
layers = (
{
hints = (
{
horizontal = 1;
place = (0, 21);
target = up;
type = BottomGhost;
},
{
horizontal = 1;
place = (301, 77);
place = (301, 77);
type = Stem;
},
{
horizontal = 1;
place = (653, 78);
place = (653, 78);
type = Stem;
},
{
place = (50, 92);
place = (50, 92);
type = Stem;
},
{
place = (554, 62);
place = (554, 62);
type = Stem;
},
{
horizontal = 1;
place = (-15, 76);
place = (-15, 76);
type = Stem;
}
);
layerId = m01;
shapes = (
{
closed = 1;
nodes = (
(554,0,l),
(616,0,l),
(689,378,l),
(389,378,l),
(374,301,l),
(585,301,l),
(582,285,ls),
(558,155,o),
(482,61,o),
(346,61,cs),
(214,61,o),
(142,158,o),
(142,299,cs),
(142,481,o),
(239,653,o),
(430,653,cs),
(532,653,o),
(597,592,o),
(605,500,c),
(694,500,l),
(684,656,o),
(574,731,o),
(432,731,cs),
(189,731,o),
(50,510,o),
(50,297,cs),
(50,93,o),
(173,-15,o),
(336,-15,cs),
(433,-15,o),
(500,26,o),
(552,94,c),
(554,94,l)
);
}
);
width = 722;
}
);
note = G;
unicode = 71;
},
{
glyphname = H;
layers = (
{
hints = (
{
horizontal = 1;
place = (0, 21);
target = up;
type = BottomGhost;
},
{
horizontal = 1;
place = (339, 72);
place = (339, 72);
type = Stem;
},
{
horizontal = 1;
place = (715, -20);
target = down;
type = TopGhost;
},
{
place = (16, 671);
place = (16, 671);
type = Stem;
}
);
layerId = m01;
shapes = (
{
closed = 1;
nodes = (
(16,0,l),
(104,0,l),
(169,339,l),
(525,339,l),
(460,0,l),
(549,0,l),
(687,715,l),
(598,715,l),
(539,411,l),
(183,411,l),
(242,715,l),
(154,715,l)
);
}
);
width = 665;
}
);
note = H;
unicode = 72;
},
{
glyphname = I;
layers = (
{
hints = (
{
horizontal = 1;
place = (0, 21);
target = up;
type = BottomGhost;
},
{
horizontal = 1;
place = (715, -20);
target = down;
type = TopGhost;
},
{
place = (18, 226);
place = (18, 226);
type = Stem;
}
);
layerId = m01;
shapes = (
{
closed = 1;
nodes = (
(18,0,l),
(106,0,l),
(244,715,l),
(156,715,l)
);
}
);
width = 224;
}
);
note = I;
unicode = 73;
},
{
glyphname = J;
kernLeft = J;
kernRight = J;
layers = (
{
hints = (
{
horizontal = 1;
place = (-14, 73);
place = (-14, 73);
type = Stem;
},
{
horizontal = 1;
place = (715, -20);
target = down;
type = TopGhost;
},
{
place = (2, 87);
place = (2, 87);
type = Stem;
}
);
layerId = m01;
shapes = (
{
closed = 1;
nodes = (
(319,-14,o),
(388,58,o),
(409,164,cs),
(515,715,l),
(426,715,l),
(322,178,ls),
(305,94,o),
(267,59,o),
(197,59,cs),
(83,59,o),
(78,131,o),
(97,227,cs),
(98,232,l),
(12,232,l),
(11,227,ls),
(-24,53,o),
(45,-14,o),
(192,-14,cs)
);
}
);
width = 484;
}
);
note = J;
unicode = 74;
},
{
glyphname = K;
kernRight = K;
layers = (
{
hints = (
{
horizontal = 1;
place = (0, 21);
target = up;
type = BottomGhost;
},
{
horizontal = 1;
place = (715, -20);
target = down;
type = TopGhost;
},
{
place = (16, 655);
place = (16, 655);
type = Stem;
}
);
layerId = m01;
shapes = (
{
closed = 1;
nodes = (
(671,715,l),
(559,715,l),
(173,362,l),
(242,715,l),
(154,715,l),
(16,0,l),
(104,0,l),
(152,248,l),
(284,367,l),
(477,0,l),
(576,0,l),
(351,427,l)
);
}
);
width = 624;
}
);
note = K;
unicode = 75;
},
{
glyphname = L;
kernRight = L;
layers = (
{
hints = (
{
horizontal = 1;
place = (0, 82);
place = (0, 82);
type = Stem;
},
{
horizontal = 1;
place = (715, -20);
target = down;
type = TopGhost;
},
{
place = (16, 463);
place = (16, 463);
type = Stem;
}
);
layerId = m01;
shapes = (
{
closed = 1;
nodes = (
(16,0,l),
(463,0,l),
(479,82,l),
(120,82,l),
(242,715,l),
(154,715,l)
);
}
);
width = 539;
}
);
note = L;
unicode = 76;
},
{
glyphname = M;
layers = (
{
hints = (
{
horizontal = 1;
place = (0, 21);
target = up;
type = BottomGhost;
},
{
horizontal = 1;
place = (715, -20);
target = down;
type = TopGhost;
},
{
place = (16, 809);
place = (16, 809);
type = Stem;
},
{
horizontal = 1;
place = (588, 127);
place = (588, 127);
type = Stem;
}
);
layerId = m01;
shapes = (
{
closed = 1;
nodes = (
(16,0,l),
(96,0,l),
(210,588,l),
(212,588,l),
(212,588,o),
(216,538,o),
(224,498,cs),
(319,0,l),
(387,0,l),
(666,497,ls),
(687,534,o),
(714,588,o),
(714,588,c),
(716,588,l),
(602,0,l),
(687,0,l),
(825,715,l),
(707,715,l),
(376,119,l),
(374,119,l),
(264,715,l),
(154,715,l)
);
}
);
width = 803;
}
);
note = M;
unicode = 77;
},
{
glyphname = N;
layers = (
{
hints = (
{
horizontal = 1;
place = (0, 21);
target = up;
type = BottomGhost;
},
{
horizontal = 1;
place = (715, -20);
target = down;
type = TopGhost;
},
{
place = (16, 678);
place = (16, 678);
type = Stem;
}
);
layerId = m01;
shapes = (
{
closed = 1;
nodes = (
(16,0,l),
(99,0,l),
(213,589,l),
(215,589,l),
(215,589,o),
(232,538,o),
(249,500,cs),
(465,0,l),
(556,0,l),
(694,715,l),
(611,715,l),
(497,124,l),
(495,124,l),
(495,124,o),
(480,175,o),
(462,216,cs),
(247,715,l),
(154,715,l)
);
}
);
width = 672;
}
);
note = N;
unicode = 78;
},
{
glyphname = O;
kernLeft = C;
kernRight = O;
layers = (
{
hints = (
{
horizontal = 1;
place = (-15, 78);
place = (-15, 78);
type = Stem;
},
{
horizontal = 1;
place = (654, 77);
place = (654, 77);
type = Stem;
},
{
place = (50, 92);
place = (50, 92);
type = Stem;
},
{
place = (654, 91);
place = (654, 91);
type = Stem;
}
);
layerId = m01;
shapes = (
{
closed = 1;
nodes = (
(605,-15,o),
(745,172,o),
(745,402,cs),
(745,612,o),
(607,731,o),
(426,731,cs),
(199,731,o),
(50,539,o),
(50,312,cs),
(50,103,o),
(191,-15,o),
(372,-15,cs)
);
},
{
closed = 1;
nodes = (
(142,499,o),
(241,654,o),
(422,654,cs),
(567,654,o),
(654,552,o),
(654,401,cs),
(654,213,o),
(558,63,o),
(374,63,cs),
(231,63,o),
(142,156,o),
(142,312,cs)
);
}
);
width = 758;
}
);
note = O;
unicode = 79;
},
{
glyphname = P;
kernRight = P;
layers = (
{
hints = (
{
horizontal = 1;
place = (0, 21);
target = up;
type = BottomGhost;
},
{
horizontal = 1;
place = (300, 73);
place = (300, 73);
type = Stem;
},
{
horizontal = 1;
place = (637, 78);
place = (637, 78);
type = Stem;
},
{
place = (524, 88);
place = (524, 88);
type = Stem;
}
);
layerId = m01;
shapes = (
{
closed = 1;
nodes = (
(16,0,l),
(104,0,l),
(162,300,l),
(362,300,ls),
(518,300,o),
(612,390,o),
(612,531,cs),
(612,590,o),
(592,629,o),
(566,656,cs),
(528,695,o),
(469,715,o),
(403,715,cs),
(154,715,l)
);
},
{
closed = 1;
nodes = (
(227,637,l),
(393,637,ls),
(474,637,o),
(524,597,o),
(524,527,cs),
(524,417,o),
(458,373,o),
(360,373,cs),
(176,373,l)
);
}
);
width = 582;
}
);
note = P;
unicode = 80;
},
{
glyphname = Q;
kernLeft = C;
kernRight = Q;
layers = (
{
hints = (
{
horizontal = 1;
place = (-15, 78);
place = (-15, 78);
type = Stem;
},
{
horizontal = 1;
place = (654, 77);
place = (654, 77);
type = Stem;
},
{
place = (50, 92);
place = (50, 92);
type = Stem;
},
{
place = (654, 91);
place = (654, 91);
type = Stem;
},
{
horizontal = 1;
place = (-1, 21);
target = up;
type = BottomGhost;
}
);
layerId = m01;
shapes = (
{
closed = 1;
nodes = (
(434,-15,o),
(490,-1,o),
(538,23,c),
(630,-60,l),
(683,-1,l),
(606,68,l),
(695,145,o),
(745,267,o),
(745,402,cs),
(745,612,o),
(607,731,o),
(426,731,cs),
(199,731,o),
(50,539,o),
(50,312,cs),
(50,103,o),
(191,-15,o),
(372,-15,cs)
);
},
{
closed = 1;
nodes = (
(142,499,o),
(241,654,o),
(422,654,cs),
(567,654,o),
(654,552,o),
(654,401,cs),
(654,285,o),
(617,183,o),
(546,122,c),
(459,201,l),
(406,142,l),
(474,80,l),
(444,69,o),
(411,63,o),
(374,63,cs),
(231,63,o),
(142,156,o),
(142,312,cs)
);
}
);
width = 758;
}
);
note = Q;
unicode = 81;
},
{
glyphname = R;
kernRight = R;
layers = (
{
hints = (
{
horizontal = 1;
place = (0, 21);
target = up;
type = BottomGhost;
},
{
horizontal = 1;
place = (303, 72);
place = (303, 72);
type = Stem;
},
{
horizontal = 1;
place = (638, 77);
place = (638, 77);
type = Stem;
},
{
place = (543, 92);
place = (543, 92);
type = Stem;
},
{
place = (476, 108);
place = (476, 108);
type = Stem;
}
);
layerId = m01;
shapes = (
{
closed = 1;
nodes = (
(16,0,l),
(104,0,l),
(162,303,l),
(363,303,ls),
(458,303,o),
(486,265,o),
(479,160,cs),
(471,46,o),
(481,18,o),
(494,0,c),
(584,0,l),
(584,4,l),
(572,13,o),
(557,42,o),
(565,157,cs),
(572,263,o),
(559,307,o),
(496,336,c),
(496,339,l),
(576,366,o),
(635,430,o),
(635,528,cs),
(635,589,o),
(613,641,o),
(569,674,cs),
(533,701,o),
(482,715,o),
(425,715,cs),
(154,715,l)
);
},
{
closed = 1;
nodes = (
(227,638,l),
(412,638,ls),
(497,638,o),
(543,600,o),
(543,526,cs),
(543,428,o),
(478,375,o),
(377,375,cs),
(176,375,l)
);
}
);
width = 647;
}
);
note = R;
unicode = 82;
},
{
glyphname = S;
kernLeft = Scaron;
kernRight = Scaron;
layers = (
{
hints = (
{
horizontal = 1;
place = (-14, 73);
place = (-14, 73);
type = Stem;
},
{
horizontal = 1;
place = (657, 72);
place = (657, 72);
type = Stem;
},
{
place = (10, 85);
place = (10, 85);
type = Stem;
},
{
place = (470, 87);
place = (470, 87);
type = Stem;
},
{
place = (94, 83);
place = (94, 83);
type = Stem;
}
);
layerId = m01;
shapes = (
{
closed = 1;
nodes = (
(457,-14,o),
(557,79,o),
(557,213,cs),
(557,335,o),
(462,373,o),
(328,422,cs),
(235,456,o),
(177,482,o),
(177,542,cs),
(177,630,o),
(249,657,o),
(329,657,cs),
(437,657,o),
(499,612,o),
(504,506,c),
(588,506,l),
(580,667,o),
(474,729,o),
(329,729,cs),
(195,729,o),
(94,654,o),
(94,534,cs),
(94,433,o),
(170,388,o),
(291,344,cs),
(408,301,o),
(470,277,o),
(470,203,cs),
(470,110,o),
(400,59,o),
(291,59,cs),
(170,59,o),
(95,112,o),
(95,242,c),
(10,242,l),
(5,52,o),
(143,-14,o),
(289,-14,cs)
);
}
);
width = 602;
}
);
note = S;
unicode = 83;
},
{
glyphname = T;
kernLeft = T;
kernRight = T;
layers = (
{
hints = (
{
horizontal = 1;
place = (0, 21);
target = up;
type = BottomGhost;
},
{
horizontal = 1;
place = (637, 78);
place = (637, 78);
type = Stem;
},
{
place = (90, 558);
place = (90, 558);
type = Stem;
}
);
layerId = m01;
shapes = (
{
closed = 1;
nodes = (
(90,637,l),
(317,637,l),
(194,0,l),
(282,0,l),
(405,637,l),
(633,637,l),
(648,715,l),
(105,715,l)
);
}
);
width = 576;
}
);
note = T;
unicode = 84;
},
{
glyphname = U;
kernLeft = U;
kernRight = U;
layers = (
{
hints = (
{
horizontal = 1;
place = (-11, 76);
place = (-11, 76);
type = Stem;
},
{
horizontal = 1;
place = (715, -20);
target = down;
type = TopGhost;
},
{
place = (47, 89);
place = (47, 89);
type = Stem;
}
);
layerId = m01;
shapes = (
{
closed = 1;
nodes = (
(440,-11,o),
(547,55,o),
(577,210,cs),
(675,715,l),
(587,715,l),
(492,225,ls),
(470,114,o),
(410,65,o),
(302,65,cs),
(165,65,o),
(117,131,o),
(143,261,cs),
(231,715,l),
(142,715,l),
(54,261,ls),
(17,70,o),
(128,-11,o),
(298,-11,cs)
);
}
);
width = 641;
}
);
note = U;
unicode = 85;
},
{
glyphname = V;
kernLeft = V;
kernRight = V;
layers = (
{
hints = (
{
horizontal = 1;
place = (0, 21);
target = up;
type = BottomGhost;
},
{
horizontal = 1;
place = (715, -20);
target = down;
type = TopGhost;
},
{
place = (90, 589);
place = (90, 589);
type = Stem;
},
{
horizontal = 1;
place = (0, 87);
place = (0, 87);
type = Stem;
}
);
layerId = m01;
shapes = (
{
closed = 1;
nodes = (
(210,0,l),
(307,0,l),
(679,715,l),
(585,715,l),
(321,183,ls),
(304,151,o),
(275,87,o),
(275,87,c),
(273,87,l),
(273,87,o),
(267,150,o),
(262,183,cs),
(181,715,l),
(90,715,l)
);
}
);
width = 597;
}
);
note = V;
unicode = 86;
},
{
glyphname = W;
kernLeft = W;
kernRight = W;
layers = (
{
hints = (
{
horizontal = 1;
place = (0, 21);
target = up;
type = BottomGhost;
},
{
horizontal = 1;
place = (715, -20);
target = down;
type = TopGhost;
},
{
place = (94, 867);
place = (94, 867);
type = Stem;
},
{
horizontal = 1;
place = (615, 100);
place = (615, 100);
type = Stem;
},
{
horizontal = 1;
place = (0, 129);
place = (0, 129);
type = Stem;
}
);
layerId = m01;
shapes = (
{
closed = 1;
nodes = (
(151,0,l),
(239,0,l),
(463,504,ls),
(483,550,o),
(508,615,o),
(508,615,c),
(510,615,l),
(510,615,o),
(512,547,o),
(516,504,cs),
(560,0,l),
(645,0,l),
(961,715,l),
(871,715,l),
(674,250,ls),
(656,206,o),
(626,129,o),
(626,129,c),
(624,129,l),
(624,129,o),
(622,204,o),
(617,252,cs),
(573,715,l),
(477,715,l),
(272,252,ls),
(251,205,o),
(221,129,o),
(221,129,c),
(219,129,l),
(219,129,o),
(217,202,o),
(213,250,cs),
(184,715,l),
(94,715,l)
);
}
);
width = 886;
}
);
note = W;
unicode = 87;
},
{
glyphname = X;
kernLeft = X;
kernRight = X;
layers = (
{
hints = (
{
horizontal = 1;
place = (0, 21);
target = up;
type = BottomGhost;
},
{
horizontal = 1;
place = (715, -20);
target = down;
type = TopGhost;
},
{
place = (-38, 673);
place = (-38, 673);
type = Stem;
}
);
layerId = m01;
shapes = (
{
closed = 1;
nodes = (
(-38,0,l),
(61,0,l),
(294,302,l),
(296,302,l),
(431,0,l),
(529,0,l),
(355,360,l),
(635,715,l),
(538,715,l),
(320,431,l),
(318,431,l),
(190,715,l),
(91,715,l),
(257,371,l)
);
}
);
width = 576;
}
);
note = X;
unicode = 88;
},
{
glyphname = Y;
kernLeft = Yacute;
kernRight = Yacute;
layers = (
{
hints = (
{
horizontal = 1;
place = (0, 21);
target = up;
type = BottomGhost;
},
{
horizontal = 1;
place = (715, -20);
target = down;
type = TopGhost;
},
{
place = (81, 587);
place = (81, 587);
type = Stem;
}
);
layerId = m01;
shapes = (
{
closed = 1;
nodes = (
(199,0,l),
(287,0,l),
(344,296,l),
(668,715,l),
(569,715,l),
(316,376,l),
(314,376,l),
(176,715,l),
(81,715,l),
(257,303,l)
);
}
);
width = 580;
}
);
note = Y;
unicode = 89;
},
{
glyphname = Z;
kernLeft = Zcaron;
kernRight = Zcaron;
layers = (
{
hints = (
{
horizontal = 1;
place = (0, 79);
place = (0, 79);
type = Stem;
},
{
horizontal = 1;
place = (641, 74);
place = (641, 74);
type = Stem;
},
{
place = (-20, 653);
place = (-20, 653);
type = Stem;
}
);
layerId = m01;
shapes = (
{
closed = 1;
nodes = (
(-20,0,l),
(517,0,l),
(532,79,l),
(103,79,l),
(103,82,l),
(620,647,l),
(633,715,l),
(137,715,l),
(123,641,l),
(505,641,l),
(505,638,l),
(-4,84,l)
);
}
);
width = 592;
}
);
note = Z;
unicode = 90;
},
{
glyphname = bracketleft;
kernRight = bracketleft;
layers = (
{
hints = (
{
horizontal = 1;
place = (-118, 68);
place = (-118, 68);
type = Stem;
},
{
horizontal = 1;
place = (689, 65);
place = (689, 65);
type = Stem;
},
{
place = (3, 355);
place = (3, 355);
type = Stem;
}
);
layerId = m01;
shapes = (
{
closed = 1;
nodes = (
(3,-118,l),
(189,-118,l),
(202,-50,l),
(98,-50,l),
(241,689,l),
(345,689,l),
(358,754,l),
(172,754,l)
);
}
);
width = 291;
}
);
note = bracketleft;
unicode = 91;
},
{
glyphname = backslash;
kernLeft = backslash;
kernRight = backslash;
layers = (
{
hints = (
{
horizontal = 1;
place = (0, 21);
target = up;
type = BottomGhost;
},
{
horizontal = 1;
place = (715, -20);
target = down;
type = TopGhost;
},
{
place = (94, 224);
place = (94, 224);
type = Stem;
}
);
layerId = m01;
shapes = (
{
closed = 1;
nodes = (
(240,0,l),
(318,0,l),
(172,715,l),
(94,715,l)
);
}
);
width = 374;
}
);
note = backslash;
unicode = 92;
},
{
glyphname = bracketright;
kernLeft = bracketright;
layers = (
{
hints = (
{
horizontal = 1;
place = (-118, 68);
place = (-118, 68);
type = Stem;
},
{
horizontal = 1;
place = (689, 65);
place = (689, 65);
type = Stem;
},
{
place = (-43, 354);
place = (-43, 354);
type = Stem;
}
);
layerId = m01;
shapes = (
{
closed = 1;
nodes = (
(-43,-118,l),
(142,-118,l),
(311,754,l),
(126,754,l),
(113,689,l),
(216,689,l),
(73,-50,l),
(-30,-50,l)
);
}
);
width = 291;
}
);
note = bracketright;
unicode = 93;
},
{
glyphname = asciicircum;
layers = (
{
hints = (
{
horizontal = 1;
place = (652, 63);
place = (652, 63);
type = Stem;
},
{
place = (41, 424);
place = (41, 424);
type = Stem;
}
);
layerId = m01;
shapes = (
{
closed = 1;
nodes = (
(41,428,l),
(127,428,l),
(290,652,l),
(292,652,l),
(384,428,l),
(465,428,l),
(344,715,l),
(250,715,l)
);
}
);
width = 446;
}
);
note = asciicircum;
unicode = 94;
},
{
glyphname = underscore;
layers = (
{
hints = (
{
horizontal = 1;
place = (-166, 60);
place = (-166, 60);
type = Stem;
},
{
place = (-84, 416);
place = (-84, 416);
type = Stem;
}
);
layerId = m01;
shapes = (
{
closed = 1;
nodes = (
(-84,-166,l),
(320,-166,l),
(332,-106,l),
(-72,-106,l)
);
}
);
width = 401;
}
);
note = underscore;
unicode = 95;
},
{
glyphname = grave;
layers = (
{
hints = (
{
horizontal = 1;
place = (598, 127);
place = (598, 127);
type = Stem;
},
{
place = (214, 137);
place = (214, 137);
type = Stem;
}
);
layerId = m01;
shapes = (
{
closed = 1;
nodes = (
(284,598,l),
(351,598,l),
(309,725,l),
(214,725,l)
);
}
);
width = 492;
}
);
note = grave;
unicode = 96;
},
{
glyphname = a;
kernLeft = a;
kernRight = a;
layers = (
{
hints = (
{
horizontal = 1;
place = (-5, 21);
target = up;
type = BottomGhost;
},
{
horizontal = 1;
place = (465, 63);
place = (465, 63);
type = Stem;
},
{
place = (4, 81);
place = (4, 81);
type = Stem;
},
{
place = (329, 74);
place = (329, 74);
type = Stem;
},
{
horizontal = 1;
place = (-10, 62);
place = (-10, 62);
type = Stem;
},
{
place = (384, 73);
place = (384, 73);
type = Stem;
}
);
layerId = m01;
shapes = (
{
closed = 1;
nodes = (
(420,-5,o),
(432,-1,o),
(442,2,c),
(454,60,l),
(451,60,l),
(403,51,o),
(399,75,o),
(406,113,cs),
(453,352,ls),
(478,481,o),
(384,528,o),
(284,528,cs),
(150,528,o),
(69,464,o),
(51,361,c),
(132,361,l),
(146,437,o),
(194,466,o),
(278,465,cs),
(334,464,o),
(384,449,o),
(384,385,cs),
(384,318,o),
(350,309,o),
(208,301,cs),
(105,295,o),
(4,268,o),
(4,136,cs),
(4,58,o),
(62,-10,o),
(165,-10,cs),
(238,-10,o),
(294,22,o),
(328,66,c),
(329,66,l),
(330,28,o),
(346,-5,o),
(401,-5,cs)
);
},
{
closed = 1;
nodes = (
(85,231,o),
(165,237,o),
(205,240,cs),
(291,247,o),
(332,250,o),
(364,268,c),
(350,197,ls),
(335,121,o),
(282,52,o),
(182,52,cs),
(120,52,o),
(85,88,o),
(85,142,cs)
);
}
);
width = 497;
}
);
note = a;
unicode = 97;
},
{
glyphname = b;
kernLeft = b;
kernRight = thorn;
layers = (
{
hints = (
{
horizontal = 1;
place = (-15, 67);
place = (-15, 67);
type = Stem;
},
{
horizontal = 1;
place = (461, 68);
place = (461, 68);
type = Stem;
},
{
horizontal = 1;
place = (715, -20);
target = down;
type = TopGhost;
},
{
place = (440, 82);
place = (440, 82);
type = Stem;
},
{
horizontal = 1;
place = (0, 21);
target = up;
type = BottomGhost;
}
);
layerId = m01;
shapes = (
{
closed = 1;
nodes = (
(4,0,l),
(84,0,l),
(98,76,l),
(100,76,l),
(131,18,o),
(185,-15,o),
(261,-15,cs),
(437,-15,o),
(522,159,o),
(522,315,cs),
(522,443,o),
(453,529,o),
(340,529,cs),
(271,529,o),
(213,496,o),
(173,446,c),
(171,446,l),
(222,715,l),
(142,715,l)
);
},
{
closed = 1;
nodes = (
(126,331,o),
(194,461,o),
(319,461,cs),
(410,461,o),
(440,390,o),
(440,310,cs),
(440,195,o),
(386,52,o),
(258,52,cs),
(166,52,o),
(124,120,o),
(125,208,cs)
);
}
);
width = 547;
}
);
note = b;
unicode = 98;
},
{
glyphname = c;
kernLeft = c;
kernRight = c;
layers = (
{
hints = (
{
horizontal = 1;
place = (-14, 67);
place = (-14, 67);
type = Stem;
},
{
horizontal = 1;
place = (464, 66);
place = (464, 66);
type = Stem;
},
{
place = (23, 81);
place = (23, 81);
type = Stem;
}
);
layerId = m01;
shapes = (
{
closed = 1;
nodes = (
(350,-14,o),
(439,57,o),
(468,182,c),
(391,182,l),
(370,100,o),
(313,53,o),
(240,53,cs),
(141,53,o),
(104,121,o),
(104,206,cs),
(104,332,o),
(170,464,o),
(295,464,cs),
(370,464,o),
(404,418,o),
(411,350,c),
(492,350,l),
(482,465,o),
(415,530,o),
(299,530,cs),
(131,530,o),
(23,369,o),
(23,208,cs),
(23,62,o),
(111,-14,o),
(239,-14,cs)
);
}
);
width = 503;
}
);
note = c;
unicode = 99;
},
{
glyphname = d;
kernLeft = d;
layers = (
{
hints = (
{
horizontal = 1;
place = (-15, 67);
place = (-15, 67);
type = Stem;
},
{
horizontal = 1;
place = (461, 68);
place = (461, 68);
type = Stem;
},
{
horizontal = 1;
place = (715, -20);
target = down;
type = TopGhost;
},
{
place = (23, 81);
place = (23, 81);
type = Stem;
},
{
horizontal = 1;
place = (0, 52);
place = (0, 52);
type = Stem;
}
);
layerId = m01;
shapes = (
{
closed = 1;
nodes = (
(282,-15,o),
(332,12,o),
(371,56,c),
(373,56,l),
(362,0,l),
(442,0,l),
(580,715,l),
(500,715,l),
(447,438,l),
(445,438,l),
(413,498,o),
(363,529,o),
(295,529,cs),
(117,529,o),
(24,352,o),
(23,201,cs),
(22,63,o),
(102,-15,o),
(219,-15,cs)
);
},
{
closed = 1;
nodes = (
(104,314,o),
(165,461,o),
(292,461,cs),
(376,461,o),
(421,398,o),
(421,319,cs),
(421,191,o),
(362,52,o),
(230,52,cs),
(137,52,o),
(104,124,o),
(104,205,cs)
);
}
);
width = 546;
}
);
note = d;
unicode = 100;
},
{
glyphname = e;
kernLeft = c;
kernRight = e;
layers = (
{
hints = (
{
horizontal = 1;
place = (-14, 67);
place = (-14, 67);
type = Stem;
},
{
horizontal = 1;
place = (239, 61);
place = (239, 61);
type = Stem;
},
{
horizontal = 1;
place = (467, 63);
place = (467, 63);
type = Stem;
},
{
place = (23, 81);
place = (23, 81);
type = Stem;
},
{
place = (414, 82);
place = (414, 82);
type = Stem;
}
);
layerId = m01;
shapes = (
{
closed = 1;
nodes = (
(490,239,l),
(507,350,o),
(487,443,o),
(422,492,cs),
(390,516,o),
(347,530,o),
(292,530,cs),
(140,530,o),
(23,386,o),
(23,211,cs),
(23,70,o),
(119,-14,o),
(239,-14,cs),
(346,-14,o),
(431,44,o),
(471,160,c),
(393,160,l),
(370,92,o),
(314,53,o),
(247,53,cs),
(152,53,o),
(104,118,o),
(104,210,cs),
(104,220,o),
(104,229,o),
(105,239,c)
);
},
{
closed = 1;
nodes = (
(384,467,o),
(424,396,o),
(414,300,c),
(113,300,l),
(136,398,o),
(198,467,o),
(289,467,cs)
);
}
);
width = 515;
}
);
note = e;
unicode = 101;
},
{
glyphname = f;
kernLeft = f;
kernRight = f;
layers = (
{
hints = (
{
horizontal = 1;
place = (0, 21);
target = up;
type = BottomGhost;
},
{
horizontal = 1;
place = (452, 65);
place = (452, 65);
type = Stem;
},
{
horizontal = 1;
place = (652, 69);
place = (652, 69);
type = Stem;
},
{
place = (42, 309);
place = (42, 309);
type = Stem;
}
);
layerId = m01;
shapes = (
{
closed = 1;
nodes = (
(59,452,l),
(129,452,l),
(42,0,l),
(121,0,l),
(208,452,l),
(303,452,l),
(316,517,l),
(221,517,l),
(236,596,ls),
(243,632,o),
(255,652,o),
(307,652,cs),
(313,652,o),
(324,652,o),
(338,651,c),
(351,719,l),
(340,720,o),
(320,721,o),
(307,721,cs),
(219,721,o),
(175,687,o),
(158,600,cs),
(142,517,l),
(72,517,l)
);
}
);
width = 289;
}
);
note = f;
unicode = 102;
},
{
glyphname = g;
kernLeft = g;
kernRight = g;
layers = (
{
hints = (
{
horizontal = 1;
place = (-172, 63);
place = (-172, 63);
type = Stem;
},
{
horizontal = 1;
place = (18, 67);
place = (18, 67);
type = Stem;
},
{
horizontal = 1;
place = (461, 68);
place = (461, 68);
type = Stem;
},
{
place = (24, 80);
place = (24, 80);
type = Stem;
},
{
horizontal = 1;
place = (517, -20);
target = down;
type = TopGhost;
}
);
layerId = m01;
shapes = (
{
closed = 1;
nodes = (
(323,-172,o),
(407,-105,o),
(427,0,cs),
(527,517,l),
(448,517,l),
(433,442,l),
(432,442,l),
(402,498,o),
(352,529,o),
(284,529,cs),
(117,529,o),
(24,380,o),
(24,224,cs),
(24,97,o),
(103,18,o),
(215,18,cs),
(279,18,o),
(325,45,o),
(364,88,c),
(365,88,l),
(349,7,ls),
(335,-65,o),
(285,-109,o),
(201,-109,cs),
(141,-109,o),
(90,-91,o),
(85,-29,c),
(6,-29,l),
(9,-134,o),
(102,-172,o),
(202,-172,cs)
);
},
{
closed = 1;
nodes = (
(104,343,o),
(159,461,o),
(280,461,cs),
(369,461,o),
(412,408,o),
(412,320,cs),
(412,209,o),
(355,84,o),
(230,85,cs),
(140,85,o),
(104,147,o),
(104,229,cs)
);
}
);
width = 531;
}
);
note = g;
unicode = 103;
},
{
glyphname = h;
kernLeft = b;
kernRight = h;
layers = (
{
hints = (
{
horizontal = 1;
place = (0, 21);
target = up;
type = BottomGhost;
},
{
horizontal = 1;
place = (462, 67);
place = (462, 67);
type = Stem;
},
{
horizontal = 1;
place = (715, -20);
target = down;
type = TopGhost;
},
{
place = (411, 80);
place = (411, 80);
type = Stem;
}
);
layerId = m01;
shapes = (
{
closed = 1;
nodes = (
(222,715,l),
(142,715,l),
(4,0,l),
(84,0,l),
(140,290,ls),
(158,382,o),
(245,462,o),
(340,462,cs),
(402,462,o),
(420,429,o),
(408,365,cs),
(337,0,l),
(416,0,l),
(487,365,ls),
(506,466,o),
(463,529,o),
(361,529,cs),
(284,529,o),
(213,492,o),
(170,436,c),
(168,436,l)
);
}
);
width = 516;
}
);
note = h;
unicode = 104;
},
{
glyphname = i;
kernLeft = b;
layers = (
{
hints = (
{
horizontal = 1;
place = (0, 21);
target = up;
type = BottomGhost;
},
{
horizontal = 1;
place = (517, -20);
target = down;
type = TopGhost;
},
{
horizontal = 1;
place = (615, 100);
place = (615, 100);
type = Stem;
},
{
place = (4, 218);
place = (4, 218);
type = Stem;
}
);
layerId = m01;
shapes = (
{
closed = 1;
nodes = (
(4,0,l),
(84,0,l),
(184,517,l),
(104,517,l)
);
},
{
closed = 1;
nodes = (
(123,615,l),
(203,615,l),
(222,715,l),
(142,715,l)
);
}
);
width = 188;
}
);
note = i;
unicode = 105;
},
{
glyphname = j;
kernLeft = j;
kernRight = j;
layers = (
{
hints = (
{
horizontal = 1;
place = (-147, 66);
place = (-147, 66);
type = Stem;
},
{
horizontal = 1;
place = (517, -20);
target = down;
type = TopGhost;
},
{
horizontal = 1;
place = (615, 100);
place = (615, 100);
type = Stem;
},
{
place = (-104, 326);
place = (-104, 326);
type = Stem;
}
);
layerId = m01;
shapes = (
{
closed = 1;
nodes = (
(1,-147,o),
(58,-129,o),
(75,-43,cs),
(184,517,l),
(104,517,l),
(-2,-30,ls),
(-10,-71,o),
(-30,-81,o),
(-59,-81,cs),
(-72,-81,o),
(-80,-80,o),
(-90,-77,c),
(-92,-77,l),
(-104,-141,l),
(-95,-143,o),
(-81,-147,o),
(-52,-147,cs)
);
},
{
closed = 1;
nodes = (
(123,615,l),
(203,615,l),
(222,715,l),
(142,715,l)
);
}
);
width = 188;
}
);
note = j;
unicode = 106;
},
{
glyphname = k;
kernLeft = b;
kernRight = k;
layers = (
{
hints = (
{
horizontal = 1;
place = (0, 21);
target = up;
type = BottomGhost;
},
{
horizontal = 1;
place = (517, -20);
target = down;
type = TopGhost;
},
{
horizontal = 1;
place = (715, -20);
target = down;
type = TopGhost;
},
{
place = (4, 485);
place = (4, 485);
type = Stem;
}
);
layerId = m01;
shapes = (
{
closed = 1;
nodes = (
(489,517,l),
(384,517,l),
(139,286,l),
(222,715,l),
(142,715,l),
(4,0,l),
(84,0,l),
(121,191,l),
(213,273,l),
(329,0,l),
(415,0,l),
(274,326,l)
);
}
);
width = 461;
}
);
note = k;
unicode = 107;
},
{
glyphname = l;
kernLeft = b;
layers = (
{
hints = (
{
horizontal = 1;
place = (0, 21);
target = up;
type = BottomGhost;
},
{
horizontal = 1;
place = (715, -20);
target = down;
type = TopGhost;
},
{
place = (7, 218);
place = (7, 218);
type = Stem;
}
);
layerId = m01;
shapes = (
{
closed = 1;
nodes = (
(7,0,l),
(87,0,l),
(225,715,l),
(145,715,l)
);
}
);
width = 194;
}
);
note = l;
unicode = 108;
},
{
glyphname = m;
kernLeft = m;
kernRight = h;
layers = (
{
hints = (
{
horizontal = 1;
place = (0, 21);
target = up;
type = BottomGhost;
},
{
horizontal = 1;
place = (462, 67);
place = (462, 67);
type = Stem;
},
{
place = (667, 80);
place = (667, 80);
type = Stem;
},
{
horizontal = 1;
place = (517, -20);
target = down;
type = TopGhost;
}
);
layerId = m01;
shapes = (
{
closed = 1;
nodes = (
(4,0,l),
(84,0,l),
(143,304,ls),
(159,388,o),
(238,462,o),
(310,462,cs),
(361,462,o),
(381,430,o),
(370,374,cs),
(298,0,l),
(378,0,l),
(437,304,ls),
(454,394,o),
(528,462,o),
(601,462,cs),
(650,462,o),
(677,437,o),
(664,369,cs),
(592,0,l),
(671,0,l),
(742,367,ls),
(765,485,o),
(704,529,o),
(627,529,cs),
(557,529,o),
(499,496,o),
(448,435,c),
(446,435,l),
(435,499,o),
(394,529,o),
(339,529,cs),
(264,529,o),
(211,486,o),
(171,438,c),
(169,438,l),
(184,517,l),
(104,517,l)
);
}
);
width = 771;
}
);
note = m;
unicode = 109;
},
{
glyphname = n;
kernLeft = m;
kernRight = h;
layers = (
{
hints = (
{
horizontal = 1;
place = (0, 21);
target = up;
type = BottomGhost;
},
{
horizontal = 1;
place = (517, -20);
target = down;
type = TopGhost;
},
{
place = (411, 80);
place = (411, 80);
type = Stem;
},
{
horizontal = 1;
place = (462, 67);
place = (462, 67);
type = Stem;
}
);
layerId = m01;
shapes = (
{
closed = 1;
nodes = (
(184,517,l),
(104,517,l),
(4,0,l),
(84,0,l),
(140,290,ls),
(158,382,o),
(245,462,o),
(340,462,cs),
(402,462,o),
(420,429,o),
(408,365,cs),
(337,0,l),
(416,0,l),
(487,365,ls),
(506,466,o),
(463,529,o),
(361,529,cs),
(284,529,o),
(214,493,o),
(171,437,c),
(169,437,l)
);
}
);
width = 516;
}
);
note = n;
unicode = 110;
},
{
glyphname = o;
kernLeft = c;
kernRight = o;
layers = (
{
hints = (
{
horizontal = 1;
place = (-14, 67);
place = (-14, 67);
type = Stem;
},
{
horizontal = 1;
place = (464, 66);
place = (464, 66);
type = Stem;
},
{
place = (23, 80);
place = (23, 80);
type = Stem;
},
{
place = (432, 81);
place = (432, 81);
type = Stem;
}
);
layerId = m01;
shapes = (
{
closed = 1;
nodes = (
(417,-14,o),
(513,138,o),
(513,302,cs),
(513,443,o),
(421,530,o),
(296,530,cs),
(126,530,o),
(23,380,o),
(23,212,cs),
(23,67,o),
(118,-14,o),
(241,-14,cs)
);
},
{
closed = 1;
nodes = (
(103,341,o),
(167,464,o),
(294,464,cs),
(390,464,o),
(432,388,o),
(432,302,cs),
(432,170,o),
(367,53,o),
(244,53,cs),
(150,53,o),
(103,122,o),
(103,213,cs)
);
}
);
width = 536;
}
);
note = o;
unicode = 111;
},
{
glyphname = p;
kernLeft = p;
kernRight = thorn;
layers = (
{
hints = (
{
horizontal = 1;
place = (-166, 21);
target = up;
type = BottomGhost;
},
{
horizontal = 1;
place = (-15, 67);
place = (-15, 67);
type = Stem;
},
{
horizontal = 1;
place = (461, 68);
place = (461, 68);
type = Stem;
},
{
place = (440, 82);
place = (440, 82);
type = Stem;
},
{
horizontal = 1;
place = (461, 56);
place = (461, 56);
type = Stem;
}
);
layerId = m01;
shapes = (
{
closed = 1;
nodes = (
(-28,-166,l),
(52,-166,l),
(99,78,l),
(101,78,l),
(130,20,o),
(185,-15,o),
(261,-15,cs),
(437,-15,o),
(522,159,o),
(522,315,cs),
(522,443,o),
(453,529,o),
(340,529,cs),
(271,529,o),
(213,498,o),
(173,446,c),
(171,446,l),
(185,517,l),
(105,517,l)
);
},
{
closed = 1;
nodes = (
(126,331,o),
(194,461,o),
(319,461,cs),
(410,461,o),
(440,390,o),
(440,310,cs),
(440,195,o),
(386,52,o),
(258,52,cs),
(166,52,o),
(124,120,o),
(125,208,cs)
);
}
);
width = 547;
}
);
note = p;
unicode = 112;
},
{
glyphname = q;
kernLeft = d;
kernRight = q;
layers = (
{
hints = (
{
horizontal = 1;
place = (-166, 21);
target = up;
type = BottomGhost;
},
{
horizontal = 1;
place = (-15, 67);
place = (-15, 67);
type = Stem;
},
{
horizontal = 1;
place = (461, 68);
place = (461, 68);
type = Stem;
},
{
place = (23, 81);
place = (23, 81);
type = Stem;
},
{
horizontal = 1;
place = (517, -20);
target = down;
type = TopGhost;
}
);
layerId = m01;
shapes = (
{
closed = 1;
nodes = (
(282,-15,o),
(332,12,o),
(371,56,c),
(373,56,l),
(329,-166,l),
(409,-166,l),
(542,517,l),
(462,517,l),
(446,436,l),
(444,436,l),
(414,496,o),
(363,529,o),
(291,529,cs),
(117,529,o),
(24,352,o),
(23,201,cs),
(22,63,o),
(102,-15,o),
(219,-15,cs)
);
},
{
closed = 1;
nodes = (
(104,314,o),
(165,461,o),
(288,461,cs),
(376,461,o),
(421,398,o),
(421,319,cs),
(421,191,o),
(362,52,o),
(230,52,cs),
(137,52,o),
(104,124,o),
(104,205,cs)
);
}
);
width = 546;
}
);
note = q;
unicode = 113;
},
{
glyphname = r;
kernLeft = m;
kernRight = r;
layers = (
{
hints = (
{
horizontal = 1;
place = (0, 21);
target = up;
type = BottomGhost;
},
{
horizontal = 1;
place = (445, 72);
place = (445, 72);
type = Stem;
},
{
place = (4, 356);
place = (4, 356);
type = Stem;
},
{
horizontal = 1;
place = (445, 78);
place = (445, 78);
type = Stem;
}
);
layerId = m01;
shapes = (
{
closed = 1;
nodes = (
(184,517,l),
(104,517,l),
(4,0,l),
(84,0,l),
(136,273,ls),
(157,383,o),
(227,445,o),
(305,445,cs),
(321,445,o),
(331,444,o),
(342,440,c),
(345,440,l),
(360,517,l),
(351,521,o),
(343,523,o),
(318,523,cs),
(259,523,o),
(209,489,o),
(170,435,c),
(168,435,l)
);
}
);
width = 328;
}
);
note = r;
unicode = 114;
},
{
glyphname = s;
kernLeft = scaron;
kernRight = scaron;
layers = (
{
hints = (
{
horizontal = 1;
place = (-15, 66);
place = (-15, 66);
type = Stem;
},
{
horizontal = 1;
place = (466, 62);
place = (466, 62);
type = Stem;
},
{
place = (62, 75);
place = (62, 75);
type = Stem;
},
{
place = (336, 78);
place = (336, 78);
type = Stem;
}
);
layerId = m01;
shapes = (
{
closed = 1;
nodes = (
(319,-15,o),
(414,34,o),
(414,146,cs),
(414,235,o),
(347,265,o),
(256,301,cs),
(173,334,o),
(137,350,o),
(137,392,cs),
(137,450,o),
(188,466,o),
(241,466,cs),
(306,466,o),
(353,437,o),
(361,366,c),
(439,366,l),
(432,482,o),
(345,528,o),
(241,528,cs),
(137,528,o),
(62,478,o),
(62,388,cs),
(62,299,o),
(132,269,o),
(217,236,cs),
(301,203,o),
(336,185,o),
(336,144,cs),
(336,71,o),
(274,51,o),
(219,51,cs),
(129,51,o),
(77,91,o),
(75,168,c),
(-2,168,l),
(-2,42,o),
(101,-15,o),
(213,-15,cs)
);
}
);
width = 464;
}
);
note = s;
unicode = 115;
},
{
glyphname = t;
kernLeft = t;
kernRight = t;
layers = (
{
hints = (
{
horizontal = 1;
place = (-3, 69);
place = (-3, 69);
type = Stem;
},
{
horizontal = 1;
place = (452, 65);
place = (452, 65);
type = Stem;
},
{
place = (59, 265);
place = (59, 265);
type = Stem;
}
);
layerId = m01;
shapes = (
{
closed = 1;
nodes = (
(59,452,l),
(132,452,l),
(69,127,ls),
(52,41,o),
(93,-3,o),
(173,-3,cs),
(195,-3,o),
(215,0,o),
(229,5,c),
(243,75,l),
(240,75,l),
(231,71,o),
(214,66,o),
(194,66,cs),
(155,66,o),
(141,84,o),
(149,124,cs),
(212,452,l),
(311,452,l),
(324,517,l),
(225,517,l),
(257,680,l),
(177,680,l),
(145,517,l),
(72,517,l)
);
}
);
width = 297;
}
);
note = t;
unicode = 116;
},
{
glyphname = u;
kernLeft = u;
kernRight = u;
layers = (
{
hints = (
{
horizontal = 1;
place = (0, 21);
target = up;
type = BottomGhost;
},
{
horizontal = 1;
place = (517, -20);
target = down;
type = TopGhost;
},
{
place = (24, 79);
place = (24, 79);
type = Stem;
},
{
horizontal = 1;
place = (-12, 67);
place = (-12, 67);
type = Stem;
}
);
layerId = m01;
shapes = (
{
closed = 1;
nodes = (
(320,0,l),
(400,0,l),
(500,517,l),
(420,517,l),
(364,228,ls),
(345,132,o),
(268,55,o),
(176,55,cs),
(113,55,o),
(93,87,o),
(107,158,cs),
(177,517,l),
(98,517,l),
(28,157,ls),
(8,52,o),
(56,-12,o),
(157,-12,cs),
(233,-12,o),
(289,22,o),
(331,72,c),
(333,72,l)
);
}
);
width = 504;
}
);
note = u;
unicode = 117;
},
{
glyphname = v;
kernLeft = v;
kernRight = v;
layers = (
{
hints = (
{
horizontal = 1;
place = (0, 21);
target = up;
type = BottomGhost;
},
{
horizontal = 1;
place = (517, -20);
target = down;
type = TopGhost;
},
{
place = (49, 445);
place = (49, 445);
type = Stem;
},
{
horizontal = 1;
place = (0, 78);
place = (0, 78);
type = Stem;
}
);
layerId = m01;
shapes = (
{
closed = 1;
nodes = (
(132,0,l),
(221,0,l),
(494,517,l),
(409,517,l),
(244,189,ls),
(219,138,o),
(193,78,o),
(193,78,c),
(191,78,l),
(191,78,o),
(186,143,o),
(179,189,cs),
(133,517,l),
(49,517,l)
);
}
);
width = 449;
}
);
note = v;
unicode = 118;
},
{
glyphname = w;
kernLeft = w;
kernRight = w;
layers = (
{
hints = (
{
horizontal = 1;
place = (0, 86);
place = (0, 86);
type = Stem;
},
{
horizontal = 1;
place = (517, -20);
target = down;
type = TopGhost;
},
{
place = (52, 700);
place = (52, 700);
type = Stem;
},
{
horizontal = 1;
place = (423, 94);
place = (423, 94);
type = Stem;
}
);
layerId = m01;
shapes = (
{
closed = 1;
nodes = (
(115,0,l),
(198,0,l),
(335,309,ls),
(354,352,o),
(380,423,o),
(380,423,c),
(382,423,l),
(382,423,o),
(383,352,o),
(387,309,cs),
(416,0,l),
(498,0,l),
(752,517,l),
(668,517,l),
(519,201,ls),
(499,158,o),
(472,86,o),
(472,86,c),
(470,86,l),
(470,86,o),
(471,156,o),
(467,198,cs),
(439,517,l),
(356,517,l),
(215,198,ls),
(197,157,o),
(173,86,o),
(173,86,c),
(171,86,l),
(171,86,o),
(170,158,o),
(166,204,cs),
(136,517,l),
(52,517,l)
);
}
);
width = 708;
}
);
note = w;
unicode = 119;
},
{
glyphname = x;
kernLeft = x;
kernRight = x;
layers = (
{
hints = (
{
horizontal = 1;
place = (0, 21);
target = up;
type = BottomGhost;
},
{
horizontal = 1;
place = (517, -20);
target = down;
type = TopGhost;
},
{
place = (-49, 545);
place = (-49, 545);
type = Stem;
}
);
layerId = m01;
shapes = (
{
closed = 1;
nodes = (
(-49,0,l),
(47,0,l),
(226,221,l),
(228,221,l),
(327,0,l),
(417,0,l),
(284,272,l),
(496,517,l),
(402,517,l),
(249,327,l),
(247,327,l),
(168,517,l),
(79,517,l),
(192,276,l)
);
}
);
width = 475;
}
);
note = x;
unicode = 120;
},
{
glyphname = y;
kernLeft = yacute;
kernRight = yacute;
layers = (
{
hints = (
{
horizontal = 1;
place = (-171, 71);
place = (-171, 71);
type = Stem;
},
{
horizontal = 1;
place = (517, -20);
target = down;
type = TopGhost;
},
{
place = (-25, 527);
place = (-25, 527);
type = Stem;
},
{
horizontal = 1;
place = (-159, 21);
target = up;
type = BottomGhost;
}
);
layerId = m01;
shapes = (
{
closed = 1;
nodes = (
(107,-171,o),
(158,-145,o),
(200,-64,cs),
(502,517,l),
(419,517,l),
(260,196,ls),
(237,149,o),
(214,96,o),
(214,96,c),
(212,96,l),
(212,96,o),
(206,153,o),
(197,197,cs),
(131,517,l),
(49,517,l),
(159,16,l),
(125,-49,ls),
(105,-87,o),
(78,-100,o),
(45,-100,cs),
(18,-100,o),
(3,-94,o),
(-7,-89,c),
(-11,-89,l),
(-25,-159,l),
(-7,-167,o),
(17,-171,o),
(44,-171,cs)
);
}
);
width = 457;
}
);
note = y;
unicode = 121;
},
{
glyphname = z;
kernLeft = zcaron;
kernRight = zcaron;
layers = (
{
hints = (
{
horizontal = 1;
place = (0, 72);
place = (0, 72);
type = Stem;
},
{
horizontal = 1;
place = (448, 69);
place = (448, 69);
type = Stem;
},
{
place = (-23, 482);
place = (-23, 482);
type = Stem;
}
);
layerId = m01;
shapes = (
{
closed = 1;
nodes = (
(-23,0,l),
(373,0,l),
(386,72,l),
(94,72,l),
(94,75,l),
(450,471,l),
(459,517,l),
(90,517,l),
(77,448,l),
(333,448,l),
(333,445,l),
(-11,62,l)
);
}
);
width = 443;
}
);
note = z;
unicode = 122;
},
{
glyphname = braceleft;
kernRight = bracketleft;
layers = (
{
hints = (
{
horizontal = 1;
place = (-118, 69);
place = (-118, 69);
type = Stem;
},
{
horizontal = 1;
place = (688, 66);
place = (688, 66);
type = Stem;
},
{
place = (45, 82);
place = (45, 82);
type = Stem;
},
{
place = (87, 82);
place = (87, 82);
type = Stem;
}
);
layerId = m01;
shapes = (
{
closed = 1;
nodes = (
(189,-118,l),
(202,-49,l),
(185,-49,ls),
(136,-49,o),
(117,-30,o),
(132,44,cs),
(165,212,ls),
(177,271,o),
(161,300,o),
(130,316,c),
(130,319,l),
(171,331,o),
(193,360,o),
(202,408,cs),
(241,604,ls),
(253,668,o),
(277,688,o),
(326,688,cs),
(345,688,l),
(358,754,l),
(323,754,ls),
(235,754,o),
(180,715,o),
(161,616,cs),
(124,422,ls),
(114,374,o),
(93,359,o),
(43,355,c),
(29,288,l),
(83,286,o),
(93,265,o),
(84,221,cs),
(50,43,ls),
(28,-70,o),
(72,-118,o),
(177,-118,cs)
);
}
);
width = 291;
}
);
note = braceleft;
unicode = 123;
},
{
glyphname = bar;
layers = (
{
hints = (
{
horizontal = 1;
place = (-118, 872);
place = (-118, 872);
type = Stem;
},
{
place = (95, 70);
place = (95, 70);
type = Stem;
}
);
layerId = m01;
shapes = (
{
closed = 1;
nodes = (
(95,-118,l),
(165,-118,l),
(165,754,l),
(95,754,l)
);
}
);
width = 220;
}
);
note = bar;
unicode = 124;
},
{
glyphname = braceright;
kernLeft = bracketright;
layers = (
{
hints = (
{
horizontal = 1;
place = (-118, 69);
place = (-118, 69);
type = Stem;
},
{
horizontal = 1;
place = (688, 66);
place = (688, 66);
type = Stem;
},
{
place = (188, 82);
place = (188, 82);
type = Stem;
},
{
place = (146, 82);
place = (146, 82);
type = Stem;
}
);
layerId = m01;
shapes = (
{
closed = 1;
nodes = (
(126,754,l),
(113,688,l),
(130,688,ls),
(179,688,o),
(198,666,o),
(183,592,cs),
(150,424,ls),
(138,365,o),
(154,336,o),
(185,320,c),
(185,317,l),
(144,305,o),
(122,276,o),
(113,228,cs),
(74,32,ls),
(62,-32,o),
(38,-49,o),
(-11,-49,cs),
(-30,-49,l),
(-43,-118,l),
(-8,-118,ls),
(80,-118,o),
(135,-79,o),
(154,20,cs),
(191,214,ls),
(201,262,o),
(222,277,o),
(272,281,c),
(286,348,l),
(232,350,o),
(222,371,o),
(231,415,cs),
(265,593,ls),
(287,706,o),
(243,754,o),
(138,754,cs)
);
}
);
width = 291;
}
);
note = braceright;
unicode = 125;
},
{
glyphname = asciitilde;
layers = (
{
hints = (
{
horizontal = 1;
place = (272, 75);
place = (272, 75);
type = Stem;
},
{
place = (40, 329);
place = (40, 329);
type = Stem;
},
{
horizontal = 1;
place = (315, 75);
place = (315, 75);
type = Stem;
}
);
layerId = m01;
shapes = (
{
closed = 1;
nodes = (
(329,272,o),
(359,322,o),
(369,388,c),
(305,388,l),
(301,362,o),
(289,347,o),
(267,347,cs),
(250,347,o),
(239,354,o),
(215,367,cs),
(193,379,o),
(170,390,o),
(141,390,cs),
(88,390,o),
(50,345,o),
(40,274,c),
(104,274,l),
(108,300,o),
(119,315,o),
(139,315,cs),
(156,315,o),
(169,307,o),
(200,292,cs),
(221,282,o),
(244,272,o),
(268,272,cs)
);
}
);
width = 387;
}
);
note = asciitilde;
unicode = 126;
},
{
glyphname = Adieresis;
kernLeft = A;
kernRight = A;
layers = (
{
hints = (
{
horizontal = 1;
place = (0, 21);
target = up;
type = BottomGhost;
},
{
horizontal = 1;
place = (218, 72);
place = (218, 72);
type = Stem;
},
{
horizontal = 1;
place = (715, -20);
target = down;
type = TopGhost;
},
{
horizontal = 1;
place = (760, 95);
place = (760, 95);
type = Stem;
},
{
place = (-39, 617);
place = (-39, 617);
type = Stem;
},
{
horizontal = 1;
place = (632, 83);
place = (632, 83);
type = Stem;
}
);
layerId = m01;
shapes = (
{
closed = 1;
nodes = (
(484,0,l),
(578,0,l),
(443,715,l),
(344,715,l),
(-39,0,l),
(53,0,l),
(166,218,l),
(448,218,l)
);
},
{
closed = 1;
nodes = (
(330,531,ls),
(353,574,o),
(380,632,o),
(380,632,c),
(382,632,l),
(382,632,o),
(389,571,o),
(396,531,cs),
(436,290,l),
(204,290,l)
);
},
{
closed = 1;
nodes = (
(442,760,l),
(519,760,l),
(538,855,l),
(461,855,l)
);
},
{
closed = 1;
nodes = (
(281,760,l),
(358,760,l),
(377,855,l),
(300,855,l)
);
}
);
width = 638;
}
);
note = Adieresis;
unicode = 196;
},
{
glyphname = Aring;
kernLeft = A;
kernRight = A;
layers = (
{
hints = (
{
horizontal = 1;
place = (0, 21);
target = up;
type = BottomGhost;
},
{
horizontal = 1;
place = (218, 72);
place = (218, 72);
type = Stem;
},
{
horizontal = 1;
place = (715, -20);
target = down;
type = TopGhost;
},
{
horizontal = 1;
place = (746, 35);
place = (746, 35);
type = Stem;
},
{
horizontal = 1;
place = (881, 35);
place = (881, 35);
type = Stem;
},
{
place = (318, 40);
place = (318, 40);
type = Stem;
},
{
place = (452, 40);
place = (452, 40);
type = Stem;
},
{
horizontal = 1;
place = (632, 83);
place = (632, 83);
type = Stem;
}
);
layerId = m01;
shapes = (
{
closed = 1;
nodes = (
(484,0,l),
(578,0,l),
(443,715,l),
(344,715,l),
(-39,0,l),
(53,0,l),
(166,218,l),
(448,218,l)
);
},
{
closed = 1;
nodes = (
(330,531,ls),
(353,574,o),
(380,632,o),
(380,632,c),
(382,632,l),
(382,632,o),
(389,571,o),
(396,531,cs),
(436,290,l),
(204,290,l)
);
},
{
closed = 1;
nodes = (
(453,746,o),
(492,784,o),
(492,831,cs),
(492,878,o),
(453,916,o),
(405,916,cs),
(357,916,o),
(318,878,o),
(318,831,cs),
(318,784,o),
(357,746,o),
(405,746,cs)
);
},
{
closed = 1;
nodes = (
(377,781,o),
(358,803,o),
(358,831,cs),
(358,859,o),
(377,881,o),
(405,881,cs),
(433,881,o),
(452,859,o),
(452,831,cs),
(452,803,o),
(433,781,o),
(405,781,cs)
);
}
);
width = 638;
}
);
note = Aring;
unicode = 197;
},
{
glyphname = Ccedilla;
kernLeft = C;
kernRight = C;
layers = (
{
hints = (
{
horizontal = 1;
place = (-191, 43);
place = (-191, 43);
type = Stem;
},
{
horizontal = 1;
place = (-88, 152);
place = (-88, 152);
type = Stem;
},
{
horizontal = 1;
place = (654, 77);
place = (654, 77);
type = Stem;
},
{
place = (50, 92);
place = (50, 92);
type = Stem;
},
{
place = (330, 64);
place = (330, 64);
type = Stem;
},
{
horizontal = 1;
place = (-160, 21);
target = up;
type = BottomGhost;
},
{
horizontal = 1;
place = (-11, 75);
place = (-11, 75);
type = Stem;
},
{
horizontal = 1;
place = (-11, 21);
target = up;
type = BottomGhost;
}
);
layerId = m01;
shapes = (
{
closed = 1;
nodes = (
(346,-191,o),
(394,-164,o),
(394,-109,cs),
(394,-62,o),
(348,-45,o),
(309,-52,c),
(309,-50,l),
(350,-14,l),
(437,-13,o),
(515,18,o),
(567,74,cs),
(616,127,o),
(648,192,o),
(661,262,c),
(573,262,l),
(550,158,o),
(479,64,o),
(351,64,cs),
(203,64,o),
(142,173,o),
(142,304,cs),
(142,484,o),
(239,654,o),
(418,654,cs),
(522,654,o),
(582,599,o),
(595,503,c),
(684,503,l),
(672,648,o),
(576,731,o),
(427,731,cs),
(189,731,o),
(50,515,o),
(50,301,cs),
(50,131,o),
(134,9,o),
(297,-11,c),
(243,-72,l),
(255,-95,l),
(267,-91,o),
(277,-88,o),
(295,-88,cs),
(318,-88,o),
(330,-98,o),
(330,-114,cs),
(330,-146,o),
(293,-148,o),
(271,-148,cs),
(246,-148,o),
(219,-141,o),
(199,-131,c),
(182,-160,l),
(205,-176,o),
(236,-191,o),
(288,-191,cs)
);
}
);
width = 684;
}
);
note = Ccedilla;
unicode = 199;
},
{
glyphname = Eacute;
kernRight = E;
layers = (
{
hints = (
{
horizontal = 1;
place = (0, 82);
place = (0, 82);
type = Stem;
},
{
horizontal = 1;
place = (335, 75);
place = (335, 75);
type = Stem;
},
{
horizontal = 1;
place = (637, 78);
place = (637, 78);
type = Stem;
},
{
horizontal = 1;
place = (753, 121);
place = (753, 121);
type = Stem;
},
{
place = (16, 605);
place = (16, 605);
type = Stem;
}
);
layerId = m01;
shapes = (
{
closed = 1;
nodes = (
(16,0,l),
(505,0,l),
(521,82,l),
(120,82,l),
(168,335,l),
(516,335,l),
(531,410,l),
(183,410,l),
(227,637,l),
(606,637,l),
(621,715,l),
(154,715,l)
);
},
{
closed = 1;
nodes = (
(359,753,l),
(427,753,l),
(519,874,l),
(421,874,l)
);
}
);
width = 592;
}
);
note = Eacute;
unicode = 201;
},
{
glyphname = Ntilde;
layers = (
{
hints = (
{
horizontal = 1;
place = (0, 21);
target = up;
type = BottomGhost;
},
{
horizontal = 1;
place = (715, -20);
target = down;
type = TopGhost;
},
{
horizontal = 1;
place = (760, 62);
place = (760, 62);
type = Stem;
},
{
place = (16, 678);
place = (16, 678);
type = Stem;
},
{
horizontal = 1;
place = (792, 62);
place = (792, 62);
type = Stem;
}
);
layerId = m01;
shapes = (
{
closed = 1;
nodes = (
(16,0,l),
(99,0,l),
(213,589,l),
(215,589,l),
(215,589,o),
(232,538,o),
(249,500,cs),
(465,0,l),
(556,0,l),
(694,715,l),
(611,715,l),
(497,124,l),
(495,124,l),
(495,124,o),
(480,175,o),
(462,216,cs),
(247,715,l),
(154,715,l)
);
},
{
closed = 1;
nodes = (
(552,760,o),
(579,801,o),
(589,852,c),
(532,852,l),
(528,836,o),
(520,822,o),
(501,822,cs),
(465,822,o),
(437,854,o),
(384,854,cs),
(338,854,o),
(309,819,o),
(296,762,c),
(355,762,l),
(358,780,o),
(368,792,o),
(382,792,cs),
(408,792,o),
(454,760,o),
(501,760,cs)
);
}
);
width = 672;
}
);
note = Ntilde;
unicode = 209;
},
{
glyphname = Odieresis;
kernLeft = C;
kernRight = O;
layers = (
{
hints = (
{
horizontal = 1;
place = (-15, 78);
place = (-15, 78);
type = Stem;
},
{
horizontal = 1;
place = (654, 77);
place = (654, 77);
type = Stem;
},
{
place = (50, 92);
place = (50, 92);
type = Stem;
},
{
place = (654, 91);
place = (654, 91);
type = Stem;
},
{
horizontal = 1;
place = (760, 95);
place = (760, 95);
type = Stem;
}
);
layerId = m01;
shapes = (
{
closed = 1;
nodes = (
(605,-15,o),
(745,172,o),
(745,402,cs),
(745,612,o),
(607,731,o),
(426,731,cs),
(199,731,o),
(50,539,o),
(50,312,cs),
(50,103,o),
(191,-15,o),
(372,-15,cs)
);
},
{
closed = 1;
nodes = (
(142,499,o),
(241,654,o),
(422,654,cs),
(567,654,o),
(654,552,o),
(654,401,cs),
(654,213,o),
(558,63,o),
(374,63,cs),
(231,63,o),
(142,156,o),
(142,312,cs)
);
},
{
closed = 1;
nodes = (
(480,760,l),
(557,760,l),
(576,855,l),
(499,855,l)
);
},
{
closed = 1;
nodes = (
(319,760,l),
(396,760,l),
(415,855,l),
(338,855,l)
);
}
);
width = 758;
}
);
note = Odieresis;
unicode = 214;
},
{
glyphname = Udieresis;
kernLeft = U;
kernRight = U;
layers = (
{
hints = (
{
horizontal = 1;
place = (-11, 76);
place = (-11, 76);
type = Stem;
},
{
horizontal = 1;
place = (715, -20);
target = down;
type = TopGhost;
},
{
horizontal = 1;
place = (760, 95);
place = (760, 95);
type = Stem;
},
{
place = (47, 89);
place = (47, 89);
type = Stem;
}
);
layerId = m01;
shapes = (
{
closed = 1;
nodes = (
(440,-11,o),
(547,55,o),
(577,210,cs),
(675,715,l),
(587,715,l),
(492,225,ls),
(470,114,o),
(410,65,o),
(302,65,cs),
(165,65,o),
(117,131,o),
(143,261,cs),
(231,715,l),
(142,715,l),
(54,261,ls),
(17,70,o),
(128,-11,o),
(298,-11,cs)
);
},
{
closed = 1;
nodes = (
(459,760,l),
(536,760,l),
(555,855,l),
(478,855,l)
);
},
{
closed = 1;
nodes = (
(298,760,l),
(375,760,l),
(394,855,l),
(317,855,l)
);
}
);
width = 641;
}
);
note = Udieresis;
unicode = 220;
},
{
glyphname = aacute;
kernLeft = a;
kernRight = a;
layers = (
{
hints = (
{
horizontal = 1;
place = (-5, 21);
target = up;
type = BottomGhost;
},
{
horizontal = 1;
place = (465, 63);
place = (465, 63);
type = Stem;
},
{
horizontal = 1;
place = (598, 127);
place = (598, 127);
type = Stem;
},
{
place = (4, 81);
place = (4, 81);
type = Stem;
},
{
place = (329, 74);
place = (329, 74);
type = Stem;
},
{
horizontal = 1;
place = (-10, 62);
place = (-10, 62);
type = Stem;
},
{
place = (384, 73);
place = (384, 73);
type = Stem;
}
);
layerId = m01;
shapes = (
{
closed = 1;
nodes = (
(420,-5,o),
(432,-1,o),
(442,2,c),
(454,60,l),
(451,60,l),
(403,51,o),
(399,75,o),
(406,113,cs),
(453,352,ls),
(478,481,o),
(384,528,o),
(284,528,cs),
(150,528,o),
(69,464,o),
(51,361,c),
(132,361,l),
(146,437,o),
(194,466,o),
(278,465,cs),
(334,464,o),
(384,449,o),
(384,385,cs),
(384,318,o),
(350,309,o),
(208,301,cs),
(105,295,o),
(4,268,o),
(4,136,cs),
(4,58,o),
(62,-10,o),
(165,-10,cs),
(238,-10,o),
(294,22,o),
(328,66,c),
(329,66,l),
(330,28,o),
(346,-5,o),
(401,-5,cs)
);
},
{
closed = 1;
nodes = (
(85,231,o),
(165,237,o),
(205,240,cs),
(291,247,o),
(332,250,o),
(364,268,c),
(350,197,ls),
(335,121,o),
(282,52,o),
(182,52,cs),
(120,52,o),
(85,88,o),
(85,142,cs)
);
},
{
closed = 1;
nodes = (
(264,598,l),
(333,598,l),
(425,725,l),
(327,725,l)
);
}
);
width = 497;
}
);
note = aacute;
unicode = 225;
},
{
glyphname = agrave;
kernLeft = a;
kernRight = a;
layers = (
{
hints = (
{
horizontal = 1;
place = (-5, 21);
target = up;
type = BottomGhost;
},
{
horizontal = 1;
place = (465, 63);
place = (465, 63);
type = Stem;
},
{
horizontal = 1;
place = (598, 127);
place = (598, 127);
type = Stem;
},
{
place = (4, 81);
place = (4, 81);
type = Stem;
},
{
place = (329, 74);
place = (329, 74);
type = Stem;
},
{
horizontal = 1;
place = (-10, 62);
place = (-10, 62);
type = Stem;
},
{
place = (384, 73);
place = (384, 73);
type = Stem;
}
);
layerId = m01;
shapes = (
{
closed = 1;
nodes = (
(420,-5,o),
(432,-1,o),
(442,2,c),
(454,60,l),
(451,60,l),
(403,51,o),
(399,75,o),
(406,113,cs),
(453,352,ls),
(478,481,o),
(384,528,o),
(284,528,cs),
(150,528,o),
(69,464,o),
(51,361,c),
(132,361,l),
(146,437,o),
(194,466,o),
(278,465,cs),
(334,464,o),
(384,449,o),
(384,385,cs),
(384,318,o),
(350,309,o),
(208,301,cs),
(105,295,o),
(4,268,o),
(4,136,cs),
(4,58,o),
(62,-10,o),
(165,-10,cs),
(238,-10,o),
(294,22,o),
(328,66,c),
(329,66,l),
(330,28,o),
(346,-5,o),
(401,-5,cs)
);
},
{
closed = 1;
nodes = (
(85,231,o),
(165,237,o),
(205,240,cs),
(291,247,o),
(332,250,o),
(364,268,c),
(350,197,ls),
(335,121,o),
(282,52,o),
(182,52,cs),
(120,52,o),
(85,88,o),
(85,142,cs)
);
},
{
closed = 1;
nodes = (
(266,598,l),
(333,598,l),
(291,725,l),
(196,725,l)
);
}
);
width = 497;
}
);
note = agrave;
unicode = 224;
},
{
glyphname = acircumflex;
kernLeft = a;
kernRight = a;
layers = (
{
hints = (
{
horizontal = 1;
place = (-5, 21);
target = up;
type = BottomGhost;
},
{
horizontal = 1;
place = (465, 63);
place = (465, 63);
type = Stem;
},
{
horizontal = 1;
place = (602, 106);
place = (602, 106);
type = Stem;
},
{
place = (4, 81);
place = (4, 81);
type = Stem;
},
{
place = (329, 74);
place = (329, 74);
type = Stem;
},
{
horizontal = 1;
place = (-10, 62);
place = (-10, 62);
type = Stem;
},
{
place = (384, 73);
place = (384, 73);
type = Stem;
}
);
layerId = m01;
shapes = (
{
closed = 1;
nodes = (
(420,-5,o),
(432,-1,o),
(442,2,c),
(454,60,l),
(451,60,l),
(403,51,o),
(399,75,o),
(406,113,cs),
(453,352,ls),
(478,481,o),
(384,528,o),
(284,528,cs),
(150,528,o),
(69,464,o),
(51,361,c),
(132,361,l),
(146,437,o),
(194,466,o),
(278,465,cs),
(334,464,o),
(384,449,o),
(384,385,cs),
(384,318,o),
(350,309,o),
(208,301,cs),
(105,295,o),
(4,268,o),
(4,136,cs),
(4,58,o),
(62,-10,o),
(165,-10,cs),
(238,-10,o),
(294,22,o),
(328,66,c),
(329,66,l),
(330,28,o),
(346,-5,o),
(401,-5,cs)
);
},
{
closed = 1;
nodes = (
(85,231,o),
(165,237,o),
(205,240,cs),
(291,247,o),
(332,250,o),
(364,268,c),
(350,197,ls),
(335,121,o),
(282,52,o),
(182,52,cs),
(120,52,o),
(85,88,o),
(85,142,cs)
);
},
{
closed = 1;
nodes = (
(159,602,l),
(247,602,l),
(303,665,l),
(305,665,l),
(347,602,l),
(429,602,l),
(355,708,l),
(265,708,l)
);
}
);
width = 497;
}
);
note = acircumflex;
unicode = 226;
},
{
glyphname = adieresis;
kernLeft = a;
kernRight = a;
layers = (
{
hints = (
{
horizontal = 1;
place = (-5, 21);
target = up;
type = BottomGhost;
},
{
horizontal = 1;
place = (465, 63);
place = (465, 63);
type = Stem;
},
{
horizontal = 1;
place = (615, 95);
place = (615, 95);
type = Stem;
},
{
place = (4, 81);
place = (4, 81);
type = Stem;
},
{
place = (329, 74);
place = (329, 74);
type = Stem;
},
{
horizontal = 1;
place = (-10, 62);
place = (-10, 62);
type = Stem;
},
{
place = (384, 73);
place = (384, 73);
type = Stem;
}
);
layerId = m01;
shapes = (
{
closed = 1;
nodes = (
(420,-5,o),
(432,-1,o),
(442,2,c),
(454,60,l),
(451,60,l),
(403,51,o),
(399,75,o),
(406,113,cs),
(453,352,ls),
(478,481,o),
(384,528,o),
(284,528,cs),
(150,528,o),
(69,464,o),
(51,361,c),
(132,361,l),
(146,437,o),
(194,466,o),
(278,465,cs),
(334,464,o),
(384,449,o),
(384,385,cs),
(384,318,o),
(350,309,o),
(208,301,cs),
(105,295,o),
(4,268,o),
(4,136,cs),
(4,58,o),
(62,-10,o),
(165,-10,cs),
(238,-10,o),
(294,22,o),
(328,66,c),
(329,66,l),
(330,28,o),
(346,-5,o),
(401,-5,cs)
);
},
{
closed = 1;
nodes = (
(85,231,o),
(165,237,o),
(205,240,cs),
(291,247,o),
(332,250,o),
(364,268,c),
(350,197,ls),
(335,121,o),
(282,52,o),
(182,52,cs),
(120,52,o),
(85,88,o),
(85,142,cs)
);
},
{
closed = 1;
nodes = (
(340,615,l),
(417,615,l),
(436,710,l),
(359,710,l)
);
},
{
closed = 1;
nodes = (
(179,615,l),
(256,615,l),
(275,710,l),
(198,710,l)
);
}
);
width = 497;
}
);
note = adieresis;
unicode = 228;
},
{
glyphname = atilde;
kernLeft = a;
kernRight = a;
layers = (
{
hints = (
{
horizontal = 1;
place = (-5, 21);
target = up;
type = BottomGhost;
},
{
horizontal = 1;
place = (465, 63);
place = (465, 63);
type = Stem;
},
{
horizontal = 1;
place = (633, 62);
place = (633, 62);
type = Stem;
},
{
place = (4, 81);
place = (4, 81);
type = Stem;
},
{
place = (329, 74);
place = (329, 74);
type = Stem;
},
{
horizontal = 1;
place = (-10, 62);
place = (-10, 62);
type = Stem;
},
{
place = (384, 73);
place = (384, 73);
type = Stem;
},
{
horizontal = 1;
place = (601, 92);
place = (601, 92);
type = Stem;
},
{
horizontal = 1;
place = (601, 62);
place = (601, 62);
type = Stem;
},
{
horizontal = 1;
place = (603, 92);
place = (603, 92);
type = Stem;
}
);
layerId = m01;
shapes = (
{
closed = 1;
nodes = (
(420,-5,o),
(432,-1,o),
(442,2,c),
(454,60,l),
(451,60,l),
(403,51,o),
(399,75,o),
(406,113,cs),
(453,352,ls),
(478,481,o),
(384,528,o),
(284,528,cs),
(150,528,o),
(69,464,o),
(51,361,c),
(132,361,l),
(146,437,o),
(194,466,o),
(278,465,cs),
(334,464,o),
(384,449,o),
(384,385,cs),
(384,318,o),
(350,309,o),
(208,301,cs),
(105,295,o),
(4,268,o),
(4,136,cs),
(4,58,o),
(62,-10,o),
(165,-10,cs),
(238,-10,o),
(294,22,o),
(328,66,c),
(329,66,l),
(330,28,o),
(346,-5,o),
(401,-5,cs)
);
},
{
closed = 1;
nodes = (
(85,231,o),
(165,237,o),
(205,240,cs),
(291,247,o),
(332,250,o),
(364,268,c),
(350,197,ls),
(335,121,o),
(282,52,o),
(182,52,cs),
(120,52,o),
(85,88,o),
(85,142,cs)
);
},
{
closed = 1;
nodes = (
(408,601,o),
(435,642,o),
(445,693,c),
(388,693,l),
(384,677,o),
(376,663,o),
(357,663,cs),
(321,663,o),
(299,695,o),
(246,695,cs),
(200,695,o),
(171,660,o),
(158,603,c),
(217,603,l),
(220,621,o),
(230,633,o),
(244,633,cs),
(270,633,o),
(310,601,o),
(357,601,cs)
);
}
);
width = 497;
}
);
note = atilde;
unicode = 227;
},
{
glyphname = aring;
kernLeft = a;
kernRight = a;
layers = (
{
hints = (
{
horizontal = 1;
place = (-5, 21);
target = up;
type = BottomGhost;
},
{
horizontal = 1;
place = (465, 63);
place = (465, 63);
type = Stem;
},
{
horizontal = 1;
place = (559, 35);
place = (559, 35);
type = Stem;
},
{
horizontal = 1;
place = (694, 35);
place = (694, 35);
type = Stem;
},
{
place = (4, 81);
place = (4, 81);
type = Stem;
},
{
place = (205, 40);
place = (205, 40);
type = Stem;
},
{
place = (329, 74);
place = (329, 74);
type = Stem;
},
{
horizontal = 1;
place = (-10, 62);
place = (-10, 62);
type = Stem;
},
{
place = (384, 73);
place = (384, 73);
type = Stem;
},
{
place = (339, 40);
place = (339, 40);
type = Stem;
}
);
layerId = m01;
shapes = (
{
closed = 1;
nodes = (
(420,-5,o),
(432,-1,o),
(442,2,c),
(454,60,l),
(451,60,l),
(403,51,o),
(399,75,o),
(406,113,cs),
(453,352,ls),
(478,481,o),
(384,528,o),
(284,528,cs),
(150,528,o),
(69,464,o),
(51,361,c),
(132,361,l),
(146,437,o),
(194,466,o),
(278,465,cs),
(334,464,o),
(384,449,o),
(384,385,cs),
(384,318,o),
(350,309,o),
(208,301,cs),
(105,295,o),
(4,268,o),
(4,136,cs),
(4,58,o),
(62,-10,o),
(165,-10,cs),
(238,-10,o),
(294,22,o),
(328,66,c),
(329,66,l),
(330,28,o),
(346,-5,o),
(401,-5,cs)
);
},
{
closed = 1;
nodes = (
(85,231,o),
(165,237,o),
(205,240,cs),
(291,247,o),
(332,250,o),
(364,268,c),
(350,197,ls),
(335,121,o),
(282,52,o),
(182,52,cs),
(120,52,o),
(85,88,o),
(85,142,cs)
);
},
{
closed = 1;
nodes = (
(340,559,o),
(379,597,o),
(379,644,cs),
(379,691,o),
(340,729,o),
(292,729,cs),
(244,729,o),
(205,691,o),
(205,644,cs),
(205,597,o),
(244,559,o),
(292,559,cs)
);
},
{
closed = 1;
nodes = (
(264,594,o),
(245,616,o),
(245,644,cs),
(245,672,o),
(264,694,o),
(292,694,cs),
(320,694,o),
(339,672,o),
(339,644,cs),
(339,616,o),
(320,594,o),
(292,594,cs)
);
}
);
width = 497;
}
);
note = aring;
unicode = 229;
},
{
glyphname = ccedilla;
kernLeft = c;
kernRight = c;
layers = (
{
hints = (
{
horizontal = 1;
place = (-191, 43);
place = (-191, 43);
type = Stem;
},
{
horizontal = 1;
place = (-88, 36);
place = (-88, 36);
type = Stem;
},
{
horizontal = 1;
place = (-10, 63);
place = (-10, 63);
type = Stem;
},
{
horizontal = 1;
place = (464, 66);
place = (464, 66);
type = Stem;
},
{
place = (23, 81);
place = (23, 81);
type = Stem;
},
{
place = (226, 64);
place = (226, 64);
type = Stem;
},
{
horizontal = 1;
place = (-160, 21);
target = up;
type = BottomGhost;
},
{
horizontal = 1;
place = (-10, 21);
target = up;
type = BottomGhost;
}
);
layerId = m01;
shapes = (
{
closed = 1;
nodes = (
(242,-191,o),
(290,-164,o),
(290,-109,cs),
(290,-62,o),
(244,-45,o),
(205,-52,c),
(205,-50,l),
(246,-14,l),
(354,-11,o),
(439,59,o),
(468,182,c),
(391,182,l),
(370,100,o),
(313,53,o),
(240,53,cs),
(141,53,o),
(104,121,o),
(104,206,cs),
(104,332,o),
(170,464,o),
(295,464,cs),
(370,464,o),
(404,418,o),
(411,350,c),
(492,350,l),
(482,465,o),
(415,530,o),
(299,530,cs),
(131,530,o),
(23,369,o),
(23,208,cs),
(23,80,o),
(90,6,o),
(193,-10,c),
(139,-72,l),
(151,-95,l),
(163,-91,o),
(173,-88,o),
(191,-88,cs),
(214,-88,o),
(226,-98,o),
(226,-114,cs),
(226,-146,o),
(189,-148,o),
(167,-148,cs),
(142,-148,o),
(115,-141,o),
(95,-131,c),
(78,-160,l),
(101,-176,o),
(132,-191,o),
(184,-191,cs)
);
}
);
width = 503;
}
);
note = ccedilla;
unicode = 231;
},
{
glyphname = eacute;
kernLeft = c;
kernRight = e;
layers = (
{
hints = (
{
horizontal = 1;
place = (-14, 67);
place = (-14, 67);
type = Stem;
},
{
horizontal = 1;
place = (239, 61);
place = (239, 61);
type = Stem;
},
{
horizontal = 1;
place = (467, 63);
place = (467, 63);
type = Stem;
},
{
horizontal = 1;
place = (598, 127);
place = (598, 127);
type = Stem;
},
{
place = (23, 81);
place = (23, 81);
type = Stem;
},
{
place = (414, 82);
place = (414, 82);
type = Stem;
}
);
layerId = m01;
shapes = (
{
closed = 1;
nodes = (
(490,239,l),
(507,350,o),
(487,443,o),
(422,492,cs),
(390,516,o),
(347,530,o),
(292,530,cs),
(140,530,o),
(23,386,o),
(23,211,cs),
(23,70,o),
(119,-14,o),
(239,-14,cs),
(346,-14,o),
(431,44,o),
(471,160,c),
(393,160,l),
(370,92,o),
(314,53,o),
(247,53,cs),
(152,53,o),
(104,118,o),
(104,210,cs),
(104,220,o),
(104,229,o),
(105,239,c)
);
},
{
closed = 1;
nodes = (
(384,467,o),
(424,396,o),
(414,300,c),
(113,300,l),
(136,398,o),
(198,467,o),
(289,467,cs)
);
},
{
closed = 1;
nodes = (
(277,598,l),
(346,598,l),
(438,725,l),
(340,725,l)
);
}
);
width = 515;
}
);
note = eacute;
unicode = 233;
},
{
glyphname = egrave;
kernLeft = c;
kernRight = e;
layers = (
{
hints = (
{
horizontal = 1;
place = (-14, 67);
place = (-14, 67);
type = Stem;
},
{
horizontal = 1;
place = (239, 61);
place = (239, 61);
type = Stem;
},
{
horizontal = 1;
place = (467, 63);
place = (467, 63);
type = Stem;
},
{
horizontal = 1;
place = (598, 127);
place = (598, 127);
type = Stem;
},
{
place = (23, 81);
place = (23, 81);
type = Stem;
},
{
place = (414, 82);
place = (414, 82);
type = Stem;
}
);
layerId = m01;
shapes = (
{
closed = 1;
nodes = (
(490,239,l),
(507,350,o),
(487,443,o),
(422,492,cs),
(390,516,o),
(347,530,o),
(292,530,cs),
(140,530,o),
(23,386,o),
(23,211,cs),
(23,70,o),
(119,-14,o),
(239,-14,cs),
(346,-14,o),
(431,44,o),
(471,160,c),
(393,160,l),
(370,92,o),
(314,53,o),
(247,53,cs),
(152,53,o),
(104,118,o),
(104,210,cs),
(104,220,o),
(104,229,o),
(105,239,c)
);
},
{
closed = 1;
nodes = (
(384,467,o),
(424,396,o),
(414,300,c),
(113,300,l),
(136,398,o),
(198,467,o),
(289,467,cs)
);
},
{
closed = 1;
nodes = (
(278,598,l),
(345,598,l),
(303,725,l),
(208,725,l)
);
}
);
width = 515;
}
);
note = egrave;
unicode = 232;
},
{
glyphname = ecircumflex;
kernLeft = c;
kernRight = e;
layers = (
{
hints = (
{
horizontal = 1;
place = (-14, 67);
place = (-14, 67);
type = Stem;
},
{
horizontal = 1;
place = (239, 61);
place = (239, 61);
type = Stem;
},
{
horizontal = 1;
place = (467, 63);
place = (467, 63);
type = Stem;
},
{
horizontal = 1;
place = (602, 106);
place = (602, 106);
type = Stem;
},
{
place = (23, 81);
place = (23, 81);
type = Stem;
},
{
place = (414, 82);
place = (414, 82);
type = Stem;
}
);
layerId = m01;
shapes = (
{
closed = 1;
nodes = (
(490,239,l),
(507,350,o),
(487,443,o),
(422,492,cs),
(390,516,o),
(347,530,o),
(292,530,cs),
(140,530,o),
(23,386,o),
(23,211,cs),
(23,70,o),
(119,-14,o),
(239,-14,cs),
(346,-14,o),
(431,44,o),
(471,160,c),
(393,160,l),
(370,92,o),
(314,53,o),
(247,53,cs),
(152,53,o),
(104,118,o),
(104,210,cs),
(104,220,o),
(104,229,o),
(105,239,c)
);
},
{
closed = 1;
nodes = (
(384,467,o),
(424,396,o),
(414,300,c),
(113,300,l),
(136,398,o),
(198,467,o),
(289,467,cs)
);
},
{
closed = 1;
nodes = (
(167,602,l),
(255,602,l),
(311,665,l),
(313,665,l),
(355,602,l),
(437,602,l),
(363,708,l),
(273,708,l)
);
}
);
width = 515;
}
);
note = ecircumflex;
unicode = 234;
},
{
glyphname = edieresis;
kernLeft = c;
kernRight = e;
layers = (
{
hints = (
{
horizontal = 1;
place = (-14, 67);
place = (-14, 67);
type = Stem;
},
{
horizontal = 1;
place = (239, 61);
place = (239, 61);
type = Stem;
},
{
horizontal = 1;
place = (467, 63);
place = (467, 63);
type = Stem;
},
{
horizontal = 1;
place = (615, 95);
place = (615, 95);
type = Stem;
},
{
place = (23, 81);
place = (23, 81);
type = Stem;
},
{
place = (414, 82);
place = (414, 82);
type = Stem;
}
);
layerId = m01;
shapes = (
{
closed = 1;
nodes = (
(490,239,l),
(507,350,o),
(487,443,o),
(422,492,cs),
(390,516,o),
(347,530,o),
(292,530,cs),
(140,530,o),
(23,386,o),
(23,211,cs),
(23,70,o),
(119,-14,o),
(239,-14,cs),
(346,-14,o),
(431,44,o),
(471,160,c),
(393,160,l),
(370,92,o),
(314,53,o),
(247,53,cs),
(152,53,o),
(104,118,o),
(104,210,cs),
(104,220,o),
(104,229,o),
(105,239,c)
);
},
{
closed = 1;
nodes = (
(384,467,o),
(424,396,o),
(414,300,c),
(113,300,l),
(136,398,o),
(198,467,o),
(289,467,cs)
);
},
{
closed = 1;
nodes = (
(351,615,l),
(428,615,l),
(447,710,l),
(370,710,l)
);
},
{
closed = 1;
nodes = (
(190,615,l),
(267,615,l),
(286,710,l),
(209,710,l)
);
}
);
width = 515;
}
);
note = edieresis;
unicode = 235;
},
{
glyphname = iacute;
kernLeft = b;
layers = (
{
hints = (
{
horizontal = 1;
place = (0, 21);
target = up;
type = BottomGhost;
},
{
horizontal = 1;
place = (517, -20);
target = down;
type = TopGhost;
},
{
horizontal = 1;
place = (598, 127);
place = (598, 127);
type = Stem;
},
{
place = (4, 269);
place = (4, 269);
type = Stem;
}
);
layerId = m01;
shapes = (
{
closed = 1;
nodes = (
(124,598,l),
(193,598,l),
(273,725,l),
(177,725,l)
);
},
{
closed = 1;
nodes = (
(4,0,l),
(84,0,l),
(184,517,l),
(104,517,l)
);
}
);
width = 188;
}
);
note = iacute;
unicode = 237;
},
{
glyphname = igrave;
kernLeft = b;
layers = (
{
hints = (
{
horizontal = 1;
place = (0, 21);
target = up;
type = BottomGhost;
},
{
horizontal = 1;
place = (517, -20);
target = down;
type = TopGhost;
},
{
horizontal = 1;
place = (598, 127);
place = (598, 127);
type = Stem;
},
{
place = (4, 186);
place = (4, 186);
type = Stem;
}
);
layerId = m01;
shapes = (
{
closed = 1;
nodes = (
(123,598,l),
(190,598,l),
(167,725,l),
(72,725,l)
);
},
{
closed = 1;
nodes = (
(4,0,l),
(84,0,l),
(184,517,l),
(104,517,l)
);
}
);
width = 188;
}
);
note = igrave;
unicode = 236;
},
{
glyphname = icircumflex;
kernLeft = b;
layers = (
{
hints = (
{
horizontal = 1;
place = (0, 21);
target = up;
type = BottomGhost;
},
{
horizontal = 1;
place = (517, -20);
target = down;
type = TopGhost;
},
{
horizontal = 1;
place = (602, 106);
place = (602, 106);
type = Stem;
},
{
place = (4, 274);
place = (4, 274);
type = Stem;
}
);
layerId = m01;
shapes = (
{
closed = 1;
nodes = (
(34,602,l),
(120,602,l),
(167,665,l),
(169,665,l),
(198,602,l),
(278,602,l),
(218,708,l),
(128,708,l)
);
},
{
closed = 1;
nodes = (
(4,0,l),
(84,0,l),
(184,517,l),
(104,517,l)
);
}
);
width = 188;
}
);
note = icircumflex;
unicode = 238;
},
{
glyphname = idieresis;
kernLeft = b;
layers = (
{
hints = (
{
horizontal = 1;
place = (0, 21);
target = up;
type = BottomGhost;
},
{
horizontal = 1;
place = (517, -20);
target = down;
type = TopGhost;
},
{
horizontal = 1;
place = (615, 95);
place = (615, 95);
type = Stem;
},
{
place = (4, 283);
place = (4, 283);
type = Stem;
}
);
layerId = m01;
shapes = (
{
closed = 1;
nodes = (
(191,615,l),
(268,615,l),
(287,710,l),
(210,710,l)
);
},
{
closed = 1;
nodes = (
(57,615,l),
(134,615,l),
(153,710,l),
(76,710,l)
);
},
{
closed = 1;
nodes = (
(4,0,l),
(84,0,l),
(184,517,l),
(104,517,l)
);
}
);
width = 188;
}
);
note = idieresis;
unicode = 239;
},
{
glyphname = ntilde;
kernLeft = m;
kernRight = h;
layers = (
{
hints = (
{
horizontal = 1;
place = (0, 21);
target = up;
type = BottomGhost;
},
{
horizontal = 1;
place = (517, -20);
target = down;
type = TopGhost;
},
{
horizontal = 1;
place = (633, 62);
place = (633, 62);
type = Stem;
},
{
place = (411, 80);
place = (411, 80);
type = Stem;
},
{
horizontal = 1;
place = (462, 67);
place = (462, 67);
type = Stem;
},
{
horizontal = 1;
place = (601, 92);
place = (601, 92);
type = Stem;
},
{
horizontal = 1;
place = (601, 62);
place = (601, 62);
type = Stem;
},
{
horizontal = 1;
place = (603, 92);
place = (603, 92);
type = Stem;
}
);
layerId = m01;
shapes = (
{
closed = 1;
nodes = (
(184,517,l),
(104,517,l),
(4,0,l),
(84,0,l),
(140,290,ls),
(158,382,o),
(245,462,o),
(340,462,cs),
(402,462,o),
(420,429,o),
(408,365,cs),
(337,0,l),
(416,0,l),
(487,365,ls),
(506,466,o),
(463,529,o),
(361,529,cs),
(284,529,o),
(214,493,o),
(171,437,c),
(169,437,l)
);
},
{
closed = 1;
nodes = (
(434,601,o),
(461,642,o),
(471,693,c),
(414,693,l),
(410,677,o),
(402,663,o),
(383,663,cs),
(347,663,o),
(325,695,o),
(272,695,cs),
(226,695,o),
(197,660,o),
(184,603,c),
(243,603,l),
(246,621,o),
(256,633,o),
(270,633,cs),
(296,633,o),
(336,601,o),
(383,601,cs)
);
}
);
width = 516;
}
);
note = ntilde;
unicode = 241;
},
{
glyphname = oacute;
kernLeft = c;
kernRight = o;
layers = (
{
hints = (
{
horizontal = 1;
place = (-14, 67);
place = (-14, 67);
type = Stem;
},
{
horizontal = 1;
place = (464, 66);
place = (464, 66);
type = Stem;
},
{
horizontal = 1;
place = (598, 127);
place = (598, 127);
type = Stem;
},
{
place = (23, 80);
place = (23, 80);
type = Stem;
},
{
place = (432, 81);
place = (432, 81);
type = Stem;
}
);
layerId = m01;
shapes = (
{
closed = 1;
nodes = (
(417,-14,o),
(513,138,o),
(513,302,cs),
(513,443,o),
(421,530,o),
(296,530,cs),
(126,530,o),
(23,380,o),
(23,212,cs),
(23,67,o),
(118,-14,o),
(241,-14,cs)
);
},
{
closed = 1;
nodes = (
(103,341,o),
(167,464,o),
(294,464,cs),
(390,464,o),
(432,388,o),
(432,302,cs),
(432,170,o),
(367,53,o),
(244,53,cs),
(150,53,o),
(103,122,o),
(103,213,cs)
);
},
{
closed = 1;
nodes = (
(277,598,l),
(346,598,l),
(438,725,l),
(340,725,l)
);
}
);
width = 536;
}
);
note = oacute;
unicode = 243;
},
{
glyphname = ograve;
kernLeft = c;
kernRight = o;
layers = (
{
hints = (
{
horizontal = 1;
place = (-14, 67);
place = (-14, 67);
type = Stem;
},
{
horizontal = 1;
place = (464, 66);
place = (464, 66);
type = Stem;
},
{
horizontal = 1;
place = (598, 127);
place = (598, 127);
type = Stem;
},
{
place = (23, 80);
place = (23, 80);
type = Stem;
},
{
place = (432, 81);
place = (432, 81);
type = Stem;
}
);
layerId = m01;
shapes = (
{
closed = 1;
nodes = (
(417,-14,o),
(513,138,o),
(513,302,cs),
(513,443,o),
(421,530,o),
(296,530,cs),
(126,530,o),
(23,380,o),
(23,212,cs),
(23,67,o),
(118,-14,o),
(241,-14,cs)
);
},
{
closed = 1;
nodes = (
(103,341,o),
(167,464,o),
(294,464,cs),
(390,464,o),
(432,388,o),
(432,302,cs),
(432,170,o),
(367,53,o),
(244,53,cs),
(150,53,o),
(103,122,o),
(103,213,cs)
);
},
{
closed = 1;
nodes = (
(278,598,l),
(345,598,l),
(303,725,l),
(208,725,l)
);
}
);
width = 536;
}
);
note = ograve;
unicode = 242;
},
{
glyphname = ocircumflex;
kernLeft = c;
kernRight = o;
layers = (
{
hints = (
{
horizontal = 1;
place = (-14, 67);
place = (-14, 67);
type = Stem;
},
{
horizontal = 1;
place = (464, 66);
place = (464, 66);
type = Stem;
},
{
horizontal = 1;
place = (602, 106);
place = (602, 106);
type = Stem;
},
{
place = (23, 80);
place = (23, 80);
type = Stem;
},
{
place = (432, 81);
place = (432, 81);
type = Stem;
}
);
layerId = m01;
shapes = (
{
closed = 1;
nodes = (
(417,-14,o),
(513,138,o),
(513,302,cs),
(513,443,o),
(421,530,o),
(296,530,cs),
(126,530,o),
(23,380,o),
(23,212,cs),
(23,67,o),
(118,-14,o),
(241,-14,cs)
);
},
{
closed = 1;
nodes = (
(103,341,o),
(167,464,o),
(294,464,cs),
(390,464,o),
(432,388,o),
(432,302,cs),
(432,170,o),
(367,53,o),
(244,53,cs),
(150,53,o),
(103,122,o),
(103,213,cs)
);
},
{
closed = 1;
nodes = (
(175,602,l),
(263,602,l),
(319,665,l),
(321,665,l),
(363,602,l),
(445,602,l),
(371,708,l),
(281,708,l)
);
}
);
width = 536;
}
);
note = ocircumflex;
unicode = 244;
},
{
glyphname = odieresis;
kernLeft = c;
kernRight = o;
layers = (
{
hints = (
{
horizontal = 1;
place = (-14, 67);
place = (-14, 67);
type = Stem;
},
{
horizontal = 1;
place = (464, 66);
place = (464, 66);
type = Stem;
},
{
horizontal = 1;
place = (615, 95);
place = (615, 95);
type = Stem;
},
{
place = (23, 80);
place = (23, 80);
type = Stem;
},
{
place = (432, 81);
place = (432, 81);
type = Stem;
}
);
layerId = m01;
shapes = (
{
closed = 1;
nodes = (
(417,-14,o),
(513,138,o),
(513,302,cs),
(513,443,o),
(421,530,o),
(296,530,cs),
(126,530,o),
(23,380,o),
(23,212,cs),
(23,67,o),
(118,-14,o),
(241,-14,cs)
);
},
{
closed = 1;
nodes = (
(103,341,o),
(167,464,o),
(294,464,cs),
(390,464,o),
(432,388,o),
(432,302,cs),
(432,170,o),
(367,53,o),
(244,53,cs),
(150,53,o),
(103,122,o),
(103,213,cs)
);
},
{
closed = 1;
nodes = (
(355,615,l),
(432,615,l),
(451,710,l),
(374,710,l)
);
},
{
closed = 1;
nodes = (
(194,615,l),
(271,615,l),
(290,710,l),
(213,710,l)
);
}
);
width = 536;
}
);
note = odieresis;
unicode = 246;
},
{
glyphname = otilde;
kernLeft = c;
kernRight = o;
layers = (
{
hints = (
{
horizontal = 1;
place = (-14, 67);
place = (-14, 67);
type = Stem;
},
{
horizontal = 1;
place = (464, 66);
place = (464, 66);
type = Stem;
},
{
horizontal = 1;
place = (633, 62);
place = (633, 62);
type = Stem;
},
{
place = (23, 80);
place = (23, 80);
type = Stem;
},
{
place = (432, 81);
place = (432, 81);
type = Stem;
},
{
horizontal = 1;
place = (601, 92);
place = (601, 92);
type = Stem;
},
{
horizontal = 1;
place = (601, 62);
place = (601, 62);
type = Stem;
},
{
horizontal = 1;
place = (603, 92);
place = (603, 92);
type = Stem;
}
);
layerId = m01;
shapes = (
{
closed = 1;
nodes = (
(417,-14,o),
(513,138,o),
(513,302,cs),
(513,443,o),
(421,530,o),
(296,530,cs),
(126,530,o),
(23,380,o),
(23,212,cs),
(23,67,o),
(118,-14,o),
(241,-14,cs)
);
},
{
closed = 1;
nodes = (
(103,341,o),
(167,464,o),
(294,464,cs),
(390,464,o),
(432,388,o),
(432,302,cs),
(432,170,o),
(367,53,o),
(244,53,cs),
(150,53,o),
(103,122,o),
(103,213,cs)
);
},
{
closed = 1;
nodes = (
(424,601,o),
(451,642,o),
(461,693,c),
(404,693,l),
(400,677,o),
(392,663,o),
(373,663,cs),
(337,663,o),
(315,695,o),
(262,695,cs),
(216,695,o),
(187,660,o),
(174,603,c),
(233,603,l),
(236,621,o),
(246,633,o),
(260,633,cs),
(286,633,o),
(326,601,o),
(373,601,cs)
);
}
);
width = 536;
}
);
note = otilde;
unicode = 245;
},
{
glyphname = uacute;
kernLeft = u;
kernRight = u;
layers = (
{
hints = (
{
horizontal = 1;
place = (0, 21);
target = up;
type = BottomGhost;
},
{
horizontal = 1;
place = (517, -20);
target = down;
type = TopGhost;
},
{
horizontal = 1;
place = (598, 127);
place = (598, 127);
type = Stem;
},
{
place = (24, 79);
place = (24, 79);
type = Stem;
},
{
horizontal = 1;
place = (-12, 67);
place = (-12, 67);
type = Stem;
}
);
layerId = m01;
shapes = (
{
closed = 1;
nodes = (
(320,0,l),
(400,0,l),
(500,517,l),
(420,517,l),
(364,228,ls),
(345,132,o),
(268,55,o),
(176,55,cs),
(113,55,o),
(93,87,o),
(107,158,cs),
(177,517,l),
(98,517,l),
(28,157,ls),
(8,52,o),
(56,-12,o),
(157,-12,cs),
(233,-12,o),
(289,22,o),
(331,72,c),
(333,72,l)
);
},
{
closed = 1;
nodes = (
(275,598,l),
(344,598,l),
(436,725,l),
(338,725,l)
);
}
);
width = 504;
}
);
note = uacute;
unicode = 250;
},
{
glyphname = ugrave;
kernLeft = u;
kernRight = u;
layers = (
{
hints = (
{
horizontal = 1;
place = (0, 21);
target = up;
type = BottomGhost;
},
{
horizontal = 1;
place = (517, -20);
target = down;
type = TopGhost;
},
{
horizontal = 1;
place = (598, 127);
place = (598, 127);
type = Stem;
},
{
place = (24, 79);
place = (24, 79);
type = Stem;
},
{
horizontal = 1;
place = (-12, 67);
place = (-12, 67);
type = Stem;
}
);
layerId = m01;
shapes = (
{
closed = 1;
nodes = (
(320,0,l),
(400,0,l),
(500,517,l),
(420,517,l),
(364,228,ls),
(345,132,o),
(268,55,o),
(176,55,cs),
(113,55,o),
(93,87,o),
(107,158,cs),
(177,517,l),
(98,517,l),
(28,157,ls),
(8,52,o),
(56,-12,o),
(157,-12,cs),
(233,-12,o),
(289,22,o),
(331,72,c),
(333,72,l)
);
},
{
closed = 1;
nodes = (
(278,598,l),
(345,598,l),
(303,725,l),
(208,725,l)
);
}
);
width = 504;
}
);
note = ugrave;
unicode = 249;
},
{
glyphname = ucircumflex;
kernLeft = u;
kernRight = u;
layers = (
{
hints = (
{
horizontal = 1;
place = (0, 21);
target = up;
type = BottomGhost;
},
{
horizontal = 1;
place = (517, -20);
target = down;
type = TopGhost;
},
{
horizontal = 1;
place = (602, 106);
place = (602, 106);
type = Stem;
},
{
place = (24, 79);
place = (24, 79);
type = Stem;
},
{
horizontal = 1;
place = (-12, 67);
place = (-12, 67);
type = Stem;
}
);
layerId = m01;
shapes = (
{
closed = 1;
nodes = (
(320,0,l),
(400,0,l),
(500,517,l),
(420,517,l),
(364,228,ls),
(345,132,o),
(268,55,o),
(176,55,cs),
(113,55,o),
(93,87,o),
(107,158,cs),
(177,517,l),
(98,517,l),
(28,157,ls),
(8,52,o),
(56,-12,o),
(157,-12,cs),
(233,-12,o),
(289,22,o),
(331,72,c),
(333,72,l)
);
},
{
closed = 1;
nodes = (
(176,602,l),
(264,602,l),
(320,665,l),
(322,665,l),
(364,602,l),
(446,602,l),
(372,708,l),
(282,708,l)
);
}
);
width = 504;
}
);
note = ucircumflex;
unicode = 251;
},
{
glyphname = udieresis;
kernLeft = u;
kernRight = u;
layers = (
{
hints = (
{
horizontal = 1;
place = (0, 21);
target = up;
type = BottomGhost;
},
{
horizontal = 1;
place = (517, -20);
target = down;
type = TopGhost;
},
{
horizontal = 1;
place = (615, 95);
place = (615, 95);
type = Stem;
},
{
place = (24, 79);
place = (24, 79);
type = Stem;
},
{
horizontal = 1;
place = (-12, 67);
place = (-12, 67);
type = Stem;
}
);
layerId = m01;
shapes = (
{
closed = 1;
nodes = (
(320,0,l),
(400,0,l),
(500,517,l),
(420,517,l),
(364,228,ls),
(345,132,o),
(268,55,o),
(176,55,cs),
(113,55,o),
(93,87,o),
(107,158,cs),
(177,517,l),
(98,517,l),
(28,157,ls),
(8,52,o),
(56,-12,o),
(157,-12,cs),
(233,-12,o),
(289,22,o),
(331,72,c),
(333,72,l)
);
},
{
closed = 1;
nodes = (
(355,615,l),
(432,615,l),
(451,710,l),
(374,710,l)
);
},
{
closed = 1;
nodes = (
(194,615,l),
(271,615,l),
(290,710,l),
(213,710,l)
);
}
);
width = 504;
}
);
note = udieresis;
unicode = 252;
},
{
glyphname = dagger;
layers = (
{
hints = (
{
horizontal = 1;
place = (457, 72);
place = (457, 72);
type = Stem;
},
{
horizontal = 1;
place = (715, -20);
target = down;
type = TopGhost;
},
{
place = (71, 485);
place = (71, 485);
type = Stem;
}
);
layerId = m01;
shapes = (
{
closed = 1;
nodes = (
(71,457,l),
(266,457,l),
(157,-104,l),
(238,-104,l),
(347,457,l),
(542,457,l),
(556,529,l),
(361,529,l),
(397,715,l),
(316,715,l),
(280,529,l),
(85,529,l)
);
}
);
width = 537;
}
);
note = dagger;
unicode = 8224;
},
{
glyphname = degree;
layers = (
{
hints = (
{
horizontal = 1;
place = (455, 47);
place = (455, 47);
type = Stem;
},
{
horizontal = 1;
place = (654, 47);
place = (654, 47);
type = Stem;
},
{
place = (93, 55);
place = (93, 55);
type = Stem;
},
{
place = (288, 55);
place = (288, 55);
type = Stem;
}
);
layerId = m01;
shapes = (
{
closed = 1;
nodes = (
(288,455,o),
(343,510,o),
(343,578,cs),
(343,646,o),
(288,701,o),
(218,701,cs),
(149,701,o),
(93,646,o),
(93,578,cs),
(93,510,o),
(149,455,o),
(218,455,cs)
);
},
{
closed = 1;
nodes = (
(176,502,o),
(148,534,o),
(148,578,cs),
(148,621,o),
(176,654,o),
(218,654,cs),
(261,654,o),
(288,621,o),
(288,578,cs),
(288,534,o),
(261,502,o),
(218,502,cs)
);
}
);
width = 313;
}
);
note = degree;
unicode = 176;
},
{
glyphname = cent;
layers = (
{
hints = (
{
horizontal = 1;
place = (-85, 139);
place = (-85, 139);
type = Stem;
},
{
place = (23, 81);
place = (23, 81);
type = Stem;
},
{
place = (411, 81);
place = (411, 81);
type = Stem;
},
{
horizontal = 1;
place = (-9, 21);
target = up;
type = BottomGhost;
}
);
layerId = m01;
shapes = (
{
closed = 1;
nodes = (
(172,-85,l),
(227,-85,l),
(241,-14,l),
(351,-13,o),
(439,57,o),
(468,182,c),
(391,182,l),
(371,105,o),
(320,59,o),
(254,54,c),
(332,459,l),
(381,446,o),
(405,405,o),
(411,350,c),
(492,350,l),
(483,448,o),
(433,510,o),
(345,526,c),
(358,591,l),
(303,591,l),
(291,529,l),
(127,524,o),
(23,366,o),
(23,208,cs),
(23,83,o),
(87,9,o),
(186,-9,c)
);
},
{
closed = 1;
nodes = (
(104,326,o),
(164,451,o),
(278,463,c),
(199,57,l),
(130,74,o),
(104,133,o),
(104,206,cs)
);
}
);
width = 503;
}
);
note = cent;
unicode = 162;
},
{
glyphname = sterling;
layers = (
{
hints = (
{
horizontal = 1;
place = (-12, 73);
place = (-12, 73);
type = Stem;
},
{
horizontal = 1;
place = (302, 63);
place = (302, 63);
type = Stem;
},
{
horizontal = 1;
place = (631, 69);
place = (631, 69);
type = Stem;
},
{
place = (129, 80);
place = (129, 80);
type = Stem;
},
{
place = (455, 82);
place = (455, 82);
type = Stem;
},
{
horizontal = 1;
place = (-1, 21);
target = up;
type = BottomGhost;
},
{
horizontal = 1;
place = (42, 59);
place = (42, 59);
type = Stem;
},
{
place = (101, 86);
place = (101, 86);
type = Stem;
}
);
layerId = m01;
shapes = (
{
closed = 1;
nodes = (
(55,365,l),
(43,302,l),
(126,302,l),
(127,288,o),
(129,274,o),
(129,259,cs),
(129,163,o),
(58,108,o),
(-7,67,c),
(27,-1,l),
(57,16,o),
(96,42,o),
(134,42,cs),
(211,42,o),
(242,-12,o),
(343,-12,cs),
(398,-12,o),
(446,6,o),
(490,37,c),
(453,99,l),
(422,77,o),
(390,61,o),
(354,61,cs),
(286,61,o),
(256,101,o),
(176,101,cs),
(151,101,o),
(126,95,o),
(108,89,c),
(107,91,l),
(175,141,o),
(209,196,o),
(209,273,cs),
(209,282,o),
(208,292,o),
(208,302,c),
(332,302,l),
(344,365,l),
(200,365,l),
(194,403,o),
(187,440,o),
(187,474,cs),
(187,576,o),
(242,631,o),
(328,631,cs),
(430,631,o),
(460,562,o),
(455,471,c),
(537,471,l),
(543,613,o),
(473,700,o),
(330,700,cs),
(199,700,o),
(101,612,o),
(101,474,cs),
(101,435,o),
(108,399,o),
(115,365,c)
);
}
);
width = 532;
}
);
note = sterling;
unicode = 163;
},
{
glyphname = section;
layers = (
{
hints = (
{
horizontal = 1;
place = (-186, 71);
place = (-186, 71);
type = Stem;
},
{
horizontal = 1;
place = (630, 71);
place = (630, 71);
type = Stem;
},
{
place = (42, 80);
place = (42, 80);
type = Stem;
},
{
place = (164, 84);
place = (164, 84);
type = Stem;
},
{
place = (329, 82);
place = (329, 82);
type = Stem;
},
{
place = (451, 81);
place = (451, 81);
type = Stem;
},
{
place = (25, 82);
place = (25, 82);
type = Stem;
},
{
place = (454, 82);
place = (454, 82);
type = Stem;
}
);
layerId = m01;
shapes = (
{
closed = 1;
nodes = (
(42,240,o),
(97,190,o),
(187,122,cs),
(282,51,o),
(329,14,o),
(329,-37,cs),
(329,-92,o),
(280,-115,o),
(231,-115,cs),
(142,-115,o),
(111,-59,o),
(107,11,c),
(25,11,l),
(25,-113,o),
(109,-186,o),
(230,-186,cs),
(320,-186,o),
(411,-132,o),
(411,-33,cs),
(411,-5,o),
(403,20,o),
(388,44,c),
(468,62,o),
(532,105,o),
(532,195,cs),
(532,283,o),
(457,346,o),
(365,411,cs),
(285,467,o),
(248,501,o),
(248,546,cs),
(248,609,o),
(300,630,o),
(345,630,cs),
(432,630,o),
(453,573,o),
(454,517,c),
(536,517,l),
(536,636,o),
(464,701,o),
(350,701,cs),
(253,701,o),
(164,642,o),
(164,540,cs),
(164,514,o),
(171,491,o),
(184,469,c),
(97,449,o),
(42,405,o),
(42,319,cs)
);
},
{
closed = 1;
nodes = (
(153,253,o),
(122,284,o),
(122,331,cs),
(122,388,o),
(170,416,o),
(217,426,c),
(243,397,o),
(278,370,o),
(315,344,cs),
(407,278,o),
(451,236,o),
(451,186,cs),
(451,128,o),
(399,101,o),
(353,90,c),
(322,122,o),
(282,154,o),
(236,190,cs)
);
}
);
width = 573;
}
);
note = section;
unicode = 167;
},
{
glyphname = bullet;
layers = (
{
hints = (
{
horizontal = 1;
place = (207, 237);
place = (207, 237);
type = Stem;
},
{
place = (45, 237);
place = (45, 237);
type = Stem;
}
);
layerId = m01;
shapes = (
{
closed = 1;
nodes = (
(229,207,o),
(282,260,o),
(282,325,cs),
(282,390,o),
(229,444,o),
(164,444,cs),
(98,444,o),
(45,390,o),
(45,325,cs),
(45,260,o),
(98,207,o),
(164,207,cs)
);
}
);
width = 300;
}
);
note = bullet;
unicode = 8226;
},
{
glyphname = paragraph;
layers = (
{
hints = (
{
horizontal = 1;
place = (0, 21);
target = up;
type = BottomGhost;
},
{
horizontal = 1;
place = (638, 77);
place = (638, 77);
type = Stem;
},
{
place = (80, 477);
place = (80, 477);
type = Stem;
}
);
layerId = m01;
shapes = (
{
closed = 1;
nodes = (
(274,353,l),
(206,0,l),
(279,0,l),
(402,638,l),
(469,638,l),
(346,0,l),
(419,0,l),
(557,715,l),
(297,715,ls),
(232,715,o),
(184,698,o),
(148,668,cs),
(104,631,o),
(80,577,o),
(80,516,cs),
(81,418,o),
(146,353,o),
(264,353,cs)
);
}
);
width = 535;
}
);
note = paragraph;
unicode = 182;
},
{
glyphname = germandbls;
kernLeft = germandbls;
kernRight = germandbls;
layers = (
{
hints = (
{
horizontal = 1;
place = (-11, 66);
place = (-11, 66);
type = Stem;
},
{
horizontal = 1;
place = (367, 61);
place = (367, 61);
type = Stem;
},
{
horizontal = 1;
place = (659, 64);
place = (659, 64);
type = Stem;
},
{
place = (381, 82);
place = (381, 82);
type = Stem;
},
{
horizontal = 1;
place = (0, 21);
target = up;
type = BottomGhost;
},
{
place = (405, 78);
place = (405, 78);
type = Stem;
}
);
layerId = m01;
shapes = (
{
closed = 1;
nodes = (
(378,-11,o),
(463,84,o),
(463,227,cs),
(463,308,o),
(421,371,o),
(362,395,c),
(362,397,l),
(432,422,o),
(483,478,o),
(483,562,cs),
(483,670,o),
(403,723,o),
(315,723,cs),
(202,723,o),
(130,651,o),
(111,553,cs),
(4,0,l),
(84,0,l),
(189,544,ls),
(202,611,o),
(239,659,o),
(309,659,cs),
(373,659,o),
(405,618,o),
(405,558,cs),
(405,470,o),
(343,428,o),
(264,428,cs),
(241,428,l),
(229,367,l),
(242,367,ls),
(338,367,o),
(381,304,o),
(381,229,cs),
(381,125,o),
(329,55,o),
(231,55,cs),
(209,55,o),
(187,57,o),
(164,64,c),
(162,64,l),
(149,0,l),
(175,-8,o),
(203,-11,o),
(229,-11,cs)
);
}
);
width = 495;
}
);
note = germandbls;
unicode = 223;
},
{
glyphname = registered;
layers = (
{
hints = (
{
horizontal = 1;
place = (244, 35);
place = (244, 35);
type = Stem;
},
{
horizontal = 1;
place = (464, 39);
place = (464, 39);
type = Stem;
},
{
horizontal = 1;
place = (575, 42);
place = (575, 42);
type = Stem;
},
{
horizontal = 1;
place = (693, 35);
place = (693, 35);
type = Stem;
},
{
place = (67, 41);
place = (67, 41);
type = Stem;
},
{
place = (212, 51);
place = (212, 51);
type = Stem;
},
{
place = (354, 60);
place = (354, 60);
type = Stem;
},
{
place = (502, 41);
place = (502, 41);
type = Stem;
},
{
place = (361, 50);
place = (361, 50);
type = Stem;
}
);
layerId = m01;
shapes = (
{
closed = 1;
nodes = (
(436,244,o),
(543,346,o),
(543,486,cs),
(543,625,o),
(436,728,o),
(305,728,cs),
(174,728,o),
(67,625,o),
(67,486,cs),
(67,346,o),
(174,244,o),
(305,244,cs)
);
},
{
closed = 1;
nodes = (
(191,279,o),
(108,366,o),
(108,486,cs),
(108,605,o),
(191,693,o),
(305,693,cs),
(419,693,o),
(502,605,o),
(502,486,cs),
(502,366,o),
(419,279,o),
(305,279,cs)
);
},
{
closed = 1;
nodes = (
(212,361,l),
(263,361,l),
(263,464,l),
(305,464,ls),
(337,464,o),
(353,447,o),
(354,420,cs),
(355,393,o),
(358,364,o),
(365,361,c),
(414,361,l),
(414,364,l),
(405,368,o),
(407,395,o),
(403,431,cs),
(400,462,o),
(388,476,o),
(363,483,c),
(363,484,l),
(396,492,o),
(411,516,o),
(411,545,cs),
(411,587,o),
(377,617,o),
(330,617,cs),
(212,617,l)
);
},
{
closed = 1;
nodes = (
(263,575,l),
(319,575,ls),
(347,575,o),
(361,560,o),
(361,539,cs),
(361,518,o),
(347,503,o),
(319,503,cs),
(263,503,l)
);
}
);
width = 520;
}
);
note = registered;
unicode = 174;
},
{
glyphname = copyright;
kernLeft = copyright;
kernRight = copyright;
layers = (
{
hints = (
{
horizontal = 1;
place = (-17, 39);
place = (-17, 39);
type = Stem;
},
{
horizontal = 1;
place = (127, 64);
place = (127, 64);
type = Stem;
},
{
horizontal = 1;
place = (524, 64);
place = (524, 64);
type = Stem;
},
{
horizontal = 1;
place = (689, 39);
place = (689, 39);
type = Stem;
},
{
place = (52, 46);
place = (52, 46);
type = Stem;
},
{
place = (210, 78);
place = (210, 78);
type = Stem;
},
{
place = (738, 46);
place = (738, 46);
type = Stem;
}
);
layerId = m01;
shapes = (
{
closed = 1;
nodes = (
(624,-17,o),
(784,141,o),
(784,355,cs),
(784,569,o),
(624,728,o),
(418,728,cs),
(212,728,o),
(52,569,o),
(52,355,cs),
(52,141,o),
(212,-17,o),
(418,-17,cs)
);
},
{
closed = 1;
nodes = (
(235,22,o),
(98,163,o),
(98,355,cs),
(98,547,o),
(235,689,o),
(418,689,cs),
(601,689,o),
(738,547,o),
(738,355,cs),
(738,163,o),
(601,22,o),
(418,22,cs)
);
},
{
closed = 1;
nodes = (
(481,127,o),
(524,145,o),
(555,174,cs),
(586,203,o),
(604,246,o),
(605,287,c),
(531,287,l),
(525,233,o),
(487,191,o),
(421,191,cs),
(340,191,o),
(288,259,o),
(288,356,cs),
(288,451,o),
(333,524,o),
(421,524,cs),
(481,524,o),
(518,491,o),
(527,442,c),
(603,442,l),
(592,523,o),
(528,588,o),
(422,588,cs),
(290,588,o),
(210,488,o),
(210,356,cs),
(210,223,o),
(296,127,o),
(421,127,cs)
);
}
);
width = 799;
}
);
note = copyright;
unicode = 169;
},
{
glyphname = trademark;
layers = (
{
hints = (
{
horizontal = 1;
place = (429, 68);
place = (429, 68);
type = Stem;
},
{
horizontal = 1;
place = (668, 47);
place = (668, 47);
type = Stem;
},
{
place = (445, 46);
place = (445, 46);
type = Stem;
}
);
layerId = m01;
shapes = (
{
closed = 1;
nodes = (
(338,429,l),
(388,429,l),
(430,650,l),
(432,650,l),
(432,650,o),
(434,602,o),
(438,567,cs),
(452,429,l),
(504,429,l),
(572,567,ls),
(591,605,o),
(609,650,o),
(609,650,c),
(611,650,l),
(569,429,l),
(620,429,l),
(675,715,l),
(595,715,l),
(491,497,l),
(490,497,l),
(471,715,l),
(393,715,l)
);
},
{
closed = 1;
nodes = (
(105,668,l),
(194,668,l),
(148,429,l),
(203,429,l),
(249,668,l),
(338,668,l),
(347,715,l),
(114,715,l)
);
}
);
width = 629;
}
);
note = trademark;
unicode = 8482;
},
{
glyphname = acute;
layers = (
{
hints = (
{
horizontal = 1;
place = (598, 127);
place = (598, 127);
type = Stem;
},
{
place = (273, 161);
place = (273, 161);
type = Stem;
}
);
layerId = m01;
shapes = (
{
closed = 1;
nodes = (
(273,598,l),
(342,598,l),
(434,725,l),
(336,725,l)
);
}
);
width = 492;
}
);
note = acute;
unicode = 180;
},
{
glyphname = dieresis;
layers = (
{
hints = (
{
horizontal = 1;
place = (615, 95);
place = (615, 95);
type = Stem;
},
{
place = (196, 257);
place = (196, 257);
type = Stem;
}
);
layerId = m01;
shapes = (
{
closed = 1;
nodes = (
(357,615,l),
(434,615,l),
(453,710,l),
(376,710,l)
);
},
{
closed = 1;
nodes = (
(196,615,l),
(273,615,l),
(292,710,l),
(215,710,l)
);
}
);
width = 492;
}
);
note = dieresis;
unicode = 168;
},
{
glyphname = notequal;
layers = (
{
hints = (
{
horizontal = 1;
place = (194, 63);
place = (194, 63);
type = Stem;
},
{
horizontal = 1;
place = (370, 63);
place = (370, 63);
type = Stem;
},
{
place = (39, 494);
place = (39, 494);
type = Stem;
},
{
horizontal = 1;
place = (370, 159);
place = (370, 159);
type = Stem;
}
);
layerId = m01;
shapes = (
{
closed = 1;
nodes = (
(73,370,l),
(289,370,l),
(221,257,l),
(52,257,l),
(39,194,l),
(183,194,l),
(117,84,l),
(184,84,l),
(250,194,l),
(486,194,l),
(499,257,l),
(288,257,l),
(356,370,l),
(520,370,l),
(533,433,l),
(394,433,l),
(452,529,l),
(385,529,l),
(327,433,l),
(86,433,l)
);
}
);
width = 551;
}
);
note = notequal;
unicode = 8800;
},
{
glyphname = AE;
kernLeft = AE;
kernRight = E;
layers = (
{
hints = (
{
horizontal = 1;
place = (0, 82);
place = (0, 82);
type = Stem;
},
{
horizontal = 1;
place = (219, 72);
place = (219, 72);
type = Stem;
},
{
horizontal = 1;
place = (335, 75);
place = (335, 75);
type = Stem;
},
{
horizontal = 1;
place = (637, 78);
place = (637, 78);
type = Stem;
},
{
place = (-36, 995);
place = (-36, 995);
type = Stem;
}
);
layerId = m01;
shapes = (
{
closed = 1;
nodes = (
(378,0,l),
(843,0,l),
(859,82,l),
(482,82,l),
(530,335,l),
(854,335,l),
(869,410,l),
(545,410,l),
(589,637,l),
(944,637,l),
(959,715,l),
(358,715,l),
(-36,0,l),
(56,0,l),
(175,219,l),
(420,219,l)
);
},
{
closed = 1;
nodes = (
(402,637,l),
(501,637,l),
(434,291,l),
(214,291,l)
);
}
);
width = 930;
}
);
note = AE;
unicode = 198;
},
{
glyphname = Oslash;
kernLeft = C;
kernRight = O;
layers = (
{
hints = (
{
horizontal = 1;
place = (-15, 78);
place = (-15, 78);
type = Stem;
},
{
horizontal = 1;
place = (654, 77);
place = (654, 77);
type = Stem;
},
{
place = (50, 92);
place = (50, 92);
type = Stem;
},
{
place = (654, 91);
place = (654, 91);
type = Stem;
},
{
horizontal = 1;
place = (691, -20);
target = down;
type = TopGhost;
}
);
layerId = m01;
shapes = (
{
closed = 1;
nodes = (
(605,-15,o),
(745,172,o),
(745,402,cs),
(745,488,o),
(721,559,o),
(681,613,c),
(757,691,l),
(719,730,l),
(644,653,l),
(588,704,o),
(512,731,o),
(426,731,cs),
(199,731,o),
(50,539,o),
(50,312,cs),
(50,227,o),
(73,157,o),
(113,104,c),
(34,22,l),
(73,-17,l),
(150,63,l),
(208,12,o),
(285,-15,o),
(372,-15,cs)
);
},
{
closed = 1;
nodes = (
(654,213,o),
(558,63,o),
(374,63,cs),
(305,63,o),
(249,84,o),
(209,124,c),
(618,548,l),
(641,508,o),
(654,458,o),
(654,401,cs)
);
},
{
closed = 1;
nodes = (
(142,499,o),
(241,654,o),
(422,654,cs),
(490,654,o),
(545,631,o),
(585,592,c),
(175,168,l),
(153,207,o),
(142,255,o),
(142,312,cs)
);
}
);
width = 758;
}
);
note = Oslash;
unicode = 216;
},
{
glyphname = infinity;
layers = (
{
hints = (
{
horizontal = 1;
place = (131, 72);
place = (131, 72);
type = Stem;
},
{
horizontal = 1;
place = (406, 72);
place = (406, 72);
type = Stem;
},
{
place = (37, 79);
place = (37, 79);
type = Stem;
},
{
place = (603, 79);
place = (603, 79);
type = Stem;
}
);
layerId = m01;
shapes = (
{
closed = 1;
nodes = (
(268,131,o),
(321,184,o),
(362,248,c),
(403,184,o),
(453,131,o),
(530,131,cs),
(622,131,o),
(682,201,o),
(682,305,cs),
(682,408,o),
(622,478,o),
(530,478,cs),
(453,478,o),
(403,425,o),
(362,361,c),
(321,425,o),
(268,478,o),
(188,478,cs),
(89,478,o),
(37,397,o),
(37,305,cs),
(37,212,o),
(88,131,o),
(188,131,cs)
);
},
{
closed = 1;
nodes = (
(247,406,o),
(286,358,o),
(317,304,c),
(286,252,o),
(247,203,o),
(194,203,cs),
(139,203,o),
(116,248,o),
(116,305,cs),
(116,361,o),
(139,406,o),
(194,406,cs)
);
},
{
closed = 1;
nodes = (
(474,203,o),
(438,252,o),
(407,304,c),
(438,358,o),
(474,406,o),
(524,406,cs),
(579,406,o),
(603,361,o),
(603,305,cs),
(603,248,o),
(579,203,o),
(524,203,cs)
);
}
);
width = 715;
}
);
note = infinity;
unicode = 8734;
},
{
glyphname = plusminus;
layers = (
{
hints = (
{
horizontal = 1;
place = (0, 63);
place = (0, 63);
type = Stem;
},
{
horizontal = 1;
place = (315, 63);
place = (315, 63);
type = Stem;
},
{
place = (2, 520);
place = (2, 520);
type = Stem;
}
);
layerId = m01;
shapes = (
{
closed = 1;
nodes = (
(63,315,l),
(254,315,l),
(219,135,l),
(284,135,l),
(319,315,l),
(510,315,l),
(522,378,l),
(331,378,l),
(366,558,l),
(301,558,l),
(266,378,l),
(75,378,l)
);
},
{
closed = 1;
nodes = (
(2,0,l),
(449,0,l),
(461,63,l),
(14,63,l)
);
}
);
width = 551;
}
);
note = plusminus;
unicode = 177;
},
{
glyphname = lessequal;
layers = (
{
hints = (
{
horizontal = 1;
place = (0, 63);
place = (0, 63);
type = Stem;
},
{
horizontal = 1;
place = (526, -20);
target = down;
type = TopGhost;
},
{
place = (-1, 503);
place = (-1, 503);
type = Stem;
}
);
layerId = m01;
shapes = (
{
closed = 1;
nodes = (
(-1,0,l),
(400,0,l),
(412,63,l),
(11,63,l)
);
},
{
closed = 1;
nodes = (
(420,107,l),
(434,176,l),
(123,312,l),
(123,314,l),
(487,448,l),
(502,526,l),
(68,358,l),
(52,275,l)
);
}
);
width = 503;
}
);
note = lessequal;
unicode = 8804;
},
{
glyphname = greaterequal;
layers = (
{
hints = (
{
horizontal = 1;
place = (0, 63);
place = (0, 63);
type = Stem;
},
{
horizontal = 1;
place = (526, -20);
target = down;
type = TopGhost;
},
{
place = (3, 470);
place = (3, 470);
type = Stem;
}
);
layerId = m01;
shapes = (
{
closed = 1;
nodes = (
(416,63,l),
(15,63,l),
(3,0,l),
(404,0,l)
);
},
{
closed = 1;
nodes = (
(105,526,l),
(91,457,l),
(402,321,l),
(402,319,l),
(38,185,l),
(23,107,l),
(457,275,l),
(473,358,l)
);
}
);
width = 503;
}
);
note = greaterequal;
unicode = 8805;
},
{
glyphname = yen;
layers = (
{
hints = (
{
horizontal = 1;
place = (150, 53);
place = (150, 53);
type = Stem;
},
{
horizontal = 1;
place = (273, 53);
place = (273, 53);
type = Stem;
},
{
horizontal = 1;
place = (685, -20);
target = down;
type = TopGhost;
},
{
place = (38, 577);
place = (38, 577);
type = Stem;
},
{
horizontal = 1;
place = (0, 203);
place = (0, 203);
type = Stem;
}
);
layerId = m01;
shapes = (
{
closed = 1;
nodes = (
(62,273,l),
(239,273,l),
(226,203,l),
(49,203,l),
(38,150,l),
(215,150,l),
(187,0,l),
(270,0,l),
(298,150,l),
(475,150,l),
(486,203,l),
(309,203,l),
(322,273,l),
(499,273,l),
(510,326,l),
(345,326,l),
(615,685,l),
(524,685,l),
(298,370,l),
(296,370,l),
(177,685,l),
(89,685,l),
(236,326,l),
(73,326,l)
);
}
);
width = 543;
}
);
note = yen;
unicode = 165;
},
{
glyphname = mu;
layers = (
{
hints = (
{
horizontal = 1;
place = (-166, 21);
target = up;
type = BottomGhost;
},
{
horizontal = 1;
place = (-12, 67);
place = (-12, 67);
type = Stem;
},
{
horizontal = 1;
place = (517, -20);
target = down;
type = TopGhost;
},
{
place = (-30, 535);
place = (-30, 535);
type = Stem;
},
{
horizontal = 1;
place = (0, 21);
target = up;
type = BottomGhost;
}
);
layerId = m01;
shapes = (
{
closed = 1;
nodes = (
(249,-12,o),
(294,22,o),
(336,72,c),
(338,72,l),
(325,0,l),
(405,0,l),
(505,517,l),
(425,517,l),
(369,228,ls),
(350,132,o),
(276,55,o),
(186,55,cs),
(121,55,o),
(99,93,o),
(113,163,cs),
(182,517,l),
(103,517,l),
(-30,-166,l),
(50,-166,l),
(88,27,l),
(90,27,l),
(103,2,o),
(133,-12,o),
(171,-12,cs)
);
}
);
width = 513;
}
);
note = mu;
unicode = 181;
},
{
glyphname = partialdiff;
layers = (
{
hints = (
{
horizontal = 1;
place = (-14, 67);
place = (-14, 67);
type = Stem;
},
{
horizontal = 1;
place = (392, 67);
place = (392, 67);
type = Stem;
},
{
horizontal = 1;
place = (722, -20);
target = down;
type = TopGhost;
},
{
place = (41, 83);
place = (41, 83);
type = Stem;
},
{
place = (416, 86);
place = (416, 86);
type = Stem;
}
);
layerId = m01;
shapes = (
{
closed = 1;
nodes = (
(381,438,o),
(329,459,o),
(278,459,cs),
(133,459,o),
(41,345,o),
(41,198,cs),
(41,79,o),
(116,-14,o),
(253,-14,cs),
(424,-14,o),
(502,138,o),
(502,286,cs),
(502,517,o),
(423,691,o),
(154,722,c),
(154,650,l),
(303,625,o),
(392,549,o),
(411,397,c)
);
},
{
closed = 1;
nodes = (
(168,53,o),
(124,115,o),
(124,198,cs),
(124,313,o),
(189,392,o),
(282,392,cs),
(363,392,o),
(416,332,o),
(416,251,cs),
(416,152,o),
(350,53,o),
(254,53,cs)
);
}
);
width = 549;
}
);
note = partialdiff;
unicode = 8706;
},
{
glyphname = summation;
layers = (
{
hints = (
{
horizontal = 1;
place = (-100, 83);
place = (-100, 83);
type = Stem;
},
{
horizontal = 1;
place = (636, 79);
place = (636, 79);
type = Stem;
},
{
place = (63, 538);
place = (63, 538);
type = Stem;
},
{
place = (63, 105);
place = (63, 105);
type = Stem;
},
{
place = (345, 96);
place = (345, 96);
type = Stem;
}
);
layerId = m01;
shapes = (
{
closed = 1;
nodes = (
(601,-100,l),
(601,-17,l),
(161,-17,l),
(161,-15,l),
(441,299,l),
(441,339,l),
(168,634,l),
(168,636,l),
(591,636,l),
(591,715,l),
(63,715,l),
(63,629,l),
(345,317,l),
(345,315,l),
(63,-9,l),
(63,-100,l)
);
}
);
width = 616;
}
);
note = summation;
unicode = 8721;
},
{
glyphname = product;
layers = (
{
hints = (
{
horizontal = 1;
place = (636, 79);
place = (636, 79);
type = Stem;
},
{
place = (91, 90);
place = (91, 90);
type = Stem;
},
{
place = (562, 90);
place = (562, 90);
type = Stem;
}
);
layerId = m01;
shapes = (
{
closed = 1;
nodes = (
(91,715,l),
(91,-100,l),
(181,-100,l),
(181,636,l),
(562,636,l),
(562,-100,l),
(652,-100,l),
(652,715,l)
);
}
);
width = 703;
}
);
note = product;
unicode = 8719;
},
{
glyphname = pi;
layers = (
{
hints = (
{
horizontal = 1;
place = (0, 21);
target = up;
type = BottomGhost;
},
{
horizontal = 1;
place = (452, 65);
place = (452, 65);
type = Stem;
},
{
place = (371, 84);
place = (371, 84);
type = Stem;
},
{
horizontal = 1;
place = (-3, 69);
place = (-3, 69);
type = Stem;
}
);
layerId = m01;
shapes = (
{
closed = 1;
nodes = (
(519,452,l),
(602,452,l),
(615,517,l),
(72,517,l),
(59,452,l),
(137,452,l),
(50,0,l),
(130,0,l),
(217,452,l),
(439,452,l),
(375,123,ls),
(358,38,o),
(396,-3,o),
(471,-3,cs),
(487,-3,o),
(503,0,o),
(519,4,c),
(533,74,l),
(530,74,l),
(521,70,o),
(507,66,o),
(495,66,cs),
(458,66,o),
(448,85,o),
(455,120,cs)
);
}
);
width = 595;
}
);
note = pi;
unicode = 960;
},
{
glyphname = integral;
layers = (
{
hints = (
{
horizontal = 1;
place = (-176, 72);
place = (-176, 72);
type = Stem;
},
{
horizontal = 1;
place = (732, -20);
target = down;
type = TopGhost;
},
{
place = (125, 81);
place = (125, 81);
type = Stem;
},
{
horizontal = 1;
place = (-166, 21);
target = up;
type = BottomGhost;
},
{
horizontal = 1;
place = (669, 72);
place = (669, 72);
type = Stem;
}
);
layerId = m01;
shapes = (
{
closed = 1;
nodes = (
(125,-34,ls),
(125,-82,o),
(102,-104,o),
(57,-104,cs),
(30,-104,o),
(12,-98,o),
(1,-94,c),
(-2,-94,l),
(-2,-166,l),
(18,-172,o),
(41,-176,o),
(71,-176,cs),
(147,-176,o),
(206,-138,o),
(206,-39,cs),
(206,599,ls),
(206,647,o),
(229,669,o),
(274,669,cs),
(301,669,o),
(319,664,o),
(330,660,c),
(333,660,l),
(333,732,l),
(313,738,o),
(290,741,o),
(260,741,cs),
(184,741,o),
(125,703,o),
(125,604,cs)
);
}
);
width = 337;
}
);
note = integral;
unicode = 8747;
},
{
glyphname = ordfeminine;
layers = (
{
hints = (
{
horizontal = 1;
place = (232, 62);
place = (232, 62);
type = Stem;
},
{
horizontal = 1;
place = (644, 57);
place = (644, 57);
type = Stem;
},
{
place = (55, 78);
place = (55, 78);
type = Stem;
},
{
place = (387, 72);
place = (387, 72);
type = Stem;
},
{
horizontal = 1;
place = (228, 58);
place = (228, 58);
type = Stem;
}
);
layerId = m01;
shapes = (
{
closed = 1;
nodes = (
(421,232,o),
(436,235,o),
(445,238,c),
(456,294,l),
(453,294,l),
(411,286,o),
(408,308,o),
(414,340,cs),
(455,546,ls),
(477,660,o),
(394,701,o),
(304,701,cs),
(187,701,o),
(118,638,o),
(102,547,c),
(176,547,l),
(188,613,o),
(226,644,o),
(298,644,cs),
(348,644,o),
(387,627,o),
(387,575,cs),
(387,522,o),
(359,509,o),
(234,502,cs),
(144,497,o),
(55,468,o),
(55,355,cs),
(55,286,o),
(107,228,o),
(197,228,cs),
(261,228,o),
(308,259,o),
(338,298,c),
(340,298,l),
(339,265,o),
(356,232,o),
(408,232,cs)
);
},
{
closed = 1;
nodes = (
(135,434,o),
(197,444,o),
(232,447,cs),
(307,453,o),
(341,458,o),
(370,471,c),
(357,406,ls),
(344,342,o),
(299,286,o),
(212,286,cs),
(159,286,o),
(132,314,o),
(133,361,cs)
);
}
);
width = 472;
}
);
note = ordfeminine;
unicode = 170;
},
{
glyphname = ordmasculine;
layers = (
{
hints = (
{
horizontal = 1;
place = (223, 62);
place = (223, 62);
type = Stem;
},
{
horizontal = 1;
place = (640, 61);
place = (640, 61);
type = Stem;
},
{
place = (68, 76);
place = (68, 76);
type = Stem;
},
{
place = (423, 76);
place = (423, 76);
type = Stem;
}
);
layerId = m01;
shapes = (
{
closed = 1;
nodes = (
(411,223,o),
(499,356,o),
(499,500,cs),
(499,624,o),
(417,701,o),
(308,701,cs),
(161,701,o),
(68,569,o),
(68,421,cs),
(68,294,o),
(151,223,o),
(259,223,cs)
);
},
{
closed = 1;
nodes = (
(144,535,o),
(200,640,o),
(307,640,cs),
(387,640,o),
(423,576,o),
(423,500,cs),
(423,384,o),
(365,285,o),
(262,285,cs),
(184,285,o),
(144,342,o),
(144,422,cs)
);
}
);
width = 501;
}
);
note = ordmasculine;
unicode = 186;
},
{
glyphname = Omega;
layers = (
{
hints = (
{
horizontal = 1;
place = (0, 75);
place = (0, 75);
type = Stem;
},
{
horizontal = 1;
place = (654, 77);
place = (654, 77);
type = Stem;
},
{
place = (50, 91);
place = (50, 91);
type = Stem;
},
{
place = (621, 91);
place = (621, 91);
type = Stem;
}
);
layerId = m01;
shapes = (
{
closed = 1;
nodes = (
(516,77,l),
(652,141,o),
(712,298,o),
(712,430,cs),
(712,625,o),
(588,731,o),
(420,731,cs),
(182,729,o),
(50,516,o),
(50,302,cs),
(50,203,o),
(89,123,o),
(155,77,c),
(155,75,l),
(13,75,l),
(-1,0,l),
(274,0,l),
(288,77,l),
(188,97,o),
(141,184,o),
(141,300,cs),
(141,471,o),
(225,654,o),
(417,654,cs),
(548,654,o),
(621,567,o),
(621,428,cs),
(621,265,o),
(543,90,o),
(368,75,c),
(354,0,l),
(637,0,l),
(651,75,l),
(516,75,l)
);
}
);
width = 728;
}
);
note = Omega;
unicode = 8486;
},
{
glyphname = ae;
kernLeft = a;
kernRight = e;
layers = (
{
hints = (
{
horizontal = 1;
place = (-10, 62);
place = (-10, 62);
type = Stem;
},
{
horizontal = 1;
place = (239, 61);
place = (239, 61);
type = Stem;
},
{
horizontal = 1;
place = (465, 63);
place = (465, 63);
type = Stem;
},
{
place = (4, 81);
place = (4, 81);
type = Stem;
},
{
place = (719, 82);
place = (719, 82);
type = Stem;
},
{
horizontal = 1;
place = (-14, 67);
place = (-14, 67);
type = Stem;
},
{
horizontal = 1;
place = (467, 63);
place = (467, 63);
type = Stem;
}
);
layerId = m01;
shapes = (
{
closed = 1;
nodes = (
(150,529,o),
(69,464,o),
(51,361,c),
(132,361,l),
(146,437,o),
(193,466,o),
(277,465,cs),
(333,464,o),
(377,449,o),
(377,385,cs),
(377,316,o),
(343,303,o),
(208,294,cs),
(104,288,o),
(4,260,o),
(4,132,cs),
(4,54,o),
(63,-10,o),
(174,-10,cs),
(256,-10,o),
(332,26,o),
(369,106,c),
(371,106,l),
(399,28,o),
(466,-14,o),
(547,-14,cs),
(653,-14,o),
(736,44,o),
(776,160,c),
(698,160,l),
(675,92,o),
(622,53,o),
(555,53,cs),
(465,53,o),
(426,118,o),
(426,210,cs),
(426,220,o),
(426,229,o),
(427,239,c),
(795,239,l),
(812,351,o),
(792,444,o),
(729,493,cs),
(698,517,o),
(657,530,o),
(605,530,cs),
(538,530,o),
(480,498,o),
(436,447,c),
(414,506,o),
(355,527,o),
(283,528,cs)
);
},
{
closed = 1;
nodes = (
(87,224,o),
(165,230,o),
(204,233,cs),
(284,240,o),
(325,247,o),
(357,265,c),
(344,197,ls),
(328,117,o),
(281,52,o),
(181,52,cs),
(120,52,o),
(84,88,o),
(85,139,cs)
);
},
{
closed = 1;
nodes = (
(692,467,o),
(729,396,o),
(719,300,c),
(435,300,l),
(457,398,o),
(516,467,o),
(602,467,cs)
);
}
);
width = 820;
}
);
note = ae;
unicode = 230;
},
{
glyphname = oslash;
kernLeft = c;
kernRight = o;
layers = (
{
hints = (
{
horizontal = 1;
place = (-14, 67);
place = (-14, 67);
type = Stem;
},
{
horizontal = 1;
place = (464, 66);
place = (464, 66);
type = Stem;
},
{
place = (23, 80);
place = (23, 80);
type = Stem;
},
{
place = (432, 81);
place = (432, 81);
type = Stem;
}
);
layerId = m01;
shapes = (
{
closed = 1;
nodes = (
(411,-14,o),
(513,138,o),
(513,302,cs),
(513,359,o),
(498,407,o),
(472,445,c),
(524,499,l),
(493,530,l),
(443,478,l),
(405,511,o),
(355,530,o),
(298,530,cs),
(129,530,o),
(23,380,o),
(23,212,cs),
(23,158,o),
(36,113,o),
(59,77,c),
(1,17,l),
(32,-14,l),
(86,43,l),
(125,5,o),
(178,-14,o),
(239,-14,cs)
);
},
{
closed = 1;
nodes = (
(432,170,o),
(363,53,o),
(242,53,cs),
(195,53,o),
(161,69,o),
(138,97,c),
(416,387,l),
(427,362,o),
(432,332,o),
(432,302,cs)
);
},
{
closed = 1;
nodes = (
(103,341,o),
(167,464,o),
(296,464,cs),
(338,464,o),
(370,449,o),
(392,425,c),
(116,137,l),
(107,159,o),
(103,185,o),
(103,213,cs)
);
}
);
width = 536;
}
);
note = oslash;
unicode = 248;
},
{
glyphname = questiondown;
kernRight = questiondown;
layers = (
{
hints = (
{
horizontal = 1;
place = (-140, 71);
place = (-140, 71);
type = Stem;
},
{
horizontal = 1;
place = (489, 99);
place = (489, 99);
type = Stem;
},
{
place = (-10, 85);
place = (-10, 85);
type = Stem;
}
);
layerId = m01;
shapes = (
{
closed = 1;
nodes = (
(247,415,l),
(228,311,o),
(200,284,o),
(109,224,cs),
(37,177,o),
(-10,120,o),
(-10,32,cs),
(-10,-85,o),
(88,-140,o),
(192,-140,cs),
(335,-140,o),
(429,-43,o),
(451,103,c),
(370,103,l),
(349,-10,o),
(287,-69,o),
(196,-69,cs),
(124,-69,o),
(75,-33,o),
(75,35,cs),
(75,116,o),
(128,148,o),
(177,182,cs),
(265,243,o),
(301,297,o),
(323,415,c)
);
},
{
closed = 1;
nodes = (
(362,588,l),
(267,588,l),
(248,489,l),
(343,489,l)
);
}
);
width = 496;
}
);
note = questiondown;
unicode = 191;
},
{
glyphname = exclamdown;
kernRight = exclamdown;
layers = (
{
hints = (
{
horizontal = 1;
place = (489, 99);
place = (489, 99);
type = Stem;
},
{
place = (-3, 229);
place = (-3, 229);
type = Stem;
}
);
layerId = m01;
shapes = (
{
closed = 1;
nodes = (
(170,415,l),
(125,415,l),
(42,108,l),
(-3,-127,l),
(84,-127,l),
(128,102,l)
);
},
{
closed = 1;
nodes = (
(226,588,l),
(131,588,l),
(112,489,l),
(207,489,l)
);
}
);
width = 231;
}
);
note = exclamdown;
unicode = 161;
},
{
glyphname = logicalnot;
layers = (
{
hints = (
{
horizontal = 1;
place = (335, 63);
place = (335, 63);
type = Stem;
},
{
place = (76, 420);
place = (76, 420);
type = Stem;
}
);
layerId = m01;
shapes = (
{
closed = 1;
nodes = (
(76,335,l),
(418,335,l),
(381,144,l),
(446,144,l),
(496,398,l),
(89,398,l)
);
}
);
width = 551;
}
);
note = logicalnot;
unicode = 172;
},
{
glyphname = radical;
layers = (
{
hints = (
{
horizontal = 1;
place = (-14, 21);
target = up;
type = BottomGhost;
},
{
horizontal = 1;
place = (239, 74);
place = (239, 74);
type = Stem;
},
{
horizontal = 1;
place = (715, -20);
target = down;
type = TopGhost;
},
{
place = (32, 555);
place = (32, 555);
type = Stem;
},
{
horizontal = 1;
place = (-100, 86);
place = (-100, 86);
type = Stem;
}
);
layerId = m01;
shapes = (
{
closed = 1;
nodes = (
(32,239,l),
(106,239,l),
(239,-100,l),
(331,-100,l),
(587,715,l),
(503,715,l),
(319,107,ls),
(304,57,o),
(284,-14,o),
(284,-14,c),
(282,-14,l),
(282,-14,o),
(258,62,o),
(241,107,cs),
(162,313,l),
(32,313,l)
);
}
);
width = 559;
}
);
note = radical;
unicode = 8730;
},
{
glyphname = florin;
layers = (
{
hints = (
{
horizontal = 1;
place = (-149, 21);
target = up;
type = BottomGhost;
},
{
horizontal = 1;
place = (342, 64);
place = (342, 64);
type = Stem;
},
{
horizontal = 1;
place = (624, 72);
place = (624, 72);
type = Stem;
},
{
place = (-48, 432);
place = (-48, 432);
type = Stem;
},
{
horizontal = 1;
place = (-152, 70);
place = (-152, 70);
type = Stem;
},
{
horizontal = 1;
place = (693, -20);
target = down;
type = TopGhost;
}
);
layerId = m01;
shapes = (
{
closed = 1;
nodes = (
(42,342,l),
(128,342,l),
(44,-28,ls),
(33,-79,o),
(13,-87,o),
(-35,-82,c),
(-48,-149,l),
(52,-162,o),
(101,-131,o),
(124,-33,cs),
(209,342,l),
(316,342,l),
(328,406,l),
(224,406,l),
(259,561,ls),
(271,614,o),
(295,633,o),
(371,624,c),
(384,693,l),
(264,707,o),
(206,673,o),
(182,572,cs),
(143,406,l),
(54,406,l)
);
}
);
width = 339;
}
);
note = florin;
unicode = 402;
},
{
glyphname = approxequal;
layers = (
{
hints = (
{
horizontal = 1;
place = (178, 66);
place = (178, 66);
type = Stem;
},
{
horizontal = 1;
place = (337, 66);
place = (337, 66);
type = Stem;
},
{
place = (26, 501);
place = (26, 501);
type = Stem;
},
{
horizontal = 1;
place = (378, 66);
place = (378, 66);
type = Stem;
},
{
horizontal = 1;
place = (219, 66);
place = (219, 66);
type = Stem;
},
{
place = (26, 64);
place = (26, 64);
type = Stem;
}
);
layerId = m01;
shapes = (
{
closed = 1;
nodes = (
(482,337,o),
(518,382,o),
(527,452,c),
(463,452,l),
(460,422,o),
(442,403,o),
(411,403,cs),
(359,403,o),
(246,444,o),
(167,444,cs),
(104,444,o),
(60,404,o),
(50,329,c),
(114,329,l),
(118,359,o),
(134,378,o),
(164,378,cs),
(219,378,o),
(334,337,o),
(412,337,cs)
);
},
{
closed = 1;
nodes = (
(457,178,o),
(493,223,o),
(502,293,c),
(438,293,l),
(435,263,o),
(417,244,o),
(386,244,cs),
(334,244,o),
(221,285,o),
(142,285,cs),
(79,285,o),
(35,245,o),
(26,170,c),
(90,170,l),
(93,200,o),
(109,219,o),
(139,219,cs),
(194,219,o),
(309,178,o),
(387,178,cs)
);
}
);
width = 551;
}
);
note = approxequal;
unicode = 8776;
},
{
glyphname = Delta;
layers = (
{
hints = (
{
horizontal = 1;
place = (0, 73);
place = (0, 73);
type = Stem;
},
{
horizontal = 1;
place = (715, -20);
target = down;
type = TopGhost;
},
{
place = (-31, 614);
place = (-31, 614);
type = Stem;
},
{
horizontal = 1;
place = (636, 79);
place = (636, 79);
type = Stem;
}
);
layerId = m01;
shapes = (
{
closed = 1;
nodes = (
(-31,0,l),
(569,0,l),
(583,79,l),
(444,715,l),
(345,715,l),
(-16,80,l)
);
},
{
closed = 1;
nodes = (
(328,535,ls),
(351,575,o),
(380,636,o),
(380,636,c),
(382,636,l),
(382,636,o),
(389,575,o),
(396,535,cs),
(493,73,l),
(70,73,l)
);
}
);
width = 638;
}
);
note = Delta;
unicode = 8710;
},
{
glyphname = guillemotleft;
kernLeft = guillemotleft;
kernRight = guillemotleft;
layers = (
{
hints = (
{
horizontal = 1;
place = (113, 317);
place = (113, 317);
type = Stem;
},
{
place = (44, 357);
place = (44, 357);
type = Stem;
}
);
layerId = m01;
shapes = (
{
closed = 1;
nodes = (
(340,113,l),
(354,188,l),
(277,270,l),
(277,272,l),
(385,347,l),
(401,430,l),
(245,320,l),
(228,233,l)
);
},
{
closed = 1;
nodes = (
(156,113,l),
(170,188,l),
(93,270,l),
(93,272,l),
(201,347,l),
(217,430,l),
(61,320,l),
(44,233,l)
);
}
);
width = 417;
}
);
note = guillemotleft;
unicode = 171;
},
{
glyphname = guillemotright;
kernLeft = guillemotright;
kernRight = guillemotright;
layers = (
{
hints = (
{
horizontal = 1;
place = (113, 317);
place = (113, 317);
type = Stem;
},
{
place = (21, 357);
place = (21, 357);
type = Stem;
}
);
layerId = m01;
shapes = (
{
closed = 1;
nodes = (
(82,430,l),
(68,355,l),
(145,273,l),
(145,271,l),
(37,196,l),
(21,113,l),
(177,223,l),
(194,310,l)
);
},
{
closed = 1;
nodes = (
(266,430,l),
(252,355,l),
(329,273,l),
(329,271,l),
(221,196,l),
(205,113,l),
(361,223,l),
(378,310,l)
);
}
);
width = 417;
}
);
note = guillemotright;
unicode = 187;
},
{
glyphname = ellipsis;
kernLeft = comma;
kernRight = comma;
layers = (
{
hints = (
{
horizontal = 1;
place = (0, 99);
place = (0, 99);
type = Stem;
},
{
place = (-7, 115);
place = (-7, 115);
type = Stem;
},
{
place = (205, 114);
place = (205, 114);
type = Stem;
},
{
place = (416, 115);
place = (416, 115);
type = Stem;
}
);
layerId = m01;
shapes = (
{
closed = 1;
nodes = (
(416,0,l),
(512,0,l),
(531,99,l),
(435,99,l)
);
},
{
closed = 1;
nodes = (
(-7,0,l),
(89,0,l),
(108,99,l),
(12,99,l)
);
},
{
closed = 1;
nodes = (
(205,0,l),
(300,0,l),
(319,99,l),
(224,99,l)
);
}
);
width = 605;
}
);
note = ellipsis;
unicode = 8230;
},
{
glyphname = Agrave;
kernLeft = A;
kernRight = A;
layers = (
{
hints = (
{
horizontal = 1;
place = (0, 21);
target = up;
type = BottomGhost;
},
{
horizontal = 1;
place = (218, 72);
place = (218, 72);
type = Stem;
},
{
horizontal = 1;
place = (715, -20);
target = down;
type = TopGhost;
},
{
horizontal = 1;
place = (753, 121);
place = (753, 121);
type = Stem;
},
{
place = (-39, 617);
place = (-39, 617);
type = Stem;
},
{
horizontal = 1;
place = (632, 83);
place = (632, 83);
type = Stem;
}
);
layerId = m01;
shapes = (
{
closed = 1;
nodes = (
(484,0,l),
(578,0,l),
(443,715,l),
(344,715,l),
(-39,0,l),
(53,0,l),
(166,218,l),
(448,218,l)
);
},
{
closed = 1;
nodes = (
(330,531,ls),
(353,574,o),
(380,632,o),
(380,632,c),
(382,632,l),
(382,632,o),
(389,571,o),
(396,531,cs),
(436,290,l),
(204,290,l)
);
},
{
closed = 1;
nodes = (
(367,753,l),
(435,753,l),
(393,874,l),
(298,874,l)
);
}
);
width = 638;
}
);
note = Agrave;
unicode = 192;
},
{
glyphname = Atilde;
kernLeft = A;
kernRight = A;
layers = (
{
hints = (
{
horizontal = 1;
place = (0, 21);
target = up;
type = BottomGhost;
},
{
horizontal = 1;
place = (218, 72);
place = (218, 72);
type = Stem;
},
{
horizontal = 1;
place = (715, -20);
target = down;
type = TopGhost;
},
{
horizontal = 1;
place = (760, 62);
place = (760, 62);
type = Stem;
},
{
place = (-39, 617);
place = (-39, 617);
type = Stem;
},
{
horizontal = 1;
place = (632, 83);
place = (632, 83);
type = Stem;
},
{
horizontal = 1;
place = (792, 62);
place = (792, 62);
type = Stem;
}
);
layerId = m01;
shapes = (
{
closed = 1;
nodes = (
(484,0,l),
(578,0,l),
(443,715,l),
(344,715,l),
(-39,0,l),
(53,0,l),
(166,218,l),
(448,218,l)
);
},
{
closed = 1;
nodes = (
(330,531,ls),
(353,574,o),
(380,632,o),
(380,632,c),
(382,632,l),
(382,632,o),
(389,571,o),
(396,531,cs),
(436,290,l),
(204,290,l)
);
},
{
closed = 1;
nodes = (
(516,760,o),
(543,801,o),
(553,852,c),
(496,852,l),
(492,836,o),
(484,822,o),
(465,822,cs),
(429,822,o),
(401,854,o),
(348,854,cs),
(302,854,o),
(273,819,o),
(260,762,c),
(319,762,l),
(322,780,o),
(332,792,o),
(346,792,cs),
(372,792,o),
(418,760,o),
(465,760,cs)
);
}
);
width = 638;
}
);
note = Atilde;
unicode = 195;
},
{
glyphname = Otilde;
kernLeft = C;
kernRight = O;
layers = (
{
hints = (
{
horizontal = 1;
place = (-15, 78);
place = (-15, 78);
type = Stem;
},
{
horizontal = 1;
place = (654, 77);
place = (654, 77);
type = Stem;
},
{
place = (50, 92);
place = (50, 92);
type = Stem;
},
{
place = (654, 91);
place = (654, 91);
type = Stem;
},
{
horizontal = 1;
place = (760, 62);
place = (760, 62);
type = Stem;
},
{
horizontal = 1;
place = (792, 62);
place = (792, 62);
type = Stem;
}
);
layerId = m01;
shapes = (
{
closed = 1;
nodes = (
(605,-15,o),
(745,172,o),
(745,402,cs),
(745,612,o),
(607,731,o),
(426,731,cs),
(199,731,o),
(50,539,o),
(50,312,cs),
(50,103,o),
(191,-15,o),
(372,-15,cs)
);
},
{
closed = 1;
nodes = (
(142,499,o),
(241,654,o),
(422,654,cs),
(567,654,o),
(654,552,o),
(654,401,cs),
(654,213,o),
(558,63,o),
(374,63,cs),
(231,63,o),
(142,156,o),
(142,312,cs)
);
},
{
closed = 1;
nodes = (
(550,760,o),
(577,801,o),
(587,852,c),
(530,852,l),
(526,836,o),
(518,822,o),
(499,822,cs),
(463,822,o),
(435,854,o),
(382,854,cs),
(336,854,o),
(307,819,o),
(294,762,c),
(353,762,l),
(356,780,o),
(366,792,o),
(380,792,cs),
(406,792,o),
(452,760,o),
(499,760,cs)
);
}
);
width = 758;
}
);
note = Otilde;
unicode = 213;
},
{
glyphname = OE;
kernLeft = C;
kernRight = E;
layers = (
{
hints = (
{
horizontal = 1;
place = (-15, 78);
place = (-15, 78);
type = Stem;
},
{
horizontal = 1;
place = (335, 75);
place = (335, 75);
type = Stem;
},
{
horizontal = 1;
place = (654, 77);
place = (654, 77);
type = Stem;
},
{
place = (51, 91);
place = (51, 91);
type = Stem;
},
{
horizontal = 1;
place = (0, 82);
place = (0, 82);
type = Stem;
},
{
horizontal = 1;
place = (637, 78);
place = (637, 78);
type = Stem;
}
);
layerId = m01;
shapes = (
{
closed = 1;
nodes = (
(142,473,o),
(241,654,o),
(424,654,cs),
(534,654,o),
(617,592,o),
(599,501,cs),
(538,194,ls),
(521,108,o),
(420,63,o),
(337,63,cs),
(205,63,o),
(142,153,o),
(142,294,cs)
);
},
{
closed = 1;
nodes = (
(502,0,l),
(977,0,l),
(993,82,l),
(606,82,l),
(654,335,l),
(988,335,l),
(1003,410,l),
(669,410,l),
(713,637,l),
(1078,637,l),
(1093,715,l),
(640,715,l),
(626,639,l),
(588,701,o),
(518,731,o),
(432,731,cs),
(196,731,o),
(51,520,o),
(51,295,cs),
(51,95,o),
(169,-15,o),
(322,-15,cs),
(402,-15,o),
(473,16,o),
(513,55,c)
);
}
);
width = 1064;
}
);
note = OE;
unicode = 338;
},
{
glyphname = oe;
kernLeft = c;
kernRight = e;
layers = (
{
hints = (
{
horizontal = 1;
place = (-14, 67);
place = (-14, 67);
type = Stem;
},
{
horizontal = 1;
place = (239, 61);
place = (239, 61);
type = Stem;
},
{
horizontal = 1;
place = (464, 66);
place = (464, 66);
type = Stem;
},
{
place = (23, 80);
place = (23, 80);
type = Stem;
},
{
place = (397, 67);
place = (397, 67);
type = Stem;
},
{
place = (749, 80);
place = (749, 80);
type = Stem;
},
{
horizontal = 1;
place = (467, 63);
place = (467, 63);
type = Stem;
}
);
layerId = m01;
shapes = (
{
closed = 1;
nodes = (
(304,-14,o),
(370,33,o),
(412,103,c),
(440,28,o),
(502,-14,o),
(588,-14,cs),
(685,-14,o),
(768,38,o),
(805,160,c),
(728,160,l),
(706,88,o),
(657,53,o),
(593,53,cs),
(507,53,o),
(464,116,o),
(464,205,cs),
(464,216,o),
(464,228,o),
(465,239,c),
(822,239,l),
(842,361,o),
(819,449,o),
(759,495,cs),
(729,518,o),
(690,530,o),
(642,530,cs),
(560,530,o),
(493,484,o),
(449,411,c),
(422,489,o),
(360,530,o),
(279,530,cs),
(127,530,o),
(23,381,o),
(23,204,cs),
(23,69,o),
(102,-14,o),
(219,-14,cs)
);
},
{
closed = 1;
nodes = (
(103,343,o),
(162,464,o),
(278,464,cs),
(364,464,o),
(397,387,o),
(397,310,cs),
(397,169,o),
(332,53,o),
(223,53,cs),
(136,53,o),
(103,124,o),
(103,208,cs)
);
},
{
closed = 1;
nodes = (
(719,467,o),
(761,404,o),
(749,300,c),
(473,300,l),
(494,401,o),
(551,467,o),
(638,467,cs)
);
}
);
width = 848;
}
);
note = oe;
unicode = 339;
},
{
glyphname = endash;
kernLeft = hyphen;
kernRight = hyphen;
layers = (
{
hints = (
{
horizontal = 1;
place = (221, 68);
place = (221, 68);
type = Stem;
},
{
place = (39, 434);
place = (39, 434);
type = Stem;
}
);
layerId = m01;
shapes = (
{
closed = 1;
nodes = (
(39,221,l),
(459,221,l),
(473,289,l),
(53,289,l)
);
}
);
width = 515;
}
);
note = endash;
unicode = 8211;
},
{
glyphname = emdash;
kernLeft = hyphen;
kernRight = hyphen;
layers = (
{
hints = (
{
horizontal = 1;
place = (221, 68);
place = (221, 68);
type = Stem;
},
{
place = (39, 710);
place = (39, 710);
type = Stem;
}
);
layerId = m01;
shapes = (
{
closed = 1;
nodes = (
(39,221,l),
(735,221,l),
(749,289,l),
(53,289,l)
);
}
);
width = 790;
}
);
note = emdash;
unicode = 8212;
},
{
glyphname = quotedblleft;
kernLeft = quotedblleft;
kernRight = quotedblleft;
layers = (
{
hints = (
{
horizontal = 1;
place = (507, 100);
place = (507, 100);
type = Stem;
},
{
horizontal = 1;
place = (717, -20);
target = down;
type = TopGhost;
},
{
place = (89, 272);
place = (89, 272);
type = Stem;
},
{
horizontal = 1;
place = (679, 38);
place = (679, 38);
type = Stem;
}
);
layerId = m01;
shapes = (
{
closed = 1;
nodes = (
(238,507,l),
(322,507,l),
(341,607,l),
(302,607,l),
(310,659,o),
(331,672,o),
(354,679,c),
(361,717,l),
(310,712,o),
(271,684,o),
(259,618,cs)
);
},
{
closed = 1;
nodes = (
(89,507,l),
(173,507,l),
(192,607,l),
(153,607,l),
(161,659,o),
(182,672,o),
(205,679,c),
(212,717,l),
(161,712,o),
(122,684,o),
(110,618,cs)
);
}
);
width = 315;
}
);
note = quotedblleft;
unicode = 8220;
},
{
glyphname = quotedblright;
kernLeft = quotedblright;
kernRight = quotedblright;
layers = (
{
hints = (
{
horizontal = 1;
place = (615, 100);
place = (615, 100);
type = Stem;
},
{
place = (90, 272);
place = (90, 272);
type = Stem;
}
);
layerId = m01;
shapes = (
{
closed = 1;
nodes = (
(213,715,l),
(129,715,l),
(110,615,l),
(149,615,l),
(141,563,o),
(120,550,o),
(97,543,c),
(90,505,l),
(141,510,o),
(180,538,o),
(192,604,cs)
);
},
{
closed = 1;
nodes = (
(362,715,l),
(278,715,l),
(259,615,l),
(298,615,l),
(290,563,o),
(269,550,o),
(246,543,c),
(239,505,l),
(290,510,o),
(329,538,o),
(341,604,cs)
);
}
);
width = 315;
}
);
note = quotedblright;
unicode = 8221;
},
{
glyphname = quoteleft;
kernLeft = quotedblleft;
kernRight = quotedblleft;
layers = (
{
hints = (
{
horizontal = 1;
place = (507, 100);
place = (507, 100);
type = Stem;
},
{
horizontal = 1;
place = (717, -20);
target = down;
type = TopGhost;
},
{
place = (89, 123);
place = (89, 123);
type = Stem;
}
);
layerId = m01;
shapes = (
{
closed = 1;
nodes = (
(89,507,l),
(173,507,l),
(192,607,l),
(153,607,l),
(161,659,o),
(182,672,o),
(205,679,c),
(212,717,l),
(161,712,o),
(122,684,o),
(110,618,cs)
);
}
);
width = 166;
}
);
note = quoteleft;
unicode = 8216;
},
{
glyphname = quoteright;
kernLeft = quotedblright;
kernRight = quotedblright;
layers = (
{
hints = (
{
horizontal = 1;
place = (615, 100);
place = (615, 100);
type = Stem;
},
{
place = (90, 123);
place = (90, 123);
type = Stem;
}
);
layerId = m01;
shapes = (
{
closed = 1;
nodes = (
(213,715,l),
(129,715,l),
(110,615,l),
(149,615,l),
(141,563,o),
(120,550,o),
(97,543,c),
(90,505,l),
(141,510,o),
(180,538,o),
(192,604,cs)
);
}
);
width = 166;
}
);
note = quoteright;
unicode = 8217;
},
{
glyphname = divide;
kernLeft = minus;
kernRight = minus;
layers = (
{
hints = (
{
place = (106, 99);
place = (106, 99);
type = Stem;
},
{
place = (295, 63);
place = (295, 63);
type = Stem;
},
{
place = (448, 99);
place = (448, 99);
type = Stem;
},
{
place = (59, 459);
place = (59, 459);
type = Stem;
}
);
layerId = m01;
shapes = (
{
closed = 1;
nodes = (
(59,295,l),
(506,295,l),
(518,358,l),
(71,358,l)
);
},
{
closed = 1;
nodes = (
(198,106,l),
(294,106,l),
(313,205,l),
(217,205,l)
);
},
{
closed = 1;
nodes = (
(265,448,l),
(361,448,l),
(380,547,l),
(284,547,l)
);
}
);
width = 551;
}
);
note = divide;
unicode = 247;
},
{
glyphname = lozenge;
layers = (
{
hints = (
{
horizontal = 1;
place = (0, 21);
target = up;
type = BottomGhost;
},
{
horizontal = 1;
place = (715, -20);
target = down;
type = TopGhost;
},
{
place = (41, 494);
place = (41, 494);
type = Stem;
},
{
horizontal = 1;
place = (0, 79);
place = (0, 79);
type = Stem;
},
{
horizontal = 1;
place = (636, 79);
place = (636, 79);
type = Stem;
}
);
layerId = m01;
shapes = (
{
closed = 1;
nodes = (
(333,715,l),
(242,715,l),
(41,358,l),
(243,0,l),
(334,0,l),
(535,357,l)
);
},
{
closed = 1;
nodes = (
(286,636,l),
(288,636,l),
(440,354,l),
(290,79,l),
(288,79,l),
(135,360,l)
);
}
);
width = 546;
}
);
note = lozenge;
unicode = 9674;
},
{
glyphname = ydieresis;
kernLeft = yacute;
kernRight = yacute;
layers = (
{
hints = (
{
horizontal = 1;
place = (-171, 71);
place = (-171, 71);
type = Stem;
},
{
horizontal = 1;
place = (517, -20);
target = down;
type = TopGhost;
},
{
horizontal = 1;
place = (615, 95);
place = (615, 95);
type = Stem;
},
{
place = (-25, 527);
place = (-25, 527);
type = Stem;
},
{
horizontal = 1;
place = (-159, 21);
target = up;
type = BottomGhost;
}
);
layerId = m01;
shapes = (
{
closed = 1;
nodes = (
(107,-171,o),
(158,-145,o),
(200,-64,cs),
(502,517,l),
(419,517,l),
(260,196,ls),
(237,149,o),
(214,96,o),
(214,96,c),
(212,96,l),
(212,96,o),
(206,153,o),
(197,197,cs),
(131,517,l),
(49,517,l),
(159,16,l),
(125,-49,ls),
(105,-87,o),
(78,-100,o),
(45,-100,cs),
(18,-100,o),
(3,-94,o),
(-7,-89,c),
(-11,-89,l),
(-25,-159,l),
(-7,-167,o),
(17,-171,o),
(44,-171,cs)
);
},
{
closed = 1;
nodes = (
(329,615,l),
(406,615,l),
(425,710,l),
(348,710,l)
);
},
{
closed = 1;
nodes = (
(168,615,l),
(245,615,l),
(264,710,l),
(187,710,l)
);
}
);
width = 457;
}
);
note = ydieresis;
unicode = 255;
},
{
glyphname = Ydieresis;
kernLeft = Yacute;
kernRight = Yacute;
layers = (
{
hints = (
{
horizontal = 1;
place = (0, 21);
target = up;
type = BottomGhost;
},
{
horizontal = 1;
place = (715, -20);
target = down;
type = TopGhost;
},
{
horizontal = 1;
place = (760, 95);
place = (760, 95);
type = Stem;
},
{
place = (81, 587);
place = (81, 587);
type = Stem;
}
);
layerId = m01;
shapes = (
{
closed = 1;
nodes = (
(199,0,l),
(287,0,l),
(344,296,l),
(668,715,l),
(569,715,l),
(316,376,l),
(314,376,l),
(176,715,l),
(81,715,l),
(257,303,l)
);
},
{
closed = 1;
nodes = (
(416,760,l),
(493,760,l),
(512,855,l),
(435,855,l)
);
},
{
closed = 1;
nodes = (
(255,760,l),
(332,760,l),
(351,855,l),
(274,855,l)
);
}
);
width = 580;
}
);
note = Ydieresis;
unicode = 376;
},
{
glyphname = fraction;
layers = (
{
hints = (
{
horizontal = 1;
place = (0, 21);
target = up;
type = BottomGhost;
},
{
horizontal = 1;
place = (715, -20);
target = down;
type = TopGhost;
},
{
place = (-216, 636);
place = (-216, 636);
type = Stem;
}
);
layerId = m01;
shapes = (
{
closed = 1;
nodes = (
(-216,0,l),
(-143,0,l),
(420,715,l),
(348,715,l)
);
}
);
width = 166;
}
);
note = fraction;
unicode = 8260;
},
{
glyphname = Euro;
layers = (
{
hints = (
{
horizontal = 1;
place = (-15, 73);
place = (-15, 73);
type = Stem;
},
{
horizontal = 1;
place = (253, 54);
place = (253, 54);
type = Stem;
},
{
horizontal = 1;
place = (376, 54);
place = (376, 54);
type = Stem;
},
{
horizontal = 1;
place = (630, 71);
place = (630, 71);
type = Stem;
},
{
place = (87, 84);
place = (87, 84);
type = Stem;
},
{
place = (531, 83);
place = (531, 83);
type = Stem;
},
{
place = (84, 85);
place = (84, 85);
type = Stem;
}
);
layerId = m01;
shapes = (
{
closed = 1;
nodes = (
(55,430,l),
(45,376,l),
(97,376,l),
(92,352,o),
(89,330,o),
(87,307,c),
(31,307,l),
(21,253,l),
(84,253,l),
(84,104,o),
(158,-15,o),
(317,-15,cs),
(441,-15,o),
(546,73,o),
(581,227,c),
(503,227,l),
(467,115,o),
(407,58,o),
(322,58,cs),
(199,58,o),
(169,152,o),
(169,253,c),
(367,253,l),
(377,307,l),
(171,307,l),
(173,329,o),
(177,353,o),
(182,376,c),
(390,376,l),
(400,430,l),
(195,430,l),
(229,537,o),
(297,630,o),
(408,630,cs),
(494,630,o),
(530,574,o),
(531,497,c),
(614,497,l),
(614,630,o),
(536,701,o),
(412,701,cs),
(256,701,o),
(157,572,o),
(112,430,c)
);
}
);
width = 601;
}
);
note = Euro;
unicode = 8364;
},
{
glyphname = guilsinglleft;
kernLeft = guillemotleft;
kernRight = guillemotleft;
layers = (
{
hints = (
{
horizontal = 1;
place = (113, 317);
place = (113, 317);
type = Stem;
},
{
place = (44, 182);
place = (44, 182);
type = Stem;
}
);
layerId = m01;
shapes = (
{
closed = 1;
nodes = (
(165,113,l),
(179,189,l),
(92,271,l),
(92,273,l),
(210,348,l),
(226,430,l),
(61,320,l),
(44,233,l)
);
}
);
width = 242;
}
);
note = guilsinglleft;
unicode = 8249;
},
{
glyphname = guilsinglright;
kernLeft = guillemotright;
kernRight = guillemotright;
layers = (
{
hints = (
{
horizontal = 1;
place = (113, 317);
place = (113, 317);
type = Stem;
},
{
place = (20, 182);
place = (20, 182);
type = Stem;
}
);
layerId = m01;
shapes = (
{
closed = 1;
nodes = (
(81,430,l),
(67,354,l),
(154,272,l),
(154,270,l),
(36,195,l),
(20,113,l),
(185,223,l),
(202,310,l)
);
}
);
width = 242;
}
);
note = guilsinglright;
unicode = 8250;
},
{
glyphname = fi;
kernLeft = f;
layers = (
{
hints = (
{
horizontal = 1;
place = (0, 21);
target = up;
type = BottomGhost;
},
{
horizontal = 1;
place = (452, 65);
place = (452, 65);
type = Stem;
},
{
horizontal = 1;
place = (615, 100);
place = (615, 100);
type = Stem;
},
{
place = (42, 460);
place = (42, 460);
type = Stem;
},
{
horizontal = 1;
place = (652, 69);
place = (652, 69);
type = Stem;
}
);
layerId = m01;
shapes = (
{
closed = 1;
nodes = (
(59,452,l),
(129,452,l),
(42,0,l),
(121,0,l),
(208,452,l),
(303,452,l),
(316,517,l),
(221,517,l),
(236,596,ls),
(243,632,o),
(255,652,o),
(307,652,cs),
(313,652,o),
(324,652,o),
(338,651,c),
(351,719,l),
(340,720,o),
(320,721,o),
(307,721,cs),
(219,721,o),
(175,687,o),
(158,600,cs),
(142,517,l),
(72,517,l)
);
},
{
closed = 1;
nodes = (
(284,0,l),
(364,0,l),
(464,517,l),
(384,517,l)
);
},
{
closed = 1;
nodes = (
(403,615,l),
(483,615,l),
(502,715,l),
(422,715,l)
);
}
);
width = 468;
}
);
note = fi;
unicode = 64257;
},
{
glyphname = fl;
kernLeft = f;
layers = (
{
hints = (
{
horizontal = 1;
place = (0, 21);
target = up;
type = BottomGhost;
},
{
horizontal = 1;
place = (452, 65);
place = (452, 65);
type = Stem;
},
{
horizontal = 1;
place = (652, 69);
place = (652, 69);
type = Stem;
},
{
place = (42, 463);
place = (42, 463);
type = Stem;
},
{
horizontal = 1;
place = (715, -20);
target = down;
type = TopGhost;
}
);
layerId = m01;
shapes = (
{
closed = 1;
nodes = (
(59,452,l),
(129,452,l),
(42,0,l),
(121,0,l),
(208,452,l),
(303,452,l),
(316,517,l),
(221,517,l),
(236,596,ls),
(243,632,o),
(255,652,o),
(307,652,cs),
(313,652,o),
(324,652,o),
(338,651,c),
(351,719,l),
(340,720,o),
(320,721,o),
(307,721,cs),
(219,721,o),
(175,687,o),
(158,600,cs),
(142,517,l),
(72,517,l)
);
},
{
closed = 1;
nodes = (
(287,0,l),
(367,0,l),
(505,715,l),
(425,715,l)
);
}
);
width = 474;
}
);
note = fl;
unicode = 64258;
},
{
glyphname = daggerdbl;
layers = (
{
hints = (
{
horizontal = 1;
place = (82, 72);
place = (82, 72);
type = Stem;
},
{
horizontal = 1;
place = (457, 72);
place = (457, 72);
type = Stem;
},
{
horizontal = 1;
place = (715, -20);
target = down;
type = TopGhost;
},
{
place = (-2, 558);
place = (-2, 558);
type = Stem;
}
);
layerId = m01;
shapes = (
{
closed = 1;
nodes = (
(71,457,l),
(266,457,l),
(208,154,l),
(13,154,l),
(-2,82,l),
(193,82,l),
(157,-104,l),
(238,-104,l),
(274,82,l),
(469,82,l),
(484,154,l),
(289,154,l),
(347,457,l),
(542,457,l),
(556,529,l),
(361,529,l),
(397,715,l),
(316,715,l),
(280,529,l),
(85,529,l)
);
}
);
width = 537;
}
);
note = daggerdbl;
unicode = 8225;
},
{
glyphname = periodcentered;
layers = (
{
hints = (
{
horizontal = 1;
place = (263, 99);
place = (263, 99);
type = Stem;
},
{
place = (47, 115);
place = (47, 115);
type = Stem;
}
);
layerId = m01;
shapes = (
{
closed = 1;
nodes = (
(47,263,l),
(143,263,l),
(162,362,l),
(66,362,l)
);
}
);
width = 182;
}
);
note = periodcentered;
unicode = 183;
},
{
glyphname = quotesinglbase;
kernRight = quotesinglbase;
layers = (
{
hints = (
{
horizontal = 1;
place = (0, 100);
place = (0, 100);
type = Stem;
},
{
place = (-29, 123);
place = (-29, 123);
type = Stem;
}
);
layerId = m01;
shapes = (
{
closed = 1;
nodes = (
(94,100,l),
(10,100,l),
(-9,0,l),
(30,0,l),
(22,-52,o),
(1,-65,o),
(-22,-72,c),
(-29,-110,l),
(22,-105,o),
(61,-77,o),
(73,-11,cs)
);
}
);
width = 166;
}
);
note = quotesinglbase;
unicode = 8218;
},
{
glyphname = quotedblbase;
kernRight = quotesinglbase;
layers = (
{
hints = (
{
horizontal = 1;
place = (0, 100);
place = (0, 100);
type = Stem;
},
{
place = (-29, 272);
place = (-29, 272);
type = Stem;
}
);
layerId = m01;
shapes = (
{
closed = 1;
nodes = (
(94,100,l),
(10,100,l),
(-9,0,l),
(30,0,l),
(22,-52,o),
(1,-65,o),
(-22,-72,c),
(-29,-110,l),
(22,-105,o),
(61,-77,o),
(73,-11,cs)
);
},
{
closed = 1;
nodes = (
(243,100,l),
(159,100,l),
(140,0,l),
(179,0,l),
(171,-52,o),
(150,-65,o),
(127,-72,c),
(120,-110,l),
(171,-105,o),
(210,-77,o),
(222,-11,cs)
);
}
);
width = 315;
}
);
note = quotedblbase;
unicode = 8222;
},
{
glyphname = perthousand;
kernLeft = percent;
layers = (
{
hints = (
{
horizontal = 1;
place = (0, 21);
target = up;
type = BottomGhost;
},
{
horizontal = 1;
place = (305, 59);
place = (305, 59);
type = Stem;
},
{
horizontal = 1;
place = (642, 59);
place = (642, 59);
type = Stem;
},
{
place = (68, 73);
place = (68, 73);
type = Stem;
},
{
place = (317, 73);
place = (317, 73);
type = Stem;
},
{
horizontal = 1;
place = (685, -20);
target = down;
type = TopGhost;
},
{
horizontal = 1;
place = (-15, 59);
place = (-15, 59);
type = Stem;
},
{
horizontal = 1;
place = (322, 59);
place = (322, 59);
type = Stem;
},
{
place = (420, 73);
place = (420, 73);
type = Stem;
},
{
place = (669, 73);
place = (669, 73);
type = Stem;
},
{
place = (776, 73);
place = (776, 73);
type = Stem;
},
{
place = (1025, 73);
place = (1025, 73);
type = Stem;
}
);
layerId = m01;
shapes = (
{
closed = 1;
nodes = (
(331,305,o),
(390,435,o),
(390,548,cs),
(390,646,o),
(337,701,o),
(255,701,cs),
(129,701,o),
(68,566,o),
(68,459,cs),
(68,362,o),
(123,305,o),
(210,305,cs)
);
},
{
closed = 1;
nodes = (
(118,0,l),
(185,0,l),
(695,685,l),
(628,685,l)
);
},
{
closed = 1;
nodes = (
(141,532,o),
(172,642,o),
(249,642,cs),
(301,642,o),
(317,600,o),
(317,546,cs),
(317,474,o),
(293,364,o),
(211,364,cs),
(159,364,o),
(141,405,o),
(141,458,cs)
);
},
{
closed = 1;
nodes = (
(683,-15,o),
(742,115,o),
(742,228,cs),
(742,326,o),
(689,381,o),
(607,381,cs),
(481,381,o),
(420,246,o),
(420,139,cs),
(420,42,o),
(475,-15,o),
(562,-15,cs)
);
},
{
closed = 1;
nodes = (
(493,212,o),
(524,322,o),
(601,322,cs),
(653,322,o),
(669,280,o),
(669,226,cs),
(669,154,o),
(645,44,o),
(563,44,cs),
(511,44,o),
(493,85,o),
(493,138,cs)
);
},
{
closed = 1;
nodes = (
(1039,-15,o),
(1098,115,o),
(1098,228,cs),
(1098,326,o),
(1045,381,o),
(963,381,cs),
(837,381,o),
(776,246,o),
(776,139,cs),
(776,42,o),
(831,-15,o),
(918,-15,cs)
);
},
{
closed = 1;
nodes = (
(849,212,o),
(880,322,o),
(957,322,cs),
(1009,322,o),
(1025,280,o),
(1025,226,cs),
(1025,154,o),
(1001,44,o),
(919,44,cs),
(867,44,o),
(849,85,o),
(849,138,cs)
);
}
);
width = 1136;
}
);
note = perthousand;
unicode = 8240;
},
{
glyphname = Acircumflex;
kernLeft = A;
kernRight = A;
layers = (
{
hints = (
{
horizontal = 1;
place = (0, 21);
target = up;
type = BottomGhost;
},
{
horizontal = 1;
place = (218, 72);
place = (218, 72);
type = Stem;
},
{
horizontal = 1;
place = (715, -20);
target = down;
type = TopGhost;
},
{
horizontal = 1;
place = (757, 106);
place = (757, 106);
type = Stem;
},
{
place = (-39, 617);
place = (-39, 617);
type = Stem;
},
{
horizontal = 1;
place = (632, 83);
place = (632, 83);
type = Stem;
}
);
layerId = m01;
shapes = (
{
closed = 1;
nodes = (
(484,0,l),
(578,0,l),
(443,715,l),
(344,715,l),
(-39,0,l),
(53,0,l),
(166,218,l),
(448,218,l)
);
},
{
closed = 1;
nodes = (
(330,531,ls),
(353,574,o),
(380,632,o),
(380,632,c),
(382,632,l),
(382,632,o),
(389,571,o),
(396,531,cs),
(436,290,l),
(204,290,l)
);
},
{
closed = 1;
nodes = (
(262,757,l),
(350,757,l),
(406,820,l),
(408,820,l),
(450,757,l),
(532,757,l),
(458,863,l),
(368,863,l)
);
}
);
width = 638;
}
);
note = Acircumflex;
unicode = 194;
},
{
glyphname = Ecircumflex;
kernRight = E;
layers = (
{
hints = (
{
horizontal = 1;
place = (0, 82);
place = (0, 82);
type = Stem;
},
{
horizontal = 1;
place = (335, 75);
place = (335, 75);
type = Stem;
},
{
horizontal = 1;
place = (637, 78);
place = (637, 78);
type = Stem;
},
{
horizontal = 1;
place = (757, 106);
place = (757, 106);
type = Stem;
},
{
place = (16, 605);
place = (16, 605);
type = Stem;
}
);
layerId = m01;
shapes = (
{
closed = 1;
nodes = (
(16,0,l),
(505,0,l),
(521,82,l),
(120,82,l),
(168,335,l),
(516,335,l),
(531,410,l),
(183,410,l),
(227,637,l),
(606,637,l),
(621,715,l),
(154,715,l)
);
},
{
closed = 1;
nodes = (
(263,757,l),
(351,757,l),
(407,820,l),
(409,820,l),
(451,757,l),
(533,757,l),
(459,863,l),
(369,863,l)
);
}
);
width = 592;
}
);
note = Ecircumflex;
unicode = 202;
},
{
glyphname = Aacute;
kernLeft = A;
kernRight = A;
layers = (
{
hints = (
{
horizontal = 1;
place = (0, 21);
target = up;
type = BottomGhost;
},
{
horizontal = 1;
place = (218, 72);
place = (218, 72);
type = Stem;
},
{
horizontal = 1;
place = (715, -20);
target = down;
type = TopGhost;
},
{
horizontal = 1;
place = (753, 121);
place = (753, 121);
type = Stem;
},
{
place = (-39, 617);
place = (-39, 617);
type = Stem;
},
{
horizontal = 1;
place = (632, 83);
place = (632, 83);
type = Stem;
}
);
layerId = m01;
shapes = (
{
closed = 1;
nodes = (
(484,0,l),
(578,0,l),
(443,715,l),
(344,715,l),
(-39,0,l),
(53,0,l),
(166,218,l),
(448,218,l)
);
},
{
closed = 1;
nodes = (
(330,531,ls),
(353,574,o),
(380,632,o),
(380,632,c),
(382,632,l),
(382,632,o),
(389,571,o),
(396,531,cs),
(436,290,l),
(204,290,l)
);
},
{
closed = 1;
nodes = (
(369,753,l),
(437,753,l),
(529,874,l),
(431,874,l)
);
}
);
width = 638;
}
);
note = Aacute;
unicode = 193;
},
{
glyphname = Edieresis;
kernRight = E;
layers = (
{
hints = (
{
horizontal = 1;
place = (0, 82);
place = (0, 82);
type = Stem;
},
{
horizontal = 1;
place = (335, 75);
place = (335, 75);
type = Stem;
},
{
horizontal = 1;
place = (637, 78);
place = (637, 78);
type = Stem;
},
{
horizontal = 1;
place = (760, 95);
place = (760, 95);
type = Stem;
},
{
place = (16, 605);
place = (16, 605);
type = Stem;
}
);
layerId = m01;
shapes = (
{
closed = 1;
nodes = (
(16,0,l),
(505,0,l),
(521,82,l),
(120,82,l),
(168,335,l),
(516,335,l),
(531,410,l),
(183,410,l),
(227,637,l),
(606,637,l),
(621,715,l),
(154,715,l)
);
},
{
closed = 1;
nodes = (
(442,760,l),
(519,760,l),
(538,855,l),
(461,855,l)
);
},
{
closed = 1;
nodes = (
(281,760,l),
(358,760,l),
(377,855,l),
(300,855,l)
);
}
);
width = 592;
}
);
note = Edieresis;
unicode = 203;
},
{
glyphname = Egrave;
kernRight = E;
layers = (
{
hints = (
{
horizontal = 1;
place = (0, 82);
place = (0, 82);
type = Stem;
},
{
horizontal = 1;
place = (335, 75);
place = (335, 75);
type = Stem;
},
{
horizontal = 1;
place = (637, 78);
place = (637, 78);
type = Stem;
},
{
horizontal = 1;
place = (753, 121);
place = (753, 121);
type = Stem;
},
{
place = (16, 605);
place = (16, 605);
type = Stem;
}
);
layerId = m01;
shapes = (
{
closed = 1;
nodes = (
(16,0,l),
(505,0,l),
(521,82,l),
(120,82,l),
(168,335,l),
(516,335,l),
(531,410,l),
(183,410,l),
(227,637,l),
(606,637,l),
(621,715,l),
(154,715,l)
);
},
{
closed = 1;
nodes = (
(374,753,l),
(442,753,l),
(400,874,l),
(305,874,l)
);
}
);
width = 592;
}
);
note = Egrave;
unicode = 200;
},
{
glyphname = Iacute;
layers = (
{
hints = (
{
horizontal = 1;
place = (0, 21);
target = up;
type = BottomGhost;
},
{
horizontal = 1;
place = (715, -20);
target = down;
type = TopGhost;
},
{
horizontal = 1;
place = (753, 121);
place = (753, 121);
type = Stem;
},
{
place = (18, 313);
place = (18, 313);
type = Stem;
}
);
layerId = m01;
shapes = (
{
closed = 1;
nodes = (
(18,0,l),
(106,0,l),
(244,715,l),
(156,715,l)
);
},
{
closed = 1;
nodes = (
(171,753,l),
(239,753,l),
(331,874,l),
(233,874,l)
);
}
);
width = 224;
}
);
note = Iacute;
unicode = 205;
},
{
glyphname = Icircumflex;
layers = (
{
hints = (
{
horizontal = 1;
place = (0, 21);
target = up;
type = BottomGhost;
},
{
horizontal = 1;
place = (715, -20);
target = down;
type = TopGhost;
},
{
horizontal = 1;
place = (757, 106);
place = (757, 106);
type = Stem;
},
{
place = (18, 321);
place = (18, 321);
type = Stem;
}
);
layerId = m01;
shapes = (
{
closed = 1;
nodes = (
(18,0,l),
(106,0,l),
(244,715,l),
(156,715,l)
);
},
{
closed = 1;
nodes = (
(69,757,l),
(157,757,l),
(213,820,l),
(215,820,l),
(257,757,l),
(339,757,l),
(265,863,l),
(175,863,l)
);
}
);
width = 224;
}
);
note = Icircumflex;
unicode = 206;
},
{
glyphname = Idieresis;
layers = (
{
hints = (
{
horizontal = 1;
place = (0, 21);
target = up;
type = BottomGhost;
},
{
horizontal = 1;
place = (715, -20);
target = down;
type = TopGhost;
},
{
horizontal = 1;
place = (760, 95);
place = (760, 95);
type = Stem;
},
{
place = (18, 326);
place = (18, 326);
type = Stem;
}
);
layerId = m01;
shapes = (
{
closed = 1;
nodes = (
(18,0,l),
(106,0,l),
(244,715,l),
(156,715,l)
);
},
{
closed = 1;
nodes = (
(248,760,l),
(325,760,l),
(344,855,l),
(267,855,l)
);
},
{
closed = 1;
nodes = (
(87,760,l),
(164,760,l),
(183,855,l),
(106,855,l)
);
}
);
width = 224;
}
);
note = Idieresis;
unicode = 207;
},
{
glyphname = Igrave;
layers = (
{
hints = (
{
horizontal = 1;
place = (0, 21);
target = up;
type = BottomGhost;
},
{
horizontal = 1;
place = (715, -20);
target = down;
type = TopGhost;
},
{
horizontal = 1;
place = (753, 121);
place = (753, 121);
type = Stem;
},
{
place = (18, 226);
place = (18, 226);
type = Stem;
}
);
layerId = m01;
shapes = (
{
closed = 1;
nodes = (
(18,0,l),
(106,0,l),
(244,715,l),
(156,715,l)
);
},
{
closed = 1;
nodes = (
(172,753,l),
(240,753,l),
(198,874,l),
(103,874,l)
);
}
);
width = 224;
}
);
note = Igrave;
unicode = 204;
},
{
glyphname = Oacute;
kernLeft = C;
kernRight = O;
layers = (
{
hints = (
{
horizontal = 1;
place = (-15, 78);
place = (-15, 78);
type = Stem;
},
{
horizontal = 1;
place = (654, 77);
place = (654, 77);
type = Stem;
},
{
place = (50, 92);
place = (50, 92);
type = Stem;
},
{
place = (654, 91);
place = (654, 91);
type = Stem;
},
{
horizontal = 1;
place = (753, 121);
place = (753, 121);
type = Stem;
}
);
layerId = m01;
shapes = (
{
closed = 1;
nodes = (
(605,-15,o),
(745,172,o),
(745,402,cs),
(745,612,o),
(607,731,o),
(426,731,cs),
(199,731,o),
(50,539,o),
(50,312,cs),
(50,103,o),
(191,-15,o),
(372,-15,cs)
);
},
{
closed = 1;
nodes = (
(142,499,o),
(241,654,o),
(422,654,cs),
(567,654,o),
(654,552,o),
(654,401,cs),
(654,213,o),
(558,63,o),
(374,63,cs),
(231,63,o),
(142,156,o),
(142,312,cs)
);
},
{
closed = 1;
nodes = (
(407,753,l),
(475,753,l),
(567,874,l),
(469,874,l)
);
}
);
width = 758;
}
);
note = Oacute;
unicode = 211;
},
{
glyphname = Ocircumflex;
kernLeft = C;
kernRight = O;
layers = (
{
hints = (
{
horizontal = 1;
place = (-15, 78);
place = (-15, 78);
type = Stem;
},
{
horizontal = 1;
place = (654, 77);
place = (654, 77);
type = Stem;
},
{
place = (50, 92);
place = (50, 92);
type = Stem;
},
{
place = (654, 91);
place = (654, 91);
type = Stem;
},
{
horizontal = 1;
place = (757, 106);
place = (757, 106);
type = Stem;
}
);
layerId = m01;
shapes = (
{
closed = 1;
nodes = (
(605,-15,o),
(745,172,o),
(745,402,cs),
(745,612,o),
(607,731,o),
(426,731,cs),
(199,731,o),
(50,539,o),
(50,312,cs),
(50,103,o),
(191,-15,o),
(372,-15,cs)
);
},
{
closed = 1;
nodes = (
(142,499,o),
(241,654,o),
(422,654,cs),
(567,654,o),
(654,552,o),
(654,401,cs),
(654,213,o),
(558,63,o),
(374,63,cs),
(231,63,o),
(142,156,o),
(142,312,cs)
);
},
{
closed = 1;
nodes = (
(299,757,l),
(387,757,l),
(443,820,l),
(445,820,l),
(487,757,l),
(569,757,l),
(495,863,l),
(405,863,l)
);
}
);
width = 758;
}
);
note = Ocircumflex;
unicode = 212;
},
{
glyphname = Ograve;
kernLeft = C;
kernRight = O;
layers = (
{
hints = (
{
horizontal = 1;
place = (-15, 78);
place = (-15, 78);
type = Stem;
},
{
horizontal = 1;
place = (654, 77);
place = (654, 77);
type = Stem;
},
{
place = (50, 92);
place = (50, 92);
type = Stem;
},
{
place = (654, 91);
place = (654, 91);
type = Stem;
},
{
horizontal = 1;
place = (753, 121);
place = (753, 121);
type = Stem;
}
);
layerId = m01;
shapes = (
{
closed = 1;
nodes = (
(605,-15,o),
(745,172,o),
(745,402,cs),
(745,612,o),
(607,731,o),
(426,731,cs),
(199,731,o),
(50,539,o),
(50,312,cs),
(50,103,o),
(191,-15,o),
(372,-15,cs)
);
},
{
closed = 1;
nodes = (
(142,499,o),
(241,654,o),
(422,654,cs),
(567,654,o),
(654,552,o),
(654,401,cs),
(654,213,o),
(558,63,o),
(374,63,cs),
(231,63,o),
(142,156,o),
(142,312,cs)
);
},
{
closed = 1;
nodes = (
(407,753,l),
(475,753,l),
(433,874,l),
(338,874,l)
);
}
);
width = 758;
}
);
note = Ograve;
unicode = 210;
},
{
glyphname = Uacute;
kernLeft = U;
kernRight = U;
layers = (
{
hints = (
{
horizontal = 1;
place = (-11, 76);
place = (-11, 76);
type = Stem;
},
{
horizontal = 1;
place = (715, -20);
target = down;
type = TopGhost;
},
{
horizontal = 1;
place = (753, 121);
place = (753, 121);
type = Stem;
},
{
place = (47, 89);
place = (47, 89);
type = Stem;
}
);
layerId = m01;
shapes = (
{
closed = 1;
nodes = (
(440,-11,o),
(547,55,o),
(577,210,cs),
(675,715,l),
(587,715,l),
(492,225,ls),
(470,114,o),
(410,65,o),
(302,65,cs),
(165,65,o),
(117,131,o),
(143,261,cs),
(231,715,l),
(142,715,l),
(54,261,ls),
(17,70,o),
(128,-11,o),
(298,-11,cs)
);
},
{
closed = 1;
nodes = (
(376,753,l),
(444,753,l),
(536,874,l),
(438,874,l)
);
}
);
width = 641;
}
);
note = Uacute;
unicode = 218;
},
{
glyphname = Ucircumflex;
kernLeft = U;
kernRight = U;
layers = (
{
hints = (
{
horizontal = 1;
place = (-11, 76);
place = (-11, 76);
type = Stem;
},
{
horizontal = 1;
place = (715, -20);
target = down;
type = TopGhost;
},
{
horizontal = 1;
place = (757, 106);
place = (757, 106);
type = Stem;
},
{
place = (47, 89);
place = (47, 89);
type = Stem;
}
);
layerId = m01;
shapes = (
{
closed = 1;
nodes = (
(440,-11,o),
(547,55,o),
(577,210,cs),
(675,715,l),
(587,715,l),
(492,225,ls),
(470,114,o),
(410,65,o),
(302,65,cs),
(165,65,o),
(117,131,o),
(143,261,cs),
(231,715,l),
(142,715,l),
(54,261,ls),
(17,70,o),
(128,-11,o),
(298,-11,cs)
);
},
{
closed = 1;
nodes = (
(282,757,l),
(370,757,l),
(426,820,l),
(428,820,l),
(470,757,l),
(552,757,l),
(478,863,l),
(388,863,l)
);
}
);
width = 641;
}
);
note = Ucircumflex;
unicode = 219;
},
{
glyphname = Ugrave;
kernLeft = U;
kernRight = U;
layers = (
{
hints = (
{
horizontal = 1;
place = (-11, 76);
place = (-11, 76);
type = Stem;
},
{
horizontal = 1;
place = (715, -20);
target = down;
type = TopGhost;
},
{
horizontal = 1;
place = (753, 121);
place = (753, 121);
type = Stem;
},
{
place = (47, 89);
place = (47, 89);
type = Stem;
}
);
layerId = m01;
shapes = (
{
closed = 1;
nodes = (
(440,-11,o),
(547,55,o),
(577,210,cs),
(675,715,l),
(587,715,l),
(492,225,ls),
(470,114,o),
(410,65,o),
(302,65,cs),
(165,65,o),
(117,131,o),
(143,261,cs),
(231,715,l),
(142,715,l),
(54,261,ls),
(17,70,o),
(128,-11,o),
(298,-11,cs)
);
},
{
closed = 1;
nodes = (
(386,753,l),
(454,753,l),
(412,874,l),
(317,874,l)
);
}
);
width = 641;
}
);
note = Ugrave;
unicode = 217;
},
{
glyphname = dotlessi;
kernLeft = m;
kernRight = u;
layers = (
{
hints = (
{
horizontal = 1;
place = (0, 21);
target = up;
type = BottomGhost;
},
{
horizontal = 1;
place = (517, -20);
target = down;
type = TopGhost;
},
{
place = (4, 180);
place = (4, 180);
type = Stem;
}
);
layerId = m01;
shapes = (
{
closed = 1;
nodes = (
(4,0,l),
(84,0,l),
(184,517,l),
(104,517,l)
);
}
);
width = 188;
}
);
note = dotlessi;
unicode = 305;
},
{
glyphname = circumflex;
layers = (
{
hints = (
{
horizontal = 1;
place = (602, 106);
place = (602, 106);
type = Stem;
},
{
place = (178, 270);
place = (178, 270);
type = Stem;
}
);
layerId = m01;
shapes = (
{
closed = 1;
nodes = (
(178,602,l),
(266,602,l),
(322,665,l),
(324,665,l),
(366,602,l),
(448,602,l),
(374,708,l),
(284,708,l)
);
}
);
width = 492;
}
);
note = circumflex;
unicode = 710;
},
{
glyphname = tilde;
layers = (
{
hints = (
{
horizontal = 1;
place = (601, 92);
place = (601, 92);
type = Stem;
},
{
place = (177, 287);
place = (177, 287);
type = Stem;
},
{
horizontal = 1;
place = (601, 62);
place = (601, 62);
type = Stem;
},
{
horizontal = 1;
place = (603, 92);
place = (603, 92);
type = Stem;
},
{
horizontal = 1;
place = (633, 62);
place = (633, 62);
type = Stem;
}
);
layerId = m01;
shapes = (
{
closed = 1;
nodes = (
(427,601,o),
(454,642,o),
(464,693,c),
(407,693,l),
(403,677,o),
(395,663,o),
(376,663,cs),
(340,663,o),
(318,695,o),
(265,695,cs),
(219,695,o),
(190,660,o),
(177,603,c),
(236,603,l),
(239,621,o),
(249,633,o),
(263,633,cs),
(289,633,o),
(329,601,o),
(376,601,cs)
);
}
);
width = 492;
}
);
note = tilde;
unicode = 732;
},
{
glyphname = macron;
layers = (
{
hints = (
{
horizontal = 1;
place = (623, 66);
place = (623, 66);
type = Stem;
},
{
place = (189, 267);
place = (189, 267);
type = Stem;
}
);
layerId = m01;
shapes = (
{
closed = 1;
nodes = (
(189,623,l),
(443,623,l),
(456,689,l),
(202,689,l)
);
}
);
width = 492;
}
);
note = macron;
unicode = 175;
},
{
glyphname = breve;
layers = (
{
hints = (
{
horizontal = 1;
place = (604, 111);
place = (604, 111);
type = Stem;
},
{
place = (204, 250);
place = (204, 250);
type = Stem;
},
{
horizontal = 1;
place = (604, 62);
place = (604, 62);
type = Stem;
}
);
layerId = m01;
shapes = (
{
closed = 1;
nodes = (
(398,604,o),
(445,655,o),
(454,715,c),
(397,715,l),
(388,685,o),
(365,666,o),
(326,666,cs),
(287,666,o),
(267,685,o),
(263,715,c),
(204,715,l),
(205,648,o),
(253,604,o),
(324,604,cs)
);
}
);
width = 492;
}
);
note = breve;
unicode = 728;
},
{
glyphname = dotaccent;
layers = (
{
hints = (
{
horizontal = 1;
place = (615, 100);
place = (615, 100);
type = Stem;
},
{
place = (275, 98);
place = (275, 98);
type = Stem;
}
);
layerId = m01;
shapes = (
{
closed = 1;
nodes = (
(275,615,l),
(354,615,l),
(373,715,l),
(294,715,l)
);
}
);
width = 492;
}
);
note = dotaccent;
unicode = 729;
},
{
glyphname = ring;
layers = (
{
hints = (
{
horizontal = 1;
place = (559, 35);
place = (559, 35);
type = Stem;
},
{
horizontal = 1;
place = (694, 35);
place = (694, 35);
type = Stem;
},
{
place = (237, 40);
place = (237, 40);
type = Stem;
},
{
place = (371, 40);
place = (371, 40);
type = Stem;
}
);
layerId = m01;
shapes = (
{
closed = 1;
nodes = (
(372,559,o),
(411,597,o),
(411,644,cs),
(411,691,o),
(372,729,o),
(324,729,cs),
(276,729,o),
(237,691,o),
(237,644,cs),
(237,597,o),
(276,559,o),
(324,559,cs)
);
},
{
closed = 1;
nodes = (
(296,594,o),
(277,616,o),
(277,644,cs),
(277,672,o),
(296,694,o),
(324,694,cs),
(352,694,o),
(371,672,o),
(371,644,cs),
(371,616,o),
(352,594,o),
(324,594,cs)
);
}
);
width = 501;
}
);
note = ring;
unicode = 730;
},
{
glyphname = cedilla;
layers = (
{
hints = (
{
horizontal = 1;
place = (-191, 43);
place = (-191, 43);
type = Stem;
},
{
horizontal = 1;
place = (-88, 36);
place = (-88, 36);
type = Stem;
},
{
place = (190, 64);
place = (190, 64);
type = Stem;
},
{
horizontal = 1;
place = (-160, 21);
target = up;
type = BottomGhost;
},
{
horizontal = 1;
place = (-50, 50);
place = (-50, 50);
type = Stem;
}
);
layerId = m01;
shapes = (
{
closed = 1;
nodes = (
(206,-191,o),
(254,-164,o),
(254,-109,cs),
(254,-62,o),
(208,-45,o),
(169,-52,c),
(169,-50,l),
(226,0,l),
(167,0,l),
(103,-72,l),
(115,-95,l),
(127,-91,o),
(137,-88,o),
(155,-88,cs),
(178,-88,o),
(190,-98,o),
(190,-114,cs),
(190,-146,o),
(153,-148,o),
(131,-148,cs),
(106,-148,o),
(79,-141,o),
(59,-131,c),
(42,-160,l),
(65,-176,o),
(96,-191,o),
(148,-191,cs)
);
}
);
width = 492;
}
);
note = cedilla;
unicode = 184;
},
{
glyphname = hungarumlaut;
layers = (
{
hints = (
{
horizontal = 1;
place = (598, 127);
place = (598, 127);
type = Stem;
},
{
place = (201, 250);
place = (201, 250);
type = Stem;
}
);
layerId = m01;
shapes = (
{
closed = 1;
nodes = (
(329,598,l),
(389,598,l),
(451,725,l),
(370,725,l)
);
},
{
closed = 1;
nodes = (
(201,598,l),
(261,598,l),
(323,725,l),
(242,725,l)
);
}
);
width = 492;
}
);
note = hungarumlaut;
unicode = 733;
},
{
glyphname = ogonek;
layers = (
{
hints = (
{
horizontal = 1;
place = (-172, 57);
place = (-172, 57);
type = Stem;
},
{
place = (60, 76);
place = (60, 76);
type = Stem;
},
{
horizontal = 1;
place = (-172, 172);
place = (-172, 172);
type = Stem;
}
);
layerId = m01;
shapes = (
{
closed = 1;
nodes = (
(171,-172,o),
(186,-169,o),
(197,-165,c),
(208,-109,l),
(206,-109,l),
(197,-112,o),
(183,-115,o),
(170,-115,cs),
(148,-115,o),
(136,-105,o),
(136,-88,cs),
(136,-51,o),
(183,-18,o),
(211,0,c),
(143,0,l),
(103,-17,o),
(60,-50,o),
(60,-98,cs),
(60,-146,o),
(99,-172,o),
(154,-172,cs)
);
}
);
width = 492;
}
);
note = ogonek;
unicode = 731;
},
{
glyphname = caron;
layers = (
{
hints = (
{
horizontal = 1;
place = (602, 106);
place = (602, 106);
type = Stem;
},
{
place = (198, 270);
place = (198, 270);
type = Stem;
}
);
layerId = m01;
shapes = (
{
closed = 1;
nodes = (
(468,708,l),
(380,708,l),
(324,645,l),
(322,645,l),
(280,708,l),
(198,708,l),
(272,602,l),
(362,602,l)
);
}
);
width = 492;
}
);
note = caron;
unicode = 711;
},
{
glyphname = Amacron;
kernLeft = A;
kernRight = A;
layers = (
{
hints = (
{
horizontal = 1;
place = (0, 21);
target = up;
type = BottomGhost;
},
{
horizontal = 1;
place = (218, 72);
place = (218, 72);
type = Stem;
},
{
horizontal = 1;
place = (715, -20);
target = down;
type = TopGhost;
},
{
horizontal = 1;
place = (760, 66);
place = (760, 66);
type = Stem;
},
{
place = (-39, 617);
place = (-39, 617);
type = Stem;
},
{
horizontal = 1;
place = (632, 83);
place = (632, 83);
type = Stem;
}
);
layerId = m01;
shapes = (
{
closed = 1;
nodes = (
(484,0,l),
(578,0,l),
(443,715,l),
(344,715,l),
(-39,0,l),
(53,0,l),
(166,218,l),
(448,218,l)
);
},
{
closed = 1;
nodes = (
(330,531,ls),
(353,574,o),
(380,632,o),
(380,632,c),
(382,632,l),
(382,632,o),
(389,571,o),
(396,531,cs),
(436,290,l),
(204,290,l)
);
},
{
closed = 1;
nodes = (
(272,760,l),
(526,760,l),
(539,826,l),
(285,826,l)
);
}
);
width = 638;
}
);
note = Amacron;
unicode = 256;
},
{
glyphname = Abreve;
kernLeft = A;
kernRight = A;
layers = (
{
hints = (
{
horizontal = 1;
place = (0, 21);
target = up;
type = BottomGhost;
},
{
horizontal = 1;
place = (218, 72);
place = (218, 72);
type = Stem;
},
{
horizontal = 1;
place = (715, -20);
target = down;
type = TopGhost;
},
{
horizontal = 1;
place = (759, 62);
place = (759, 62);
type = Stem;
},
{
place = (-39, 617);
place = (-39, 617);
type = Stem;
},
{
horizontal = 1;
place = (632, 83);
place = (632, 83);
type = Stem;
}
);
layerId = m01;
shapes = (
{
closed = 1;
nodes = (
(484,0,l),
(578,0,l),
(443,715,l),
(344,715,l),
(-39,0,l),
(53,0,l),
(166,218,l),
(448,218,l)
);
},
{
closed = 1;
nodes = (
(330,531,ls),
(353,574,o),
(380,632,o),
(380,632,c),
(382,632,l),
(382,632,o),
(389,571,o),
(396,531,cs),
(436,290,l),
(204,290,l)
);
},
{
closed = 1;
nodes = (
(477,759,o),
(524,810,o),
(533,870,c),
(476,870,l),
(467,840,o),
(444,821,o),
(405,821,cs),
(366,821,o),
(346,840,o),
(342,870,c),
(283,870,l),
(284,803,o),
(332,759,o),
(403,759,cs)
);
}
);
width = 638;
}
);
note = Abreve;
unicode = 258;
},
{
glyphname = Aogonek;
kernLeft = A;
kernRight = A;
layers = (
{
hints = (
{
horizontal = 1;
place = (-172, 57);
place = (-172, 57);
type = Stem;
},
{
horizontal = 1;
place = (0, 21);
target = up;
type = BottomGhost;
},
{
horizontal = 1;
place = (218, 72);
place = (218, 72);
type = Stem;
},
{
horizontal = 1;
place = (715, -20);
target = down;
type = TopGhost;
},
{
place = (418, 76);
place = (418, 76);
type = Stem;
},
{
horizontal = 1;
place = (-7, 21);
target = up;
type = BottomGhost;
},
{
horizontal = 1;
place = (632, 83);
place = (632, 83);
type = Stem;
}
);
layerId = m01;
shapes = (
{
closed = 1;
nodes = (
(529,-172,o),
(544,-169,o),
(555,-165,c),
(566,-109,l),
(564,-109,l),
(555,-112,o),
(541,-115,o),
(528,-115,cs),
(506,-115,o),
(494,-105,o),
(494,-88,cs),
(494,-51,o),
(540,-18,o),
(577,5,c),
(443,715,l),
(344,715,l),
(-39,0,l),
(53,0,l),
(166,218,l),
(448,218,l),
(485,-7,l),
(450,-26,o),
(418,-56,o),
(418,-98,cs),
(418,-146,o),
(457,-172,o),
(512,-172,cs)
);
},
{
closed = 1;
nodes = (
(330,531,ls),
(353,574,o),
(380,632,o),
(380,632,c),
(382,632,l),
(382,632,o),
(389,571,o),
(396,531,cs),
(436,290,l),
(204,290,l)
);
}
);
width = 638;
}
);
note = Aogonek;
unicode = 260;
},
